{
copyright = "Copyright (c) 2015, Cadson Demak (info@cadsondemak.com)";
customParameters = (
{
name = vendorID;
value = CDK;
},
{
name = description;
value = "New Parameter";
},
{
name = license;
value = "New Parameter";
},
{
name = licenseURL;
value = "New Parameter";
},
{
name = fsType;
value = "New Parameter";
}
);
date = "2015-10-27 08:31:28 +0000";
designer = "Katatrad Team";
designerURL = www.katatrad.com;
familyName = "Trirong";
featurePrefixes = (
{
automatic = 1;
code = "languagesystem DFLT dflt;\012languagesystem latn dflt;\012languagesystem thai dflt;\012languagesystem latn ROM;\012languagesystem latn MOL;\012languagesystem latn CAT;\012";
name = Languagesystems;
}
);
features = (
{
automatic = 1;
code = "feature ccmp;\012feature locl;\012feature subs;\012feature sups;\012feature frac;\012feature ordn;\012";
name = aalt;
},
{

glyphs = (
{
glyphname = A;
lastChange = "2015-10-27 08:27:43 +0000";
layers = (
{
layerId = "6452E246-BF19-4A01-B77D-5979BB06C1CE";
name = "Regular Italic";
paths = (
{
closed = 1;
nodes = (
"174 0 LINE",
"176 11 LINE",
"156 19 OFFCURVE",
"133 26 OFFCURVE",
"100 30 CURVE",
"415 604 LINE",
"492 30 LINE",
"463 27 OFFCURVE",
"438 22 OFFCURVE",
"411 12 CURVE",
"409 0 LINE",
"649 0 LINE",
"651 12 LINE",
"629 21 OFFCURVE",
"604 27 OFFCURVE",
"580 31 CURVE",
"482 704 LINE",
"421 704 LINE",
"49 32 LINE",
"32 30 OFFCURVE",
"-5 22 OFFCURVE",
"-30 13 CURVE",
"-32 0 LINE"
);
},
{
closed = 1;
nodes = (
"496 182 LINE",
"504 217 LINE",
"174 217 LINE",
"166 182 LINE"
);
}
);
width = 694;
}
);
leftKerningGroup = A;
note = A;
rightKerningGroup = A;
unicode = 0041;
},
{
glyphname = Aacute;
lastChange = "2015-10-27 08:20:57 +0000";
layers = (
{
layerId = "6452E246-BF19-4A01-B77D-5979BB06C1CE";
name = "Regular Italic";
paths = (
{
closed = 1;
nodes = (
"174 0 LINE",
"176 11 LINE",
"156 19 OFFCURVE",
"133 26 OFFCURVE",
"100 30 CURVE",
"415 604 LINE",
"492 30 LINE",
"463 27 OFFCURVE",
"438 22 OFFCURVE",
"411 12 CURVE",
"409 0 LINE",
"649 0 LINE",
"651 12 LINE",
"629 21 OFFCURVE",
"604 27 OFFCURVE",
"580 31 CURVE",
"482 704 LINE",
"421 704 LINE",
"49 32 LINE",
"32 30 OFFCURVE",
"-5 22 OFFCURVE",
"-30 13 CURVE",
"-32 0 LINE"
);
},
{
closed = 1;
nodes = (
"496 182 LINE",
"504 217 LINE",
"174 217 LINE",
"166 182 LINE"
);
},
{
closed = 1;
nodes = (
"583 868 LINE SMOOTH",
"606 881 OFFCURVE",
"619 895 OFFCURVE",
"622 911 CURVE",
"625 924 OFFCURVE",
"618 938 OFFCURVE",
"598 938 CURVE SMOOTH",
"577 938 OFFCURVE",
"559 922 OFFCURVE",
"550 915 CURVE SMOOTH",
"420 809 LINE",
"430 786 LINE"
);
}
);
width = 694;
}
);
leftKerningGroup = A;
note = Aacute;
rightKerningGroup = A;
unicode = 00C1;
},
{
glyphname = Abreve;
lastChange = "2015-11-28 10:00:50 +0000";
layers = (
{
layerId = "6452E246-BF19-4A01-B77D-5979BB06C1CE";
name = "Regular Italic";
paths = (
{
closed = 1;
nodes = (
"174 0 LINE",
"176 11 LINE",
"156 19 OFFCURVE",
"133 26 OFFCURVE",
"100 30 CURVE",
"415 604 LINE",
"492 30 LINE",
"463 27 OFFCURVE",
"438 22 OFFCURVE",
"411 12 CURVE",
"409 0 LINE",
"649 0 LINE",
"651 12 LINE",
"629 21 OFFCURVE",
"604 27 OFFCURVE",
"580 31 CURVE",
"482 704 LINE",
"421 704 LINE",
"49 32 LINE",
"32 30 OFFCURVE",
"-5 22 OFFCURVE",
"-30 13 CURVE",
"-32 0 LINE"
);
},
{
closed = 1;
nodes = (
"496 182 LINE",
"504 217 LINE",
"174 217 LINE",
"166 182 LINE"
);
},
{
closed = 1;
nodes = (
"553 785 OFFCURVE",
"619 824 OFFCURVE",
"646 909 CURVE",
"593 909 LINE",
"570 833 OFFCURVE",
"520 822 OFFCURVE",
"480 822 CURVE SMOOTH",
"441 822 OFFCURVE",
"394 833 OFFCURVE",
"402 909 CURVE",
"349 909 LINE",
"342 824 OFFCURVE",
"391 785 OFFCURVE",
"473 785 CURVE SMOOTH"
);
}
);
width = 694;
}
);
leftKerningGroup = A;
note = Abreve;
rightKerningGroup = A;
unicode = 0102;
},
{
glyphname = Abreveacute;
lastChange = "2015-10-27 08:20:58 +0000";
layers = (
{
layerId = "6452E246-BF19-4A01-B77D-5979BB06C1CE";
name = "Regular Italic";
paths = (
{
closed = 1;
nodes = (
"174 0 LINE",
"176 11 LINE",
"156 19 OFFCURVE",
"133 26 OFFCURVE",
"100 30 CURVE",
"415 604 LINE",
"492 30 LINE",
"463 27 OFFCURVE",
"438 22 OFFCURVE",
"411 12 CURVE",
"409 0 LINE",
"649 0 LINE",
"651 12 LINE",
"629 21 OFFCURVE",
"604 27 OFFCURVE",
"580 31 CURVE",
"482 704 LINE",
"421 704 LINE",
"49 32 LINE",
"32 30 OFFCURVE",
"-5 22 OFFCURVE",
"-30 13 CURVE",
"-32 0 LINE"
);
},
{
closed = 1;
nodes = (
"496 182 LINE",
"504 217 LINE",
"174 217 LINE",
"166 182 LINE"
);
},
{
closed = 1;
nodes = (
"555 786 OFFCURVE",
"619 825 OFFCURVE",
"647 909 CURVE",
"594 909 LINE",
"571 833 OFFCURVE",
"519 823 OFFCURVE",
"480 823 CURVE SMOOTH",
"441 823 OFFCURVE",
"396 833 OFFCURVE",
"403 909 CURVE",
"349 909 LINE",
"342 825 OFFCURVE",
"393 786 OFFCURVE",
"473 786 CURVE SMOOTH"
);
},
{
closed = 1;
nodes = (
"586 962 LINE SMOOTH",
"619 979 OFFCURVE",
"636 999 OFFCURVE",
"639 1015 CURVE",
"642 1028 OFFCURVE",
"635 1038 OFFCURVE",
"619 1038 CURVE SMOOTH",
"605 1038 OFFCURVE",
"584 1027 OFFCURVE",
"557 1005 CURVE SMOOTH",
"464 926 LINE",
"474 905 LINE"
);
}
);
width = 694;
}
);
leftKerningGroup = A;
note = Abreveacute;
rightKerningGroup = A;
unicode = 1EAE;
},
{
glyphname = Abrevedotbelow;
lastChange = "2015-11-28 10:00:43 +0000";
layers = (
{
layerId = "6452E246-BF19-4A01-B77D-5979BB06C1CE";
name = "Regular Italic";
paths = (
{
closed = 1;
nodes = (
"174 0 LINE",
"176 11 LINE",
"156 19 OFFCURVE",
"133 26 OFFCURVE",
"100 30 CURVE",
"415 604 LINE",
"492 30 LINE",
"463 27 OFFCURVE",
"438 22 OFFCURVE",
"411 12 CURVE",
"409 0 LINE",
"649 0 LINE",
"651 12 LINE",
"629 21 OFFCURVE",
"604 27 OFFCURVE",
"580 31 CURVE",
"482 704 LINE",
"421 704 LINE",
"49 32 LINE",
"32 30 OFFCURVE",
"-5 22 OFFCURVE",
"-30 13 CURVE",
"-32 0 LINE"
);
},
{
closed = 1;
nodes = (
"300 -151 OFFCURVE",
"322 -132 OFFCURVE",
"327 -106 CURVE SMOOTH",
"333 -78 OFFCURVE",
"320 -59 OFFCURVE",
"294 -59 CURVE SMOOTH",
"268 -59 OFFCURVE",
"247 -78 OFFCURVE",
"241 -106 CURVE SMOOTH",
"235 -132 OFFCURVE",
"249 -151 OFFCURVE",
"275 -151 CURVE SMOOTH"
);
},
{
closed = 1;
nodes = (
"496 182 LINE",
"504 217 LINE",
"174 217 LINE",
"166 182 LINE"
);
},
{
closed = 1;
nodes = (
"554 785 OFFCURVE",
"620 824 OFFCURVE",
"647 909 CURVE",
"593 909 LINE",
"570 833 OFFCURVE",
"520 822 OFFCURVE",
"481 822 CURVE SMOOTH",
"441 822 OFFCURVE",
"394 833 OFFCURVE",
"402 909 CURVE",
"349 909 LINE",
"342 824 OFFCURVE",
"391 785 OFFCURVE",
"473 785 CURVE SMOOTH"
);
}
);
width = 694;
}
);
leftKerningGroup = A;
note = Abrevedotbelow;
rightKerningGroup = A;
unicode = 1EB6;
},
{
glyphname = Abrevegrave;
lastChange = "2015-10-27 08:20:57 +0000";
layers = (
{
layerId = "6452E246-BF19-4A01-B77D-5979BB06C1CE";
name = "Regular Italic";
paths = (
{
closed = 1;
nodes = (
"174 0 LINE",
"176 11 LINE",
"156 19 OFFCURVE",
"133 26 OFFCURVE",
"100 30 CURVE",
"415 604 LINE",
"492 30 LINE",
"463 27 OFFCURVE",
"438 22 OFFCURVE",
"411 12 CURVE",
"409 0 LINE",
"649 0 LINE",
"651 12 LINE",
"629 21 OFFCURVE",
"604 27 OFFCURVE",
"580 31 CURVE",
"482 704 LINE",
"421 704 LINE",
"49 32 LINE",
"32 30 OFFCURVE",
"-5 22 OFFCURVE",
"-30 13 CURVE",
"-32 0 LINE"
);
},
{
closed = 1;
nodes = (
"496 182 LINE",
"504 217 LINE",
"174 217 LINE",
"166 182 LINE"
);
},
{
closed = 1;
nodes = (
"556 786 OFFCURVE",
"620 825 OFFCURVE",
"648 909 CURVE",
"595 909 LINE",
"572 833 OFFCURVE",
"520 823 OFFCURVE",
"481 823 CURVE SMOOTH",
"442 823 OFFCURVE",
"396 833 OFFCURVE",
"404 909 CURVE",
"350 909 LINE",
"343 825 OFFCURVE",
"394 786 OFFCURVE",
"474 786 CURVE SMOOTH"
);
},
{
closed = 1;
nodes = (
"539 926 LINE",
"477 1005 LINE SMOOTH",
"460 1027 OFFCURVE",
"443 1038 OFFCURVE",
"427 1038 CURVE SMOOTH",
"413 1038 OFFCURVE",
"401 1028 OFFCURVE",
"398 1015 CURVE",
"396 999 OFFCURVE",
"404 979 OFFCURVE",
"431 962 CURVE SMOOTH",
"520 905 LINE"
);
}
);
width = 694;
}
);
leftKerningGroup = A;
note = Abrevegrave;
rightKerningGroup = A;
unicode = 1EB0;
},
{
glyphname = Abrevehookabove;
lastChange = "2015-10-27 08:20:56 +0000";
layers = (
{
layerId = "6452E246-BF19-4A01-B77D-5979BB06C1CE";
name = "Regular Italic";
paths = (
{
closed = 1;
nodes = (
"174 0 LINE",
"176 11 LINE",
"156 19 OFFCURVE",
"133 26 OFFCURVE",
"100 30 CURVE",
"415 604 LINE",
"492 30 LINE",
"463 27 OFFCURVE",
"438 22 OFFCURVE",
"411 12 CURVE",
"409 0 LINE",
"649 0 LINE",
"651 12 LINE",
"629 21 OFFCURVE",
"604 27 OFFCURVE",
"580 31 CURVE",
"482 704 LINE",
"421 704 LINE",
"49 32 LINE",
"32 30 OFFCURVE",
"-5 22 OFFCURVE",
"-30 13 CURVE",
"-32 0 LINE"
);
},
{
closed = 1;
nodes = (
"496 182 LINE",
"504 217 LINE",
"174 217 LINE",
"166 182 LINE"
);
},
{
closed = 1;
nodes = (
"555 786 OFFCURVE",
"619 825 OFFCURVE",
"647 909 CURVE",
"594 909 LINE",
"571 833 OFFCURVE",
"519 823 OFFCURVE",
"480 823 CURVE SMOOTH",
"441 823 OFFCURVE",
"396 833 OFFCURVE",
"403 909 CURVE",
"349 909 LINE",
"342 825 OFFCURVE",
"393 786 OFFCURVE",
"473 786 CURVE SMOOTH"
);
},
{
closed = 1;
nodes = (
"506 896 LINE",
"525 949 LINE",
"569 953 OFFCURVE",
"600 972 OFFCURVE",
"609 1012 CURVE SMOOTH",
"617 1059 OFFCURVE",
"582 1078 OFFCURVE",
"540 1078 CURVE SMOOTH",
"516 1078 OFFCURVE",
"490 1071 OFFCURVE",
"473 1064 CURVE",
"473 1037 LINE",
"492 1046 OFFCURVE",
"510 1050 OFFCURVE",
"524 1050 CURVE SMOOTH",
"557 1050 OFFCURVE",
"568 1034 OFFCURVE",
"564 1013 CURVE",
"559 987 OFFCURVE",
"538 971 OFFCURVE",
"504 971 CURVE SMOOTH",
"484 971 LINE",
"472 896 LINE"
);
}
);
width = 694;
}
);
leftKerningGroup = A;
note = Abrevehookabove;
rightKerningGroup = A;
unicode = 1EB2;
},
{
glyphname = Abrevetilde;
lastChange = "2015-11-28 10:00:36 +0000";
layers = (
{
layerId = "6452E246-BF19-4A01-B77D-5979BB06C1CE";
name = "Regular Italic";
paths = (
{
closed = 1;
nodes = (
"174 0 LINE",
"176 11 LINE",
"156 19 OFFCURVE",
"133 26 OFFCURVE",
"100 30 CURVE",
"415 604 LINE",
"492 30 LINE",
"463 27 OFFCURVE",
"438 22 OFFCURVE",
"411 12 CURVE",
"409 0 LINE",
"649 0 LINE",
"651 12 LINE",
"629 21 OFFCURVE",
"604 27 OFFCURVE",
"580 31 CURVE",
"482 704 LINE",
"421 704 LINE",
"49 32 LINE",
"32 30 OFFCURVE",
"-5 22 OFFCURVE",
"-30 13 CURVE",
"-32 0 LINE"
);
},
{
closed = 1;
nodes = (
"496 182 LINE",
"504 217 LINE",
"174 217 LINE",
"166 182 LINE"
);
},
{
closed = 1;
nodes = (
"555 786 OFFCURVE",
"619 825 OFFCURVE",
"647 909 CURVE",
"594 909 LINE",
"571 833 OFFCURVE",
"519 823 OFFCURVE",
"480 823 CURVE SMOOTH",
"441 823 OFFCURVE",
"396 833 OFFCURVE",
"403 909 CURVE",
"349 909 LINE",
"342 825 OFFCURVE",
"393 786 OFFCURVE",
"473 786 CURVE SMOOTH"
);
},
{
closed = 1;
nodes = (
"386 968 LINE",
"400 1003 OFFCURVE",
"426 1025 OFFCURVE",
"454 1025 CURVE SMOOTH",
"491 1025 OFFCURVE",
"524 969 OFFCURVE",
"570 969 CURVE SMOOTH",
"623 969 OFFCURVE",
"661 1010 OFFCURVE",
"683 1073 CURVE",
"654 1073 LINE",
"635 1030 OFFCURVE",
"608 1013 OFFCURVE",
"581 1013 CURVE SMOOTH",
"543 1013 OFFCURVE",
"519 1068 OFFCURVE",
"467 1068 CURVE SMOOTH",
"419 1068 OFFCURVE",
"378 1037 OFFCURVE",
"355 968 CURVE"
);
}
);
width = 694;
}
);
leftKerningGroup = A;
note = Abrevetilde;
rightKerningGroup = A;
unicode = 1EB4;
},
{
glyphname = Acaron;
lastChange = "2015-10-27 08:20:57 +0000";
layers = (
{
layerId = "6452E246-BF19-4A01-B77D-5979BB06C1CE";
name = "Regular Italic";
paths = (
{
closed = 1;
nodes = (
"174 0 LINE",
"176 11 LINE",
"156 19 OFFCURVE",
"133 26 OFFCURVE",
"100 30 CURVE",
"415 604 LINE",
"492 30 LINE",
"463 27 OFFCURVE",
"438 22 OFFCURVE",
"411 12 CURVE",
"409 0 LINE",
"649 0 LINE",
"651 12 LINE",
"629 21 OFFCURVE",
"604 27 OFFCURVE",
"580 31 CURVE",
"482 704 LINE",
"421 704 LINE",
"49 32 LINE",
"32 30 OFFCURVE",
"-5 22 OFFCURVE",
"-30 13 CURVE",
"-32 0 LINE"
);
},
{
closed = 1;
nodes = (
"496 182 LINE",
"504 217 LINE",
"174 217 LINE",
"166 182 LINE"
);
},
{
closed = 1;
nodes = (
"489 786 LINE",
"524 827 OFFCURVE",
"594 882 OFFCURVE",
"639 909 CURVE",
"610 941 LINE",
"567 913 OFFCURVE",
"512 868 OFFCURVE",
"479 832 CURVE",
"474 832 LINE",
"457 868 OFFCURVE",
"420 913 OFFCURVE",
"389 941 CURVE",
"348 909 LINE",
"379 882 OFFCURVE",
"427 827 OFFCURVE",
"447 786 CURVE"
);
}
);
width = 694;
}
);
leftKerningGroup = A;
note = Acaron;
rightKerningGroup = A;
unicode = 01CD;
},
{
glyphname = Acircumflex;
lastChange = "2015-10-27 08:20:58 +0000";
layers = (
{
layerId = "6452E246-BF19-4A01-B77D-5979BB06C1CE";
name = "Regular Italic";
paths = (
{
closed = 1;
nodes = (
"174 0 LINE",
"176 11 LINE",
"156 19 OFFCURVE",
"133 26 OFFCURVE",
"100 30 CURVE",
"415 604 LINE",
"492 30 LINE",
"463 27 OFFCURVE",
"438 22 OFFCURVE",
"411 12 CURVE",
"409 0 LINE",
"649 0 LINE",
"651 12 LINE",
"629 21 OFFCURVE",
"604 27 OFFCURVE",
"580 31 CURVE",
"482 704 LINE",
"421 704 LINE",
"49 32 LINE",
"32 30 OFFCURVE",
"-5 22 OFFCURVE",
"-30 13 CURVE",
"-32 0 LINE"
);
},
{
closed = 1;
nodes = (
"496 182 LINE",
"504 217 LINE",
"174 217 LINE",
"166 182 LINE"
);
},
{
closed = 1;
nodes = (
"397 808 OFFCURVE",
"454 853 OFFCURVE",
"487 889 CURVE",
"492 889 LINE",
"509 853 OFFCURVE",
"545 808 OFFCURVE",
"576 780 CURVE",
"619 812 LINE",
"586 839 OFFCURVE",
"539 894 OFFCURVE",
"518 934 CURVE",
"477 934 LINE",
"442 894 OFFCURVE",
"371 839 OFFCURVE",
"327 812 CURVE",
"355 780 LINE"
);
}
);
width = 694;
}
);
leftKerningGroup = A;
note = Acircumflex;
rightKerningGroup = A;
unicode = 00C2;
},
{
glyphname = Acircumflexacute;
lastChange = "2015-10-27 08:20:57 +0000";
layers = (
{
layerId = "6452E246-BF19-4A01-B77D-5979BB06C1CE";
name = "Regular Italic";
paths = (
{
closed = 1;
nodes = (
"174 0 LINE",
"176 11 LINE",
"156 19 OFFCURVE",
"133 26 OFFCURVE",
"100 30 CURVE",
"415 604 LINE",
"492 30 LINE",
"463 27 OFFCURVE",
"438 22 OFFCURVE",
"411 12 CURVE",
"409 0 LINE",
"649 0 LINE",
"651 12 LINE",
"629 21 OFFCURVE",
"604 27 OFFCURVE",
"580 31 CURVE",
"482 704 LINE",
"421 704 LINE",
"49 32 LINE",
"32 30 OFFCURVE",
"-5 22 OFFCURVE",
"-30 13 CURVE",
"-32 0 LINE"
);
},
{
closed = 1;
nodes = (
"496 182 LINE",
"504 217 LINE",
"174 217 LINE",
"166 182 LINE"
);
},
{
closed = 1;
nodes = (
"398 808 OFFCURVE",
"454 853 OFFCURVE",
"488 889 CURVE",
"492 889 LINE",
"510 853 OFFCURVE",
"546 808 OFFCURVE",
"577 780 CURVE",
"618 812 LINE",
"588 839 OFFCURVE",
"540 894 OFFCURVE",
"518 934 CURVE",
"478 934 LINE",
"442 894 OFFCURVE",
"372 839 OFFCURVE",
"327 812 CURVE",
"357 780 LINE"
);
},
{
closed = 1;
nodes = (
"717 957 LINE SMOOTH",
"752 974 OFFCURVE",
"768 994 OFFCURVE",
"771 1010 CURVE",
"774 1023 OFFCURVE",
"766 1033 OFFCURVE",
"752 1033 CURVE SMOOTH",
"736 1033 OFFCURVE",
"714 1023 OFFCURVE",
"688 1000 CURVE SMOOTH",
"595 921 LINE",
"606 900 LINE"
);
}
);
width = 694;
}
);
leftKerningGroup = A;
note = Acircumflexacute;
rightKerningGroup = A;
unicode = 1EA4;
},
{
glyphname = Acircumflexdotbelow;
lastChange = "2015-10-27 08:20:58 +0000";
layers = (
{
layerId = "6452E246-BF19-4A01-B77D-5979BB06C1CE";
name = "Regular Italic";
paths = (
{
closed = 1;
nodes = (
"174 0 LINE",
"176 11 LINE",
"156 19 OFFCURVE",
"133 26 OFFCURVE",
"100 30 CURVE",
"415 604 LINE",
"492 30 LINE",
"463 27 OFFCURVE",
"438 22 OFFCURVE",
"411 12 CURVE",
"409 0 LINE",
"649 0 LINE",
"651 12 LINE",
"629 21 OFFCURVE",
"604 27 OFFCURVE",
"580 31 CURVE",
"482 704 LINE",
"421 704 LINE",
"49 32 LINE",
"32 30 OFFCURVE",
"-5 22 OFFCURVE",
"-30 13 CURVE",
"-32 0 LINE"
);
},
{
closed = 1;
nodes = (
"303 -151 OFFCURVE",
"324 -132 OFFCURVE",
"330 -106 CURVE SMOOTH",
"336 -78 OFFCURVE",
"323 -59 OFFCURVE",
"297 -59 CURVE SMOOTH",
"271 -59 OFFCURVE",
"250 -78 OFFCURVE",
"244 -106 CURVE SMOOTH",
"238 -132 OFFCURVE",
"252 -151 OFFCURVE",
"277 -151 CURVE SMOOTH"
);
},
{
closed = 1;
nodes = (
"496 182 LINE",
"504 217 LINE",
"174 217 LINE",
"166 182 LINE"
);
},
{
closed = 1;
nodes = (
"397 807 OFFCURVE",
"454 852 OFFCURVE",
"487 888 CURVE",
"492 888 LINE",
"509 852 OFFCURVE",
"545 807 OFFCURVE",
"576 779 CURVE",
"619 811 LINE",
"586 838 OFFCURVE",
"539 893 OFFCURVE",
"518 933 CURVE",
"477 933 LINE",
"442 893 OFFCURVE",
"371 838 OFFCURVE",
"327 811 CURVE",
"355 779 LINE"
);
}
);
width = 694;
}
);
leftKerningGroup = A;
note = Acircumflexdotbelow;
rightKerningGroup = A;
unicode = 1EAC;
},
{
glyphname = Acircumflexgrave;
lastChange = "2015-10-27 08:20:56 +0000";
layers = (
{
layerId = "6452E246-BF19-4A01-B77D-5979BB06C1CE";
name = "Regular Italic";
paths = (
{
closed = 1;
nodes = (
"174 0 LINE",
"176 11 LINE",
"156 19 OFFCURVE",
"133 26 OFFCURVE",
"100 30 CURVE",
"415 604 LINE",
"492 30 LINE",
"463 27 OFFCURVE",
"438 22 OFFCURVE",
"411 12 CURVE",
"409 0 LINE",
"649 0 LINE",
"651 12 LINE",
"629 21 OFFCURVE",
"604 27 OFFCURVE",
"580 31 CURVE",
"482 704 LINE",
"421 704 LINE",
"49 32 LINE",
"32 30 OFFCURVE",
"-5 22 OFFCURVE",
"-30 13 CURVE",
"-32 0 LINE"
);
},
{
closed = 1;
nodes = (
"496 182 LINE",
"504 217 LINE",
"174 217 LINE",
"166 182 LINE"
);
},
{
closed = 1;
nodes = (
"403 921 LINE",
"348 992 LINE SMOOTH",
"330 1017 OFFCURVE",
"309 1033 OFFCURVE",
"292 1033 CURVE SMOOTH",
"277 1033 OFFCURVE",
"266 1023 OFFCURVE",
"263 1010 CURVE SMOOTH",
"259 992 OFFCURVE",
"276 970 OFFCURVE",
"304 951 CURVE SMOOTH",
"384 900 LINE"
);
},
{
closed = 1;
nodes = (
"398 808 OFFCURVE",
"454 853 OFFCURVE",
"488 889 CURVE",
"492 889 LINE",
"510 853 OFFCURVE",
"546 808 OFFCURVE",
"577 780 CURVE",
"618 812 LINE",
"588 839 OFFCURVE",
"540 894 OFFCURVE",
"518 934 CURVE",
"478 934 LINE",
"442 894 OFFCURVE",
"372 839 OFFCURVE",
"327 812 CURVE",
"357 780 LINE"
);
}
);
width = 694;
}
);
leftKerningGroup = A;
note = Acircumflexgrave;
rightKerningGroup = A;
unicode = 1EA6;
},
{
glyphname = Acircumflexhookabove;
lastChange = "2015-10-27 08:20:57 +0000";
layers = (
{
layerId = "6452E246-BF19-4A01-B77D-5979BB06C1CE";
name = "Regular Italic";
paths = (
{
closed = 1;
nodes = (
"174 0 LINE",
"176 11 LINE",
"156 19 OFFCURVE",
"133 26 OFFCURVE",
"100 30 CURVE",
"415 604 LINE",
"492 30 LINE",
"463 27 OFFCURVE",
"438 22 OFFCURVE",
"411 12 CURVE",
"409 0 LINE",
"649 0 LINE",
"651 12 LINE",
"629 21 OFFCURVE",
"604 27 OFFCURVE",
"580 31 CURVE",
"482 704 LINE",
"421 704 LINE",
"49 32 LINE",
"32 30 OFFCURVE",
"-5 22 OFFCURVE",
"-30 13 CURVE",
"-32 0 LINE"
);
},
{
closed = 1;
nodes = (
"496 182 LINE",
"504 217 LINE",
"174 217 LINE",
"166 182 LINE"
);
},
{
closed = 1;
nodes = (
"398 808 OFFCURVE",
"454 853 OFFCURVE",
"488 889 CURVE",
"492 889 LINE",
"510 853 OFFCURVE",
"546 808 OFFCURVE",
"577 780 CURVE",
"618 812 LINE",
"588 839 OFFCURVE",
"540 894 OFFCURVE",
"518 934 CURVE",
"478 934 LINE",
"442 894 OFFCURVE",
"372 839 OFFCURVE",
"327 812 CURVE",
"357 780 LINE"
);
},
{
closed = 1;
nodes = (
"621 891 LINE",
"640 944 LINE",
"684 948 OFFCURVE",
"715 967 OFFCURVE",
"724 1007 CURVE SMOOTH",
"733 1054 OFFCURVE",
"697 1073 OFFCURVE",
"655 1073 CURVE SMOOTH",
"631 1073 OFFCURVE",
"606 1066 OFFCURVE",
"589 1059 CURVE",
"589 1032 LINE",
"607 1041 OFFCURVE",
"625 1045 OFFCURVE",
"639 1045 CURVE SMOOTH",
"672 1045 OFFCURVE",
"684 1029 OFFCURVE",
"680 1008 CURVE",
"674 982 OFFCURVE",
"653 966 OFFCURVE",
"619 966 CURVE SMOOTH",
"600 966 LINE",
"588 891 LINE"
);
}
);
width = 694;
}
);
leftKerningGroup = A;
note = Acircumflexhookabove;
rightKerningGroup = A;
unicode = 1EA8;
},
{
glyphname = Acircumflextilde;
lastChange = "2015-10-27 08:20:57 +0000";
layers = (
{
layerId = "6452E246-BF19-4A01-B77D-5979BB06C1CE";
name = "Regular Italic";
paths = (
{
closed = 1;
nodes = (
"174 0 LINE",
"176 11 LINE",
"156 19 OFFCURVE",
"133 26 OFFCURVE",
"100 30 CURVE",
"415 604 LINE",
"492 30 LINE",
"463 27 OFFCURVE",
"438 22 OFFCURVE",
"411 12 CURVE",
"409 0 LINE",
"649 0 LINE",
"651 12 LINE",
"629 21 OFFCURVE",
"604 27 OFFCURVE",
"580 31 CURVE",
"482 704 LINE",
"421 704 LINE",
"49 32 LINE",
"32 30 OFFCURVE",
"-5 22 OFFCURVE",
"-30 13 CURVE",
"-32 0 LINE"
);
},
{
closed = 1;
nodes = (
"496 182 LINE",
"504 217 LINE",
"174 217 LINE",
"166 182 LINE"
);
},
{
closed = 1;
nodes = (
"398 808 OFFCURVE",
"454 853 OFFCURVE",
"488 889 CURVE",
"492 889 LINE",
"510 853 OFFCURVE",
"546 808 OFFCURVE",
"577 780 CURVE",
"618 812 LINE",
"588 839 OFFCURVE",
"540 894 OFFCURVE",
"518 934 CURVE",
"478 934 LINE",
"442 894 OFFCURVE",
"372 839 OFFCURVE",
"327 812 CURVE",
"357 780 LINE"
);
},
{
closed = 1;
nodes = (
"379 963 LINE",
"395 998 OFFCURVE",
"420 1020 OFFCURVE",
"448 1020 CURVE SMOOTH",
"485 1020 OFFCURVE",
"525 964 OFFCURVE",
"570 964 CURVE SMOOTH",
"624 964 OFFCURVE",
"660 1005 OFFCURVE",
"682 1068 CURVE",
"653 1068 LINE",
"634 1025 OFFCURVE",
"608 1008 OFFCURVE",
"582 1008 CURVE SMOOTH",
"544 1008 OFFCURVE",
"513 1063 OFFCURVE",
"460 1063 CURVE SMOOTH",
"412 1063 OFFCURVE",
"372 1032 OFFCURVE",
"349 963 CURVE"
);
}
);
width = 694;
}
);
leftKerningGroup = A;
note = Acircumflextilde;
rightKerningGroup = A;
unicode = 1EAA;
},
{
glyphname = Adieresis;
lastChange = "2015-10-27 08:20:56 +0000";
layers = (
{
layerId = "6452E246-BF19-4A01-B77D-5979BB06C1CE";
name = "Regular Italic";
paths = (
{
closed = 1;
nodes = (
"174 0 LINE",
"176 11 LINE",
"156 19 OFFCURVE",
"133 26 OFFCURVE",
"100 30 CURVE",
"415 604 LINE",
"492 30 LINE",
"463 27 OFFCURVE",
"438 22 OFFCURVE",
"411 12 CURVE",
"409 0 LINE",
"649 0 LINE",
"651 12 LINE",
"629 21 OFFCURVE",
"604 27 OFFCURVE",
"580 31 CURVE",
"482 704 LINE",
"421 704 LINE",
"49 32 LINE",
"32 30 OFFCURVE",
"-5 22 OFFCURVE",
"-30 13 CURVE",
"-32 0 LINE"
);
},
{
closed = 1;
nodes = (
"496 182 LINE",
"504 217 LINE",
"174 217 LINE",
"166 182 LINE"
);
},
{
closed = 1;
nodes = (
"378 785 OFFCURVE",
"399 804 OFFCURVE",
"405 830 CURVE SMOOTH",
"411 858 OFFCURVE",
"397 877 OFFCURVE",
"372 877 CURVE SMOOTH",
"347 877 OFFCURVE",
"326 858 OFFCURVE",
"321 830 CURVE SMOOTH",
"315 804 OFFCURVE",
"328 785 OFFCURVE",
"352 785 CURVE SMOOTH"
);
},
{
closed = 1;
nodes = (
"589 785 OFFCURVE",
"611 804 OFFCURVE",
"616 830 CURVE SMOOTH",
"622 858 OFFCURVE",
"609 877 OFFCURVE",
"583 877 CURVE SMOOTH",
"557 877 OFFCURVE",
"537 858 OFFCURVE",
"531 830 CURVE SMOOTH",
"525 804 OFFCURVE",
"538 785 OFFCURVE",
"564 785 CURVE SMOOTH"
);
}
);
width = 694;
}
);
leftKerningGroup = A;
note = Adieresis;
rightKerningGroup = A;
unicode = 00C4;
},
{
glyphname = Adotbelow;
lastChange = "2015-10-27 08:20:57 +0000";
layers = (
{
layerId = "6452E246-BF19-4A01-B77D-5979BB06C1CE";
name = "Regular Italic";
paths = (
{
closed = 1;
nodes = (
"174 0 LINE",
"176 11 LINE",
"156 19 OFFCURVE",
"133 26 OFFCURVE",
"100 30 CURVE",
"415 604 LINE",
"492 30 LINE",
"463 27 OFFCURVE",
"438 22 OFFCURVE",
"411 12 CURVE",
"409 0 LINE",
"649 0 LINE",
"651 12 LINE",
"629 21 OFFCURVE",
"604 27 OFFCURVE",
"580 31 CURVE",
"482 704 LINE",
"421 704 LINE",
"49 32 LINE",
"32 30 OFFCURVE",
"-5 22 OFFCURVE",
"-30 13 CURVE",
"-32 0 LINE"
);
},
{
closed = 1;
nodes = (
"303 -151 OFFCURVE",
"324 -132 OFFCURVE",
"330 -106 CURVE SMOOTH",
"336 -78 OFFCURVE",
"323 -59 OFFCURVE",
"297 -59 CURVE SMOOTH",
"271 -59 OFFCURVE",
"250 -78 OFFCURVE",
"244 -106 CURVE SMOOTH",
"238 -132 OFFCURVE",
"252 -151 OFFCURVE",
"277 -151 CURVE SMOOTH"
);
},
{
closed = 1;
nodes = (
"496 182 LINE",
"504 217 LINE",
"174 217 LINE",
"166 182 LINE"
);
}
);
width = 694;
}
);
leftKerningGroup = A;
note = Adotbelow;
rightKerningGroup = A;
unicode = 1EA0;
},
{
glyphname = Agrave;
lastChange = "2015-10-27 08:20:56 +0000";
layers = (
{
layerId = "6452E246-BF19-4A01-B77D-5979BB06C1CE";
name = "Regular Italic";
paths = (
{
closed = 1;
nodes = (
"174 0 LINE",
"176 11 LINE",
"156 19 OFFCURVE",
"133 26 OFFCURVE",
"100 30 CURVE",
"415 604 LINE",
"492 30 LINE",
"463 27 OFFCURVE",
"438 22 OFFCURVE",
"411 12 CURVE",
"409 0 LINE",
"649 0 LINE",
"651 12 LINE",
"629 21 OFFCURVE",
"604 27 OFFCURVE",
"580 31 CURVE",
"482 704 LINE",
"421 704 LINE",
"49 32 LINE",
"32 30 OFFCURVE",
"-5 22 OFFCURVE",
"-30 13 CURVE",
"-32 0 LINE"
);
},
{
closed = 1;
nodes = (
"496 182 LINE",
"504 217 LINE",
"174 217 LINE",
"166 182 LINE"
);
},
{
closed = 1;
nodes = (
"534 809 LINE",
"444 916 LINE",
"438 924 OFFCURVE",
"426 938 OFFCURVE",
"406 938 CURVE SMOOTH",
"386 938 OFFCURVE",
"372 924 OFFCURVE",
"370 911 CURVE",
"367 895 OFFCURVE",
"375 881 OFFCURVE",
"394 868 CURVE SMOOTH",
"514 786 LINE"
);
}
);
width = 694;
}
);
leftKerningGroup = A;
note = Agrave;
rightKerningGroup = A;
unicode = 00C0;
},
{
glyphname = Ahookabove;
lastChange = "2015-10-27 08:20:57 +0000";
layers = (
{
layerId = "6452E246-BF19-4A01-B77D-5979BB06C1CE";
name = "Regular Italic";
paths = (
{
closed = 1;
nodes = (
"174 0 LINE",
"176 11 LINE",
"156 19 OFFCURVE",
"133 26 OFFCURVE",
"100 30 CURVE",
"415 604 LINE",
"492 30 LINE",
"463 27 OFFCURVE",
"438 22 OFFCURVE",
"411 12 CURVE",
"409 0 LINE",
"649 0 LINE",
"651 12 LINE",
"629 21 OFFCURVE",
"604 27 OFFCURVE",
"580 31 CURVE",
"482 704 LINE",
"421 704 LINE",
"49 32 LINE",
"32 30 OFFCURVE",
"-5 22 OFFCURVE",
"-30 13 CURVE",
"-32 0 LINE"
);
},
{
closed = 1;
nodes = (
"496 182 LINE",
"504 217 LINE",
"174 217 LINE",
"166 182 LINE"
);
},
{
closed = 1;
nodes = (
"492 779 LINE",
"515 843 LINE",
"565 848 OFFCURVE",
"601 872 OFFCURVE",
"611 919 CURVE SMOOTH",
"621 975 OFFCURVE",
"581 998 OFFCURVE",
"533 998 CURVE SMOOTH",
"504 998 OFFCURVE",
"474 990 OFFCURVE",
"455 981 CURVE",
"456 951 LINE",
"477 962 OFFCURVE",
"498 967 OFFCURVE",
"515 967 CURVE SMOOTH",
"552 967 OFFCURVE",
"566 946 OFFCURVE",
"562 921 CURVE SMOOTH",
"556 890 OFFCURVE",
"529 869 OFFCURVE",
"491 869 CURVE SMOOTH",
"468 869 LINE",
"454 779 LINE"
);
}
);
width = 694;
}
);
leftKerningGroup = A;
note = Ahookabove;
rightKerningGroup = A;
unicode = 1EA2;
},
{
glyphname = Amacron;
lastChange = "2015-10-27 08:20:57 +0000";
layers = (
{
layerId = "6452E246-BF19-4A01-B77D-5979BB06C1CE";
name = "Regular Italic";
paths = (
{
closed = 1;
nodes = (
"174 0 LINE",
"176 11 LINE",
"156 19 OFFCURVE",
"133 26 OFFCURVE",
"100 30 CURVE",
"415 604 LINE",
"492 30 LINE",
"463 27 OFFCURVE",
"438 22 OFFCURVE",
"411 12 CURVE",
"409 0 LINE",
"649 0 LINE",
"651 12 LINE",
"629 21 OFFCURVE",
"604 27 OFFCURVE",
"580 31 CURVE",
"482 704 LINE",
"421 704 LINE",
"49 32 LINE",
"32 30 OFFCURVE",
"-5 22 OFFCURVE",
"-30 13 CURVE",
"-32 0 LINE"
);
},
{
closed = 1;
nodes = (
"496 182 LINE",
"504 217 LINE",
"174 217 LINE",
"166 182 LINE"
);
},
{
closed = 1;
nodes = (
"628 784 LINE",
"635 819 LINE",
"316 819 LINE",
"309 784 LINE"
);
}
);
width = 694;
}
);
leftKerningGroup = A;
note = Amacron;
rightKerningGroup = A;
unicode = 0100;
},
{
glyphname = Aogonek;
lastChange = "2015-10-27 08:20:58 +0000";
layers = (
{
layerId = "6452E246-BF19-4A01-B77D-5979BB06C1CE";
name = "Regular Italic";
paths = (
{
closed = 1;
nodes = (
"174 0 LINE",
"176 11 LINE",
"156 19 OFFCURVE",
"133 26 OFFCURVE",
"100 30 CURVE",
"415 604 LINE",
"492 30 LINE",
"463 27 OFFCURVE",
"438 22 OFFCURVE",
"411 12 CURVE",
"409 0 LINE",
"649 0 LINE",
"651 12 LINE",
"629 21 OFFCURVE",
"604 27 OFFCURVE",
"580 31 CURVE",
"482 704 LINE",
"421 704 LINE",
"49 32 LINE",
"32 30 OFFCURVE",
"-5 22 OFFCURVE",
"-30 13 CURVE",
"-32 0 LINE"
);
},
{
closed = 1;
nodes = (
"609 -187 OFFCURVE",
"636 -181 OFFCURVE",
"660 -170 CURVE",
"669 -129 LINE",
"649 -139 OFFCURVE",
"630 -143 OFFCURVE",
"614 -143 CURVE SMOOTH",
"582 -143 OFFCURVE",
"560 -126 OFFCURVE",
"566 -92 CURVE SMOOTH",
"574 -56 OFFCURVE",
"609 -20 OFFCURVE",
"645 0 CURVE",
"597 0 LINE",
"543 -20 OFFCURVE",
"505 -63 OFFCURVE",
"496 -107 CURVE SMOOTH",
"488 -149 OFFCURVE",
"514 -187 OFFCURVE",
"578 -187 CURVE SMOOTH"
);
},
{
closed = 1;
nodes = (
"496 182 LINE",
"504 217 LINE",
"174 217 LINE",
"166 182 LINE"
);
}
);
width = 694;
}
);
leftKerningGroup = A;
note = Aogonek;
rightKerningGroup = A;
unicode = 0104;
},
{
glyphname = Aring;
lastChange = "2015-10-27 08:20:56 +0000";
layers = (
{
layerId = "6452E246-BF19-4A01-B77D-5979BB06C1CE";
name = "Regular Italic";
paths = (
{
closed = 1;
nodes = (
"174 0 LINE",
"176 11 LINE",
"156 19 OFFCURVE",
"133 26 OFFCURVE",
"100 30 CURVE",
"415 604 LINE",
"492 30 LINE",
"463 27 OFFCURVE",
"438 22 OFFCURVE",
"411 12 CURVE",
"409 0 LINE",
"649 0 LINE",
"651 12 LINE",
"629 21 OFFCURVE",
"604 27 OFFCURVE",
"580 31 CURVE",
"482 704 LINE",
"421 704 LINE",
"49 32 LINE",
"32 30 OFFCURVE",
"-5 22 OFFCURVE",
"-30 13 CURVE",
"-32 0 LINE"
);
},
{
closed = 1;
nodes = (
"496 182 LINE",
"504 217 LINE",
"174 217 LINE",
"166 182 LINE"
);
},
{
closed = 1;
nodes = (
"510 739 OFFCURVE",
"553 774 OFFCURVE",
"564 826 CURVE SMOOTH",
"574 879 OFFCURVE",
"545 915 OFFCURVE",
"493 915 CURVE SMOOTH",
"441 915 OFFCURVE",
"396 879 OFFCURVE",
"386 826 CURVE SMOOTH",
"375 774 OFFCURVE",
"405 739 OFFCURVE",
"458 739 CURVE SMOOTH"
);
},
{
closed = 1;
nodes = (
"432 771 OFFCURVE",
"413 792 OFFCURVE",
"420 826 CURVE SMOOTH",
"426 860 OFFCURVE",
"455 882 OFFCURVE",
"487 882 CURVE SMOOTH",
"518 882 OFFCURVE",
"536 860 OFFCURVE",
"529 826 CURVE SMOOTH",
"522 792 OFFCURVE",
"495 771 OFFCURVE",
"464 771 CURVE SMOOTH"
);
}
);
width = 694;
}
);
leftKerningGroup = A;
note = Aring;
rightKerningGroup = A;
unicode = 00C5;
},
{
glyphname = Aringacute;
lastChange = "2015-10-27 08:20:57 +0000";
layers = (
{
layerId = "6452E246-BF19-4A01-B77D-5979BB06C1CE";
name = "Regular Italic";
paths = (
{
closed = 1;
nodes = (
"174 0 LINE",
"176 11 LINE",
"156 19 OFFCURVE",
"133 26 OFFCURVE",
"100 30 CURVE",
"415 604 LINE",
"492 30 LINE",
"463 27 OFFCURVE",
"438 22 OFFCURVE",
"411 12 CURVE",
"409 0 LINE",
"649 0 LINE",
"651 12 LINE",
"629 21 OFFCURVE",
"604 27 OFFCURVE",
"580 31 CURVE",
"482 704 LINE",
"421 704 LINE",
"49 32 LINE",
"32 30 OFFCURVE",
"-5 22 OFFCURVE",
"-30 13 CURVE",
"-32 0 LINE"
);
},
{
closed = 1;
nodes = (
"496 182 LINE",
"504 217 LINE",
"174 217 LINE",
"166 182 LINE"
);
},
{
closed = 1;
nodes = (
"510 737 OFFCURVE",
"553 772 OFFCURVE",
"564 824 CURVE SMOOTH",
"574 877 OFFCURVE",
"545 913 OFFCURVE",
"493 913 CURVE SMOOTH",
"441 913 OFFCURVE",
"396 877 OFFCURVE",
"386 824 CURVE SMOOTH",
"375 772 OFFCURVE",
"405 737 OFFCURVE",
"458 737 CURVE SMOOTH"
);
},
{
closed = 1;
nodes = (
"432 769 OFFCURVE",
"413 790 OFFCURVE",
"420 824 CURVE SMOOTH",
"426 858 OFFCURVE",
"455 880 OFFCURVE",
"487 880 CURVE SMOOTH",
"518 880 OFFCURVE",
"536 858 OFFCURVE",
"529 824 CURVE SMOOTH",
"522 790 OFFCURVE",
"495 769 OFFCURVE",
"464 769 CURVE SMOOTH"
);
},
{
closed = 1;
nodes = (
"612 1021 LINE SMOOTH",
"635 1034 OFFCURVE",
"648 1048 OFFCURVE",
"651 1064 CURVE",
"654 1077 OFFCURVE",
"647 1091 OFFCURVE",
"627 1091 CURVE SMOOTH",
"606 1091 OFFCURVE",
"588 1075 OFFCURVE",
"579 1068 CURVE SMOOTH",
"448 962 LINE",
"459 939 LINE"
);
}
);
width = 694;
}
);
leftKerningGroup = A;
note = Aringacute;
rightKerningGroup = A;
unicode = 01FA;
},
{
glyphname = Atilde;
lastChange = "2015-10-27 08:20:56 +0000";
layers = (
{
layerId = "6452E246-BF19-4A01-B77D-5979BB06C1CE";
name = "Regular Italic";
paths = (
{
closed = 1;
nodes = (
"174 0 LINE",
"176 11 LINE",
"156 19 OFFCURVE",
"133 26 OFFCURVE",
"100 30 CURVE",
"415 604 LINE",
"492 30 LINE",
"463 27 OFFCURVE",
"438 22 OFFCURVE",
"411 12 CURVE",
"409 0 LINE",
"649 0 LINE",
"651 12 LINE",
"629 21 OFFCURVE",
"604 27 OFFCURVE",
"580 31 CURVE",
"482 704 LINE",
"421 704 LINE",
"49 32 LINE",
"32 30 OFFCURVE",
"-5 22 OFFCURVE",
"-30 13 CURVE",
"-32 0 LINE"
);
},
{
closed = 1;
nodes = (
"496 182 LINE",
"504 217 LINE",
"174 217 LINE",
"166 182 LINE"
);
},
{
closed = 1;
nodes = (
"335 786 LINE",
"349 821 OFFCURVE",
"377 843 OFFCURVE",
"407 843 CURVE SMOOTH",
"445 843 OFFCURVE",
"488 787 OFFCURVE",
"536 787 CURVE SMOOTH",
"592 787 OFFCURVE",
"631 828 OFFCURVE",
"651 891 CURVE",
"621 891 LINE",
"603 848 OFFCURVE",
"574 831 OFFCURVE",
"546 831 CURVE SMOOTH",
"507 831 OFFCURVE",
"473 886 OFFCURVE",
"418 886 CURVE SMOOTH",
"368 886 OFFCURVE",
"326 855 OFFCURVE",
"303 786 CURVE"
);
}
);
width = 694;
}
);
leftKerningGroup = A;
note = Atilde;
rightKerningGroup = A;
unicode = 00C3;
},
{
glyphname = AE;
lastChange = "2015-10-27 08:20:56 +0000";
layers = (
{
layerId = "6452E246-BF19-4A01-B77D-5979BB06C1CE";
name = "Regular Italic";
paths = (
{
closed = 1;
nodes = (
"178 0 LINE",
"180 11 LINE",
"160 19 OFFCURVE",
"134 26 OFFCURVE",
"101 30 CURVE",
"218 182 LINE",
"486 182 LINE",
"455 30 LINE",
"420 26 OFFCURVE",
"395 19 OFFCURVE",
"372 12 CURVE",
"370 0 LINE",
"859 0 LINE",
"902 144 LINE",
"881 144 LINE",
"866 125 OFFCURVE",
"831 65 OFFCURVE",
"823 35 CURVE",
"544 35 LINE",
"607 341 LINE",
"807 341 LINE",
"805 324 OFFCURVE",
"804 284 OFFCURVE",
"807 258 CURVE",
"824 258 LINE",
"865 460 LINE",
"849 460 LINE",
"835 436 OFFCURVE",
"820 395 OFFCURVE",
"815 377 CURVE",
"614 377 LINE",
"672 663 LINE",
"948 663 LINE",
"945 637 OFFCURVE",
"946 574 OFFCURVE",
"951 554 CURVE",
"972 554 LINE",
"1002 700 LINE",
"508 700 LINE",
"506 688 LINE",
"518 681 OFFCURVE",
"535 678 OFFCURVE",
"550 674 CURVE",
"45 32 LINE",
"19 27 OFFCURVE",
"-4 21 OFFCURVE",
"-30 12 CURVE",
"-32 0 LINE"
);
},
{
closed = 1;
nodes = (
"577 650 LINE",
"582 650 LINE",
"493 217 LINE",
"247 217 LINE"
);
}
);
width = 958;
}
);
leftKerningGroup = A;
note = AE;
unicode = 00C6;
},
{
glyphname = AEacute;
lastChange = "2015-10-27 08:20:56 +0000";
layers = (
{
layerId = "6452E246-BF19-4A01-B77D-5979BB06C1CE";
name = "Regular Italic";
paths = (
{
closed = 1;
nodes = (
"178 0 LINE",
"180 11 LINE",
"160 19 OFFCURVE",
"134 26 OFFCURVE",
"101 30 CURVE",
"218 182 LINE",
"486 182 LINE",
"455 30 LINE",
"420 26 OFFCURVE",
"395 19 OFFCURVE",
"372 12 CURVE",
"370 0 LINE",
"859 0 LINE",
"902 144 LINE",
"881 144 LINE",
"866 125 OFFCURVE",
"831 65 OFFCURVE",
"823 35 CURVE",
"544 35 LINE",
"607 341 LINE",
"807 341 LINE",
"805 324 OFFCURVE",
"804 284 OFFCURVE",
"807 258 CURVE",
"824 258 LINE",
"865 460 LINE",
"849 460 LINE",
"835 436 OFFCURVE",
"820 395 OFFCURVE",
"815 377 CURVE",
"614 377 LINE",
"672 663 LINE",
"948 663 LINE",
"945 637 OFFCURVE",
"946 574 OFFCURVE",
"951 554 CURVE",
"972 554 LINE",
"1002 700 LINE",
"508 700 LINE",
"506 688 LINE",
"518 681 OFFCURVE",
"535 678 OFFCURVE",
"550 674 CURVE",
"45 32 LINE",
"19 27 OFFCURVE",
"-4 21 OFFCURVE",
"-30 12 CURVE",
"-32 0 LINE"
);
},
{
closed = 1;
nodes = (
"577 650 LINE",
"582 650 LINE",
"493 217 LINE",
"247 217 LINE"
);
},
{
closed = 1;
nodes = (
"883 868 LINE SMOOTH",
"906 881 OFFCURVE",
"920 895 OFFCURVE",
"923 911 CURVE",
"925 924 OFFCURVE",
"919 938 OFFCURVE",
"899 938 CURVE SMOOTH",
"877 938 OFFCURVE",
"859 922 OFFCURVE",
"851 915 CURVE SMOOTH",
"720 809 LINE",
"731 786 LINE"
);
}
);
width = 958;
}
);
leftKerningGroup = A;
note = AEacute;
unicode = 01FC;
},
{
glyphname = B;
lastChange = "2015-10-27 08:20:58 +0000";
layers = (
{
layerId = "6452E246-BF19-4A01-B77D-5979BB06C1CE";
name = "Regular Italic";
paths = (
{
closed = 1;
nodes = (
"301 0 LINE SMOOTH",
"455 0 OFFCURVE",
"527 67 OFFCURVE",
"552 191 CURVE SMOOTH",
"566 262 OFFCURVE",
"550 348 OFFCURVE",
"436 368 CURVE",
"437 373 LINE",
"530 392 OFFCURVE",
"581 467 OFFCURVE",
"594 535 CURVE SMOOTH",
"617 646 OFFCURVE",
"569 700 OFFCURVE",
"414 700 CURVE SMOOTH",
"138 700 LINE",
"136 687 LINE",
"160 678 OFFCURVE",
"186 673 OFFCURVE",
"210 669 CURVE",
"80 31 LINE",
"49 28 OFFCURVE",
"30 23 OFFCURVE",
"-2 12 CURVE",
"-4 0 LINE"
);
},
{
closed = 1;
nodes = (
"234 350 LINE",
"350 350 LINE SMOOTH",
"444 350 OFFCURVE",
"487 295 OFFCURVE",
"467 194 CURVE SMOOTH",
"445 90 OFFCURVE",
"393 35 OFFCURVE",
"299 35 CURVE SMOOTH",
"170 35 LINE"
);
},
{
closed = 1;
nodes = (
"298 663 LINE",
"396 663 LINE SMOOTH",
"492 663 OFFCURVE",
"524 622 OFFCURVE",
"506 532 CURVE SMOOTH",
"488 444 OFFCURVE",
"430 386 OFFCURVE",
"337 386 CURVE SMOOTH",
"242 386 LINE"
);
}
);
width = 581;
}
);
note = B;
unicode = 0042;
},
{
glyphname = C;
lastChange = "2015-10-27 08:20:56 +0000";
layers = (
{
layerId = "6452E246-BF19-4A01-B77D-5979BB06C1CE";
name = "Regular Italic";
paths = (
{
closed = 1;
nodes = (
"392 -10 OFFCURVE",
"468 13 OFFCURVE",
"521 54 CURVE",
"515 81 LINE",
"452 44 OFFCURVE",
"379 27 OFFCURVE",
"335 27 CURVE SMOOTH",
"166 27 OFFCURVE",
"130 163 OFFCURVE",
"168 350 CURVE SMOOTH",
"206 537 OFFCURVE",
"308 673 OFFCURVE",
"474 673 CURVE SMOOTH",
"526 673 OFFCURVE",
"567 655 OFFCURVE",
"591 631 CURVE",
"587 597 OFFCURVE",
"583 545 OFFCURVE",
"587 519 CURVE",
"610 519 LINE",
"643 641 LINE",
"608 683 OFFCURVE",
"549 710 OFFCURVE",
"458 710 CURVE SMOOTH",
"259 710 OFFCURVE",
"123 572 OFFCURVE",
"78 350 CURVE SMOOTH",
"32 127 OFFCURVE",
"107 -10 OFFCURVE",
"312 -10 CURVE SMOOTH"
);
}
);
width = 594;
}
);
leftKerningGroup = C;
note = C;
unicode = 0043;
},
{
glyphname = Cacute;
lastChange = "2015-10-27 08:20:56 +0000";
layers = (
{
layerId = "6452E246-BF19-4A01-B77D-5979BB06C1CE";
name = "Regular Italic";
paths = (
{
closed = 1;
nodes = (
"392 -10 OFFCURVE",
"468 13 OFFCURVE",
"521 54 CURVE",
"515 81 LINE",
"452 44 OFFCURVE",
"379 27 OFFCURVE",
"335 27 CURVE SMOOTH",
"166 27 OFFCURVE",
"130 163 OFFCURVE",
"168 350 CURVE SMOOTH",
"206 537 OFFCURVE",
"308 673 OFFCURVE",
"474 673 CURVE SMOOTH",
"526 673 OFFCURVE",
"567 655 OFFCURVE",
"591 631 CURVE",
"587 597 OFFCURVE",
"583 545 OFFCURVE",
"587 519 CURVE",
"610 519 LINE",
"643 641 LINE",
"608 683 OFFCURVE",
"549 710 OFFCURVE",
"458 710 CURVE SMOOTH",
"259 710 OFFCURVE",
"123 572 OFFCURVE",
"78 350 CURVE SMOOTH",
"32 127 OFFCURVE",
"107 -10 OFFCURVE",
"312 -10 CURVE SMOOTH"
);
},
{
closed = 1;
nodes = (
"574 868 LINE SMOOTH",
"597 881 OFFCURVE",
"611 895 OFFCURVE",
"613 911 CURVE",
"616 924 OFFCURVE",
"610 938 OFFCURVE",
"589 938 CURVE SMOOTH",
"568 938 OFFCURVE",
"550 922 OFFCURVE",
"541 915 CURVE SMOOTH",
"411 809 LINE",
"421 786 LINE"
);
}
);
width = 594;
}
);
leftKerningGroup = C;
note = Cacute;
unicode = 0106;
},
{
glyphname = Ccaron;
lastChange = "2015-10-27 08:20:58 +0000";
layers = (
{
layerId = "6452E246-BF19-4A01-B77D-5979BB06C1CE";
name = "Regular Italic";
paths = (
{
closed = 1;
nodes = (
"392 -10 OFFCURVE",
"468 13 OFFCURVE",
"521 54 CURVE",
"515 81 LINE",
"452 44 OFFCURVE",
"379 27 OFFCURVE",
"335 27 CURVE SMOOTH",
"166 27 OFFCURVE",
"130 163 OFFCURVE",
"168 350 CURVE SMOOTH",
"206 537 OFFCURVE",
"308 673 OFFCURVE",
"474 673 CURVE SMOOTH",
"526 673 OFFCURVE",
"567 655 OFFCURVE",
"591 631 CURVE",
"587 597 OFFCURVE",
"583 545 OFFCURVE",
"587 519 CURVE",
"610 519 LINE",
"643 641 LINE",
"608 683 OFFCURVE",
"549 710 OFFCURVE",
"458 710 CURVE SMOOTH",
"259 710 OFFCURVE",
"123 572 OFFCURVE",
"78 350 CURVE SMOOTH",
"32 127 OFFCURVE",
"107 -10 OFFCURVE",
"312 -10 CURVE SMOOTH"
);
},
{
closed = 1;
nodes = (
"510 786 LINE",
"545 827 OFFCURVE",
"615 882 OFFCURVE",
"660 909 CURVE",
"631 941 LINE",
"588 913 OFFCURVE",
"533 868 OFFCURVE",
"500 832 CURVE",
"495 832 LINE",
"478 868 OFFCURVE",
"441 913 OFFCURVE",
"410 941 CURVE",
"369 909 LINE",
"400 882 OFFCURVE",
"448 827 OFFCURVE",
"468 786 CURVE"
);
}
);
width = 594;
}
);
leftKerningGroup = C;
note = Ccaron;
unicode = 010C;
},
{
glyphname = Ccedilla;
lastChange = "2015-10-27 08:20:58 +0000";
layers = (
{
layerId = "6452E246-BF19-4A01-B77D-5979BB06C1CE";
name = "Regular Italic";
paths = (
{
closed = 1;
nodes = (
"392 -10 OFFCURVE",
"468 13 OFFCURVE",
"521 54 CURVE",
"515 81 LINE",
"452 44 OFFCURVE",
"379 27 OFFCURVE",
"335 27 CURVE SMOOTH",
"166 27 OFFCURVE",
"130 163 OFFCURVE",
"168 350 CURVE SMOOTH",
"206 537 OFFCURVE",
"308 673 OFFCURVE",
"474 673 CURVE SMOOTH",
"526 673 OFFCURVE",
"567 655 OFFCURVE",
"591 631 CURVE",
"587 597 OFFCURVE",
"583 545 OFFCURVE",
"587 519 CURVE",
"610 519 LINE",
"643 641 LINE",
"608 683 OFFCURVE",
"549 710 OFFCURVE",
"458 710 CURVE SMOOTH",
"259 710 OFFCURVE",
"123 572 OFFCURVE",
"78 350 CURVE SMOOTH",
"32 127 OFFCURVE",
"107 -10 OFFCURVE",
"312 -10 CURVE SMOOTH"
);
},
{
closed = 1;
nodes = (
"300 -222 OFFCURVE",
"356 -194 OFFCURVE",
"368 -135 CURVE SMOOTH",
"377 -89 OFFCURVE",
"344 -68 OFFCURVE",
"281 -68 CURVE",
"330 9 LINE",
"288 9 LINE",
"232 -72 LINE",
"248 -100 LINE",
"254 -99 OFFCURVE",
"263 -98 OFFCURVE",
"272 -98 CURVE SMOOTH",
"297 -98 OFFCURVE",
"325 -107 OFFCURVE",
"320 -135 CURVE SMOOTH",
"313 -172 OFFCURVE",
"279 -187 OFFCURVE",
"238 -187 CURVE SMOOTH",
"218 -187 OFFCURVE",
"197 -183 OFFCURVE",
"180 -175 CURVE",
"159 -204 LINE",
"180 -216 OFFCURVE",
"209 -222 OFFCURVE",
"236 -222 CURVE SMOOTH"
);
}
);
width = 594;
}
);
leftKerningGroup = C;
note = Ccedilla;
unicode = 00C7;
},
{
glyphname = Ccircumflex;
lastChange = "2015-10-27 08:20:55 +0000";
layers = (
{
layerId = "6452E246-BF19-4A01-B77D-5979BB06C1CE";
name = "Regular Italic";
paths = (
{
closed = 1;
nodes = (
"392 -10 OFFCURVE",
"468 13 OFFCURVE",
"521 54 CURVE",
"515 81 LINE",
"452 44 OFFCURVE",
"379 27 OFFCURVE",
"335 27 CURVE SMOOTH",
"166 27 OFFCURVE",
"130 163 OFFCURVE",
"168 350 CURVE SMOOTH",
"206 537 OFFCURVE",
"308 673 OFFCURVE",
"474 673 CURVE SMOOTH",
"526 673 OFFCURVE",
"567 655 OFFCURVE",
"591 631 CURVE",
"587 597 OFFCURVE",
"583 545 OFFCURVE",
"587 519 CURVE",
"610 519 LINE",
"643 641 LINE",
"608 683 OFFCURVE",
"549 710 OFFCURVE",
"458 710 CURVE SMOOTH",
"259 710 OFFCURVE",
"123 572 OFFCURVE",
"78 350 CURVE SMOOTH",
"32 127 OFFCURVE",
"107 -10 OFFCURVE",
"312 -10 CURVE SMOOTH"
);
},
{
closed = 1;
nodes = (
"411 808 OFFCURVE",
"468 853 OFFCURVE",
"500 889 CURVE",
"505 889 LINE",
"522 853 OFFCURVE",
"559 808 OFFCURVE",
"589 780 CURVE",
"633 812 LINE",
"599 839 OFFCURVE",
"552 894 OFFCURVE",
"532 934 CURVE",
"491 934 LINE",
"455 894 OFFCURVE",
"384 839 OFFCURVE",
"341 812 CURVE",
"369 780 LINE"
);
}
);
width = 594;
}
);
leftKerningGroup = C;
note = Ccircumflex;
unicode = 0108;
},
{
glyphname = Cdotaccent;
lastChange = "2015-10-27 08:20:58 +0000";
layers = (
{
layerId = "6452E246-BF19-4A01-B77D-5979BB06C1CE";
name = "Regular Italic";
paths = (
{
closed = 1;
nodes = (
"392 -10 OFFCURVE",
"468 13 OFFCURVE",
"521 54 CURVE",
"515 81 LINE",
"452 44 OFFCURVE",
"379 27 OFFCURVE",
"335 27 CURVE SMOOTH",
"166 27 OFFCURVE",
"130 163 OFFCURVE",
"168 350 CURVE SMOOTH",
"206 537 OFFCURVE",
"308 673 OFFCURVE",
"474 673 CURVE SMOOTH",
"526 673 OFFCURVE",
"567 655 OFFCURVE",
"591 631 CURVE",
"587 597 OFFCURVE",
"583 545 OFFCURVE",
"587 519 CURVE",
"610 519 LINE",
"643 641 LINE",
"608 683 OFFCURVE",
"549 710 OFFCURVE",
"458 710 CURVE SMOOTH",
"259 710 OFFCURVE",
"123 572 OFFCURVE",
"78 350 CURVE SMOOTH",
"32 127 OFFCURVE",
"107 -10 OFFCURVE",
"312 -10 CURVE SMOOTH"
);
},
{
closed = 1;
nodes = (
"514 785 OFFCURVE",
"535 804 OFFCURVE",
"540 830 CURVE SMOOTH",
"546 858 OFFCURVE",
"533 877 OFFCURVE",
"508 877 CURVE SMOOTH",
"481 877 OFFCURVE",
"461 858 OFFCURVE",
"455 830 CURVE SMOOTH",
"449 804 OFFCURVE",
"462 785 OFFCURVE",
"489 785 CURVE SMOOTH"
);
}
);
width = 594;
}
);
leftKerningGroup = C;
note = Cdotaccent;
unicode = 010A;
},
{
glyphname = D;
lastChange = "2015-10-27 08:20:56 +0000";
layers = (
{
layerId = "6452E246-BF19-4A01-B77D-5979BB06C1CE";
name = "Regular Italic";
paths = (
{
closed = 1;
nodes = (
"287 0 LINE SMOOTH",
"487 0 OFFCURVE",
"592 127 OFFCURVE",
"638 350 CURVE SMOOTH",
"684 573 OFFCURVE",
"630 700 OFFCURVE",
"430 700 CURVE SMOOTH",
"142 700 LINE",
"140 688 LINE",
"162 680 OFFCURVE",
"188 673 OFFCURVE",
"212 669 CURVE",
"82 30 LINE",
"51 27 OFFCURVE",
"25 20 OFFCURVE",
"2 12 CURVE",
"0 0 LINE"
);
},
{
closed = 1;
nodes = (
"299 663 LINE",
"421 663 LINE SMOOTH",
"566 663 OFFCURVE",
"587 537 OFFCURVE",
"548 350 CURVE SMOOTH",
"510 162 OFFCURVE",
"439 35 OFFCURVE",
"292 35 CURVE SMOOTH",
"171 35 LINE"
);
}
);
width = 642;
}
);
note = D;
rightKerningGroup = D;
unicode = 0044;
},
{
glyphname = Eth;
lastChange = "2015-11-28 10:01:07 +0000";
layers = (
{
layerId = "6452E246-BF19-4A01-B77D-5979BB06C1CE";
name = "Regular Italic";
paths = (
{
closed = 1;
nodes = (
"287 0 LINE SMOOTH",
"487 0 OFFCURVE",
"592 127 OFFCURVE",
"638 350 CURVE SMOOTH",
"684 573 OFFCURVE",
"630 700 OFFCURVE",
"430 700 CURVE SMOOTH",
"142 700 LINE",
"140 688 LINE",
"162 680 OFFCURVE",
"188 673 OFFCURVE",
"212 669 CURVE",
"82 30 LINE",
"51 27 OFFCURVE",
"25 20 OFFCURVE",
"2 12 CURVE",
"0 0 LINE"
);
},
{
closed = 1;
nodes = (
"299 663 LINE",
"421 663 LINE SMOOTH",
"566 663 OFFCURVE",
"587 537 OFFCURVE",
"548 350 CURVE SMOOTH",
"510 162 OFFCURVE",
"439 35 OFFCURVE",
"292 35 CURVE SMOOTH",
"171 35 LINE"
);
},
{
closed = 1;
nodes = (
"389 315 LINE",
"396 350 LINE",
"78 350 LINE",
"70 315 LINE"
);
}
);
width = 642;
}
);
note = Eth;
rightKerningGroup = D;
unicode = 00D0;
},
{
glyphname = Dcaron;
lastChange = "2015-10-27 08:20:57 +0000";
layers = (
{
layerId = "6452E246-BF19-4A01-B77D-5979BB06C1CE";
name = "Regular Italic";
paths = (
{
closed = 1;
nodes = (
"287 0 LINE SMOOTH",
"487 0 OFFCURVE",
"592 127 OFFCURVE",
"638 350 CURVE SMOOTH",
"684 573 OFFCURVE",
"630 700 OFFCURVE",
"430 700 CURVE SMOOTH",
"142 700 LINE",
"140 688 LINE",
"162 680 OFFCURVE",
"188 673 OFFCURVE",
"212 669 CURVE",
"82 30 LINE",
"51 27 OFFCURVE",
"25 20 OFFCURVE",
"2 12 CURVE",
"0 0 LINE"
);
},
{
closed = 1;
nodes = (
"299 663 LINE",
"421 663 LINE SMOOTH",
"566 663 OFFCURVE",
"587 537 OFFCURVE",
"548 350 CURVE SMOOTH",
"510 162 OFFCURVE",
"439 35 OFFCURVE",
"292 35 CURVE SMOOTH",
"171 35 LINE"
);
},
{
closed = 1;
nodes = (
"462 786 LINE",
"497 827 OFFCURVE",
"567 882 OFFCURVE",
"612 909 CURVE",
"583 941 LINE",
"540 913 OFFCURVE",
"485 868 OFFCURVE",
"452 832 CURVE",
"447 832 LINE",
"430 868 OFFCURVE",
"393 913 OFFCURVE",
"362 941 CURVE",
"321 909 LINE",
"352 882 OFFCURVE",
"400 827 OFFCURVE",
"420 786 CURVE"
);
}
);
width = 642;
}
);
note = Dcaron;
rightKerningGroup = D;
unicode = 010E;
},
{
glyphname = Dcroat;
lastChange = "2015-11-28 10:01:12 +0000";
layers = (
{
layerId = "6452E246-BF19-4A01-B77D-5979BB06C1CE";
name = "Regular Italic";
paths = (
{
closed = 1;
nodes = (
"287 0 LINE SMOOTH",
"487 0 OFFCURVE",
"592 127 OFFCURVE",
"638 350 CURVE SMOOTH",
"684 573 OFFCURVE",
"630 700 OFFCURVE",
"430 700 CURVE SMOOTH",
"142 700 LINE",
"140 688 LINE",
"162 680 OFFCURVE",
"188 673 OFFCURVE",
"212 669 CURVE",
"82 30 LINE",
"51 27 OFFCURVE",
"25 20 OFFCURVE",
"2 12 CURVE",
"0 0 LINE"
);
},
{
closed = 1;
nodes = (
"299 663 LINE",
"421 663 LINE SMOOTH",
"566 663 OFFCURVE",
"587 537 OFFCURVE",
"548 350 CURVE SMOOTH",
"510 162 OFFCURVE",
"439 35 OFFCURVE",
"292 35 CURVE SMOOTH",
"171 35 LINE"
);
},
{
closed = 1;
nodes = (
"389 315 LINE",
"396 350 LINE",
"78 350 LINE",
"70 315 LINE"
);
}
);
width = 642;
}
);
note = Dcroat;
rightKerningGroup = D;
unicode = 0110;
},
{
glyphname = Ddotbelow;
lastChange = "2015-11-28 10:01:15 +0000";
layers = (
{
layerId = "6452E246-BF19-4A01-B77D-5979BB06C1CE";
name = "Regular Italic";
paths = (
{
closed = 1;
nodes = (
"287 0 LINE SMOOTH",
"487 0 OFFCURVE",
"592 127 OFFCURVE",
"638 350 CURVE SMOOTH",
"684 573 OFFCURVE",
"630 700 OFFCURVE",
"430 700 CURVE SMOOTH",
"142 700 LINE",
"140 688 LINE",
"162 680 OFFCURVE",
"188 673 OFFCURVE",
"212 669 CURVE",
"82 30 LINE",
"51 27 OFFCURVE",
"25 20 OFFCURVE",
"2 12 CURVE",
"0 0 LINE"
);
},
{
closed = 1;
nodes = (
"299 663 LINE",
"421 663 LINE SMOOTH",
"566 663 OFFCURVE",
"587 537 OFFCURVE",
"548 350 CURVE SMOOTH",
"510 162 OFFCURVE",
"439 35 OFFCURVE",
"292 35 CURVE SMOOTH",
"171 35 LINE"
);
},
{
closed = 1;
nodes = (
"268 -151 OFFCURVE",
"289 -132 OFFCURVE",
"295 -106 CURVE SMOOTH",
"300 -78 OFFCURVE",
"287 -59 OFFCURVE",
"261 -59 CURVE SMOOTH",
"235 -59 OFFCURVE",
"214 -78 OFFCURVE",
"208 -106 CURVE SMOOTH",
"203 -132 OFFCURVE",
"216 -151 OFFCURVE",
"242 -151 CURVE SMOOTH"
);
}
);
width = 642;
}
);
note = Ddotbelow;
rightKerningGroup = D;
unicode = 1E0C;
},
{
glyphname = Dlinebelow;
lastChange = "2015-11-28 10:01:21 +0000";
layers = (
{
layerId = "6452E246-BF19-4A01-B77D-5979BB06C1CE";
name = "Regular Italic";
paths = (
{
closed = 1;
nodes = (
"287 0 LINE SMOOTH",
"487 0 OFFCURVE",
"592 127 OFFCURVE",
"638 350 CURVE SMOOTH",
"684 573 OFFCURVE",
"630 700 OFFCURVE",
"430 700 CURVE SMOOTH",
"142 700 LINE",
"140 688 LINE",
"162 680 OFFCURVE",
"188 673 OFFCURVE",
"212 669 CURVE",
"82 30 LINE",
"51 27 OFFCURVE",
"25 20 OFFCURVE",
"2 12 CURVE",
"0 0 LINE"
);
},
{
closed = 1;
nodes = (
"299 663 LINE",
"421 663 LINE SMOOTH",
"566 663 OFFCURVE",
"587 537 OFFCURVE",
"548 350 CURVE SMOOTH",
"510 162 OFFCURVE",
"439 35 OFFCURVE",
"292 35 CURVE SMOOTH",
"171 35 LINE"
);
},
{
closed = 1;
nodes = (
"396 -104 LINE",
"403 -69 LINE",
"84 -69 LINE",
"77 -104 LINE"
);
}
);
width = 642;
}
);
note = Dlinebelow;
rightKerningGroup = D;
unicode = 1E0E;
},
{
glyphname = E;
lastChange = "2015-10-27 08:20:56 +0000";
layers = (
{
layerId = "6452E246-BF19-4A01-B77D-5979BB06C1CE";
name = "Regular Italic";
paths = (
{
closed = 1;
nodes = (
"491 0 LINE",
"533 144 LINE",
"512 144 LINE",
"496 125 OFFCURVE",
"462 65 OFFCURVE",
"454 35 CURVE",
"176 35 LINE",
"303 663 LINE",
"579 663 LINE",
"576 637 OFFCURVE",
"577 574 OFFCURVE",
"583 554 CURVE",
"603 554 LINE",
"633 700 LINE",
"142 700 LINE",
"140 688 LINE",
"162 680 OFFCURVE",
"190 672 OFFCURVE",
"216 669 CURVE",
"85 31 LINE",
"55 28 OFFCURVE",
"25 20 OFFCURVE",
"2 12 CURVE",
"0 0 LINE"
);
},
{
closed = 1;
nodes = (
"451 243 LINE",
"492 445 LINE",
"477 445 LINE",
"463 421 OFFCURVE",
"447 380 OFFCURVE",
"442 362 CURVE",
"176 362 LINE",
"169 326 LINE",
"435 326 LINE",
"433 309 OFFCURVE",
"432 269 OFFCURVE",
"436 243 CURVE"
);
}
);
width = 588;
}
);
note = E;
unicode = 0045;
},
{
glyphname = Eacute;
lastChange = "2015-10-27 08:20:58 +0000";
layers = (
{
layerId = "6452E246-BF19-4A01-B77D-5979BB06C1CE";
name = "Regular Italic";
paths = (
{
closed = 1;
nodes = (
"491 0 LINE",
"533 144 LINE",
"512 144 LINE",
"496 125 OFFCURVE",
"462 65 OFFCURVE",
"454 35 CURVE",
"176 35 LINE",
"303 663 LINE",
"579 663 LINE",
"576 637 OFFCURVE",
"577 574 OFFCURVE",
"583 554 CURVE",
"603 554 LINE",
"633 700 LINE",
"142 700 LINE",
"140 688 LINE",
"162 680 OFFCURVE",
"190 672 OFFCURVE",
"216 669 CURVE",
"85 31 LINE",
"55 28 OFFCURVE",
"25 20 OFFCURVE",
"2 12 CURVE",
"0 0 LINE"
);
},
{
closed = 1;
nodes = (
"451 243 LINE",
"492 445 LINE",
"477 445 LINE",
"463 421 OFFCURVE",
"447 380 OFFCURVE",
"442 362 CURVE",
"176 362 LINE",
"169 326 LINE",
"435 326 LINE",
"433 309 OFFCURVE",
"432 269 OFFCURVE",
"436 243 CURVE"
);
},
{
closed = 1;
nodes = (
"513 868 LINE SMOOTH",
"536 881 OFFCURVE",
"549 895 OFFCURVE",
"552 911 CURVE",
"555 924 OFFCURVE",
"548 938 OFFCURVE",
"528 938 CURVE SMOOTH",
"507 938 OFFCURVE",
"489 922 OFFCURVE",
"480 915 CURVE SMOOTH",
"349 809 LINE",
"360 786 LINE"
);
}
);
width = 588;
}
);
note = Eacute;
unicode = 00C9;
},
{
glyphname = Ebreve;
lastChange = "2015-10-27 08:20:58 +0000";
layers = (
{
layerId = "6452E246-BF19-4A01-B77D-5979BB06C1CE";
name = "Regular Italic";
paths = (
{
closed = 1;
nodes = (
"491 0 LINE",
"533 144 LINE",
"512 144 LINE",
"496 125 OFFCURVE",
"462 65 OFFCURVE",
"454 35 CURVE",
"176 35 LINE",
"303 663 LINE",
"579 663 LINE",
"576 637 OFFCURVE",
"577 574 OFFCURVE",
"583 554 CURVE",
"603 554 LINE",
"633 700 LINE",
"142 700 LINE",
"140 688 LINE",
"162 680 OFFCURVE",
"190 672 OFFCURVE",
"216 669 CURVE",
"85 31 LINE",
"55 28 OFFCURVE",
"25 20 OFFCURVE",
"2 12 CURVE",
"0 0 LINE"
);
},
{
closed = 1;
nodes = (
"451 243 LINE",
"492 445 LINE",
"477 445 LINE",
"463 421 OFFCURVE",
"447 380 OFFCURVE",
"442 362 CURVE",
"176 362 LINE",
"169 326 LINE",
"435 326 LINE",
"433 309 OFFCURVE",
"432 269 OFFCURVE",
"436 243 CURVE"
);
},
{
closed = 1;
nodes = (
"528 777 OFFCURVE",
"594 816 OFFCURVE",
"621 901 CURVE",
"567 901 LINE",
"544 825 OFFCURVE",
"494 814 OFFCURVE",
"455 814 CURVE SMOOTH",
"416 814 OFFCURVE",
"369 825 OFFCURVE",
"376 901 CURVE",
"324 901 LINE",
"317 816 OFFCURVE",
"366 777 OFFCURVE",
"447 777 CURVE SMOOTH"
);
}
);
width = 588;
}
);
note = Ebreve;
unicode = 0114;
},
{
glyphname = Ecaron;
lastChange = "2015-10-27 08:20:57 +0000";
layers = (
{
layerId = "6452E246-BF19-4A01-B77D-5979BB06C1CE";
name = "Regular Italic";
paths = (
{
closed = 1;
nodes = (
"491 0 LINE",
"533 144 LINE",
"512 144 LINE",
"496 125 OFFCURVE",
"462 65 OFFCURVE",
"454 35 CURVE",
"176 35 LINE",
"303 663 LINE",
"579 663 LINE",
"576 637 OFFCURVE",
"577 574 OFFCURVE",
"583 554 CURVE",
"603 554 LINE",
"633 700 LINE",
"142 700 LINE",
"140 688 LINE",
"162 680 OFFCURVE",
"190 672 OFFCURVE",
"216 669 CURVE",
"85 31 LINE",
"55 28 OFFCURVE",
"25 20 OFFCURVE",
"2 12 CURVE",
"0 0 LINE"
);
},
{
closed = 1;
nodes = (
"451 243 LINE",
"492 445 LINE",
"477 445 LINE",
"463 421 OFFCURVE",
"447 380 OFFCURVE",
"442 362 CURVE",
"176 362 LINE",
"169 326 LINE",
"435 326 LINE",
"433 309 OFFCURVE",
"432 269 OFFCURVE",
"436 243 CURVE"
);
},
{
closed = 1;
nodes = (
"468 786 LINE",
"503 827 OFFCURVE",
"573 882 OFFCURVE",
"618 909 CURVE",
"588 941 LINE",
"546 913 OFFCURVE",
"491 868 OFFCURVE",
"458 832 CURVE",
"453 832 LINE",
"436 868 OFFCURVE",
"398 913 OFFCURVE",
"368 941 CURVE",
"326 909 LINE",
"358 882 OFFCURVE",
"406 827 OFFCURVE",
"426 786 CURVE"
);
}
);
width = 588;
}
);
note = Ecaron;
unicode = 011A;
},
{
glyphname = Ecircumflex;
lastChange = "2015-10-27 08:20:56 +0000";
layers = (
{
layerId = "6452E246-BF19-4A01-B77D-5979BB06C1CE";
name = "Regular Italic";
paths = (
{
closed = 1;
nodes = (
"491 0 LINE",
"533 144 LINE",
"512 144 LINE",
"496 125 OFFCURVE",
"462 65 OFFCURVE",
"454 35 CURVE",
"176 35 LINE",
"303 663 LINE",
"579 663 LINE",
"576 637 OFFCURVE",
"577 574 OFFCURVE",
"583 554 CURVE",
"603 554 LINE",
"633 700 LINE",
"142 700 LINE",
"140 688 LINE",
"162 680 OFFCURVE",
"190 672 OFFCURVE",
"216 669 CURVE",
"85 31 LINE",
"55 28 OFFCURVE",
"25 20 OFFCURVE",
"2 12 CURVE",
"0 0 LINE"
);
},
{
closed = 1;
nodes = (
"451 243 LINE",
"492 445 LINE",
"477 445 LINE",
"463 421 OFFCURVE",
"447 380 OFFCURVE",
"442 362 CURVE",
"176 362 LINE",
"169 326 LINE",
"435 326 LINE",
"433 309 OFFCURVE",
"432 269 OFFCURVE",
"436 243 CURVE"
);
},
{
closed = 1;
nodes = (
"377 808 OFFCURVE",
"434 853 OFFCURVE",
"467 889 CURVE",
"471 889 LINE",
"489 853 OFFCURVE",
"525 808 OFFCURVE",
"556 780 CURVE",
"599 812 LINE",
"565 839 OFFCURVE",
"518 894 OFFCURVE",
"498 934 CURVE",
"457 934 LINE",
"421 894 OFFCURVE",
"350 839 OFFCURVE",
"307 812 CURVE",
"335 780 LINE"
);
}
);
width = 588;
}
);
note = Ecircumflex;
unicode = 00CA;
},
{
glyphname = Ecircumflexacute;
lastChange = "2015-10-27 08:20:56 +0000";
layers = (
{
layerId = "6452E246-BF19-4A01-B77D-5979BB06C1CE";
name = "Regular Italic";
paths = (
{
closed = 1;
nodes = (
"491 0 LINE",
"533 144 LINE",
"512 144 LINE",
"496 125 OFFCURVE",
"462 65 OFFCURVE",
"454 35 CURVE",
"176 35 LINE",
"303 663 LINE",
"579 663 LINE",
"576 637 OFFCURVE",
"577 574 OFFCURVE",
"583 554 CURVE",
"603 554 LINE",
"633 700 LINE",
"142 700 LINE",
"140 688 LINE",
"162 680 OFFCURVE",
"190 672 OFFCURVE",
"216 669 CURVE",
"85 31 LINE",
"55 28 OFFCURVE",
"25 20 OFFCURVE",
"2 12 CURVE",
"0 0 LINE"
);
},
{
closed = 1;
nodes = (
"451 243 LINE",
"492 445 LINE",
"477 445 LINE",
"463 421 OFFCURVE",
"447 380 OFFCURVE",
"442 362 CURVE",
"176 362 LINE",
"169 326 LINE",
"435 326 LINE",
"433 309 OFFCURVE",
"432 269 OFFCURVE",
"436 243 CURVE"
);
},
{
closed = 1;
nodes = (
"372 808 OFFCURVE",
"427 853 OFFCURVE",
"461 889 CURVE",
"465 889 LINE",
"483 853 OFFCURVE",
"519 808 OFFCURVE",
"550 780 CURVE",
"591 812 LINE",
"561 839 OFFCURVE",
"513 894 OFFCURVE",
"492 934 CURVE",
"451 934 LINE",
"415 894 OFFCURVE",
"345 839 OFFCURVE",
"300 812 CURVE",
"330 780 LINE"
);
},
{
closed = 1;
nodes = (
"690 957 LINE SMOOTH",
"725 974 OFFCURVE",
"741 994 OFFCURVE",
"744 1010 CURVE",
"747 1023 OFFCURVE",
"739 1033 OFFCURVE",
"725 1033 CURVE SMOOTH",
"709 1033 OFFCURVE",
"687 1023 OFFCURVE",
"661 1000 CURVE SMOOTH",
"568 921 LINE",
"579 900 LINE"
);
}
);
width = 588;
}
);
note = Ecircumflexacute;
unicode = 1EBE;
},
{
glyphname = Ecircumflexdotbelow;
lastChange = "2015-10-27 08:20:56 +0000";
layers = (
{
layerId = "6452E246-BF19-4A01-B77D-5979BB06C1CE";
name = "Regular Italic";
paths = (
{
closed = 1;
nodes = (
"491 0 LINE",
"533 144 LINE",
"512 144 LINE",
"496 125 OFFCURVE",
"462 65 OFFCURVE",
"454 35 CURVE",
"176 35 LINE",
"303 663 LINE",
"579 663 LINE",
"576 637 OFFCURVE",
"577 574 OFFCURVE",
"583 554 CURVE",
"603 554 LINE",
"633 700 LINE",
"142 700 LINE",
"140 688 LINE",
"162 680 OFFCURVE",
"190 672 OFFCURVE",
"216 669 CURVE",
"85 31 LINE",
"55 28 OFFCURVE",
"25 20 OFFCURVE",
"2 12 CURVE",
"0 0 LINE"
);
},
{
closed = 1;
nodes = (
"278 -151 OFFCURVE",
"300 -132 OFFCURVE",
"305 -106 CURVE SMOOTH",
"311 -78 OFFCURVE",
"298 -59 OFFCURVE",
"272 -59 CURVE SMOOTH",
"246 -59 OFFCURVE",
"225 -78 OFFCURVE",
"219 -106 CURVE SMOOTH",
"213 -132 OFFCURVE",
"227 -151 OFFCURVE",
"252 -151 CURVE SMOOTH"
);
},
{
closed = 1;
nodes = (
"451 243 LINE",
"492 445 LINE",
"477 445 LINE",
"463 421 OFFCURVE",
"447 380 OFFCURVE",
"442 362 CURVE",
"176 362 LINE",
"169 326 LINE",
"435 326 LINE",
"433 309 OFFCURVE",
"432 269 OFFCURVE",
"436 243 CURVE"
);
},
{
closed = 1;
nodes = (
"371 808 OFFCURVE",
"427 853 OFFCURVE",
"460 889 CURVE",
"465 889 LINE",
"482 853 OFFCURVE",
"518 808 OFFCURVE",
"549 780 CURVE",
"592 812 LINE",
"559 839 OFFCURVE",
"512 894 OFFCURVE",
"492 934 CURVE",
"450 934 LINE",
"415 894 OFFCURVE",
"344 839 OFFCURVE",
"300 812 CURVE",
"328 780 LINE"
);
}
);
width = 588;
}
);
note = Ecircumflexdotbelow;
unicode = 1EC6;
},
{
glyphname = Ecircumflexgrave;
lastChange = "2015-10-27 08:20:56 +0000";
layers = (
{
layerId = "6452E246-BF19-4A01-B77D-5979BB06C1CE";
name = "Regular Italic";
paths = (
{
closed = 1;
nodes = (
"491 0 LINE",
"533 144 LINE",
"512 144 LINE",
"496 125 OFFCURVE",
"462 65 OFFCURVE",
"454 35 CURVE",
"176 35 LINE",
"303 663 LINE",
"579 663 LINE",
"576 637 OFFCURVE",
"577 574 OFFCURVE",
"583 554 CURVE",
"603 554 LINE",
"633 700 LINE",
"142 700 LINE",
"140 688 LINE",
"162 680 OFFCURVE",
"190 672 OFFCURVE",
"216 669 CURVE",
"85 31 LINE",
"55 28 OFFCURVE",
"25 20 OFFCURVE",
"2 12 CURVE",
"0 0 LINE"
);
},
{
closed = 1;
nodes = (
"451 243 LINE",
"492 445 LINE",
"477 445 LINE",
"463 421 OFFCURVE",
"447 380 OFFCURVE",
"442 362 CURVE",
"176 362 LINE",
"169 326 LINE",
"435 326 LINE",
"433 309 OFFCURVE",
"432 269 OFFCURVE",
"436 243 CURVE"
);
},
{
closed = 1;
nodes = (
"376 921 LINE",
"322 992 LINE SMOOTH",
"303 1017 OFFCURVE",
"282 1033 OFFCURVE",
"265 1033 CURVE SMOOTH",
"251 1033 OFFCURVE",
"239 1023 OFFCURVE",
"236 1010 CURVE SMOOTH",
"232 992 OFFCURVE",
"249 970 OFFCURVE",
"277 951 CURVE SMOOTH",
"357 900 LINE"
);
},
{
closed = 1;
nodes = (
"372 808 OFFCURVE",
"427 853 OFFCURVE",
"461 889 CURVE",
"465 889 LINE",
"483 853 OFFCURVE",
"519 808 OFFCURVE",
"550 780 CURVE",
"591 812 LINE",
"561 839 OFFCURVE",
"513 894 OFFCURVE",
"492 934 CURVE",
"451 934 LINE",
"415 894 OFFCURVE",
"345 839 OFFCURVE",
"300 812 CURVE",
"330 780 LINE"
);
}
);
width = 588;
}
);
note = Ecircumflexgrave;
unicode = 1EC0;
},
{
glyphname = Ecircumflexhookabove;
lastChange = "2015-10-27 08:20:56 +0000";
layers = (
{
layerId = "6452E246-BF19-4A01-B77D-5979BB06C1CE";
name = "Regular Italic";
paths = (
{
closed = 1;
nodes = (
"491 0 LINE",
"533 144 LINE",
"512 144 LINE",
"496 125 OFFCURVE",
"462 65 OFFCURVE",
"454 35 CURVE",
"176 35 LINE",
"303 663 LINE",
"579 663 LINE",
"576 637 OFFCURVE",
"577 574 OFFCURVE",
"583 554 CURVE",
"603 554 LINE",
"633 700 LINE",
"142 700 LINE",
"140 688 LINE",
"162 680 OFFCURVE",
"190 672 OFFCURVE",
"216 669 CURVE",
"85 31 LINE",
"55 28 OFFCURVE",
"25 20 OFFCURVE",
"2 12 CURVE",
"0 0 LINE"
);
},
{
closed = 1;
nodes = (
"451 243 LINE",
"492 445 LINE",
"477 445 LINE",
"463 421 OFFCURVE",
"447 380 OFFCURVE",
"442 362 CURVE",
"176 362 LINE",
"169 326 LINE",
"435 326 LINE",
"433 309 OFFCURVE",
"432 269 OFFCURVE",
"436 243 CURVE"
);
},
{
closed = 1;
nodes = (
"372 808 OFFCURVE",
"427 853 OFFCURVE",
"461 889 CURVE",
"465 889 LINE",
"483 853 OFFCURVE",
"519 808 OFFCURVE",
"550 780 CURVE",
"591 812 LINE",
"561 839 OFFCURVE",
"513 894 OFFCURVE",
"492 934 CURVE",
"451 934 LINE",
"415 894 OFFCURVE",
"345 839 OFFCURVE",
"300 812 CURVE",
"330 780 LINE"
);
},
{
closed = 1;
nodes = (
"594 891 LINE",
"613 944 LINE",
"658 948 OFFCURVE",
"688 967 OFFCURVE",
"697 1007 CURVE SMOOTH",
"707 1054 OFFCURVE",
"670 1073 OFFCURVE",
"628 1073 CURVE SMOOTH",
"604 1073 OFFCURVE",
"579 1066 OFFCURVE",
"563 1059 CURVE",
"563 1032 LINE",
"580 1041 OFFCURVE",
"598 1045 OFFCURVE",
"612 1045 CURVE SMOOTH",
"645 1045 OFFCURVE",
"657 1029 OFFCURVE",
"653 1008 CURVE",
"647 982 OFFCURVE",
"626 966 OFFCURVE",
"592 966 CURVE SMOOTH",
"573 966 LINE",
"562 891 LINE"
);
}
);
width = 588;
}
);
note = Ecircumflexhookabove;
unicode = 1EC2;
},
{
glyphname = Ecircumflextilde;
lastChange = "2015-10-27 08:20:58 +0000";
layers = (
{
layerId = "6452E246-BF19-4A01-B77D-5979BB06C1CE";
name = "Regular Italic";
paths = (
{
closed = 1;
nodes = (
"491 0 LINE",
"533 144 LINE",
"512 144 LINE",
"496 125 OFFCURVE",
"462 65 OFFCURVE",
"454 35 CURVE",
"176 35 LINE",
"303 663 LINE",
"579 663 LINE",
"576 637 OFFCURVE",
"577 574 OFFCURVE",
"583 554 CURVE",
"603 554 LINE",
"633 700 LINE",
"142 700 LINE",
"140 688 LINE",
"162 680 OFFCURVE",
"190 672 OFFCURVE",
"216 669 CURVE",
"85 31 LINE",
"55 28 OFFCURVE",
"25 20 OFFCURVE",
"2 12 CURVE",
"0 0 LINE"
);
},
{
closed = 1;
nodes = (
"451 243 LINE",
"492 445 LINE",
"477 445 LINE",
"463 421 OFFCURVE",
"447 380 OFFCURVE",
"442 362 CURVE",
"176 362 LINE",
"169 326 LINE",
"435 326 LINE",
"433 309 OFFCURVE",
"432 269 OFFCURVE",
"436 243 CURVE"
);
},
{
closed = 1;
nodes = (
"372 808 OFFCURVE",
"427 853 OFFCURVE",
"461 889 CURVE",
"465 889 LINE",
"483 853 OFFCURVE",
"519 808 OFFCURVE",
"550 780 CURVE",
"591 812 LINE",
"561 839 OFFCURVE",
"513 894 OFFCURVE",
"492 934 CURVE",
"451 934 LINE",
"415 894 OFFCURVE",
"345 839 OFFCURVE",
"300 812 CURVE",
"330 780 LINE"
);
},
{
closed = 1;
nodes = (
"352 963 LINE",
"368 998 OFFCURVE",
"394 1020 OFFCURVE",
"421 1020 CURVE SMOOTH",
"458 1020 OFFCURVE",
"498 964 OFFCURVE",
"543 964 CURVE SMOOTH",
"597 964 OFFCURVE",
"634 1005 OFFCURVE",
"655 1068 CURVE",
"626 1068 LINE",
"607 1025 OFFCURVE",
"581 1008 OFFCURVE",
"555 1008 CURVE SMOOTH",
"517 1008 OFFCURVE",
"486 1063 OFFCURVE",
"433 1063 CURVE SMOOTH",
"385 1063 OFFCURVE",
"346 1032 OFFCURVE",
"323 963 CURVE"
);
}
);
width = 588;
}
);
note = Ecircumflextilde;
unicode = 1EC4;
},
{
glyphname = Edieresis;
lastChange = "2015-10-27 08:20:58 +0000";
layers = (
{
layerId = "6452E246-BF19-4A01-B77D-5979BB06C1CE";
name = "Regular Italic";
paths = (
{
closed = 1;
nodes = (
"491 0 LINE",
"533 144 LINE",
"512 144 LINE",
"496 125 OFFCURVE",
"462 65 OFFCURVE",
"454 35 CURVE",
"176 35 LINE",
"303 663 LINE",
"579 663 LINE",
"576 637 OFFCURVE",
"577 574 OFFCURVE",
"583 554 CURVE",
"603 554 LINE",
"633 700 LINE",
"142 700 LINE",
"140 688 LINE",
"162 680 OFFCURVE",
"190 672 OFFCURVE",
"216 669 CURVE",
"85 31 LINE",
"55 28 OFFCURVE",
"25 20 OFFCURVE",
"2 12 CURVE",
"0 0 LINE"
);
},
{
closed = 1;
nodes = (
"451 243 LINE",
"492 445 LINE",
"477 445 LINE",
"463 421 OFFCURVE",
"447 380 OFFCURVE",
"442 362 CURVE",
"176 362 LINE",
"169 326 LINE",
"435 326 LINE",
"433 309 OFFCURVE",
"432 269 OFFCURVE",
"436 243 CURVE"
);
},
{
closed = 1;
nodes = (
"369 785 OFFCURVE",
"390 804 OFFCURVE",
"396 830 CURVE SMOOTH",
"401 858 OFFCURVE",
"388 877 OFFCURVE",
"362 877 CURVE SMOOTH",
"337 877 OFFCURVE",
"317 858 OFFCURVE",
"311 830 CURVE SMOOTH",
"305 804 OFFCURVE",
"319 785 OFFCURVE",
"343 785 CURVE SMOOTH"
);
},
{
closed = 1;
nodes = (
"580 785 OFFCURVE",
"601 804 OFFCURVE",
"607 830 CURVE SMOOTH",
"612 858 OFFCURVE",
"599 877 OFFCURVE",
"573 877 CURVE SMOOTH",
"547 877 OFFCURVE",
"527 858 OFFCURVE",
"521 830 CURVE SMOOTH",
"516 804 OFFCURVE",
"528 785 OFFCURVE",
"554 785 CURVE SMOOTH"
);
}
);
width = 588;
}
);
note = Edieresis;
unicode = 00CB;
},
{
glyphname = Edotaccent;
lastChange = "2015-10-27 08:20:57 +0000";
layers = (
{
layerId = "6452E246-BF19-4A01-B77D-5979BB06C1CE";
name = "Regular Italic";
paths = (
{
closed = 1;
nodes = (
"491 0 LINE",
"533 144 LINE",
"512 144 LINE",
"496 125 OFFCURVE",
"462 65 OFFCURVE",
"454 35 CURVE",
"176 35 LINE",
"303 663 LINE",
"579 663 LINE",
"576 637 OFFCURVE",
"577 574 OFFCURVE",
"583 554 CURVE",
"603 554 LINE",
"633 700 LINE",
"142 700 LINE",
"140 688 LINE",
"162 680 OFFCURVE",
"190 672 OFFCURVE",
"216 669 CURVE",
"85 31 LINE",
"55 28 OFFCURVE",
"25 20 OFFCURVE",
"2 12 CURVE",
"0 0 LINE"
);
},
{
closed = 1;
nodes = (
"451 243 LINE",
"492 445 LINE",
"477 445 LINE",
"463 421 OFFCURVE",
"447 380 OFFCURVE",
"442 362 CURVE",
"176 362 LINE",
"169 326 LINE",
"435 326 LINE",
"433 309 OFFCURVE",
"432 269 OFFCURVE",
"436 243 CURVE"
);
},
{
closed = 1;
nodes = (
"478 785 OFFCURVE",
"499 804 OFFCURVE",
"505 830 CURVE SMOOTH",
"511 858 OFFCURVE",
"497 877 OFFCURVE",
"472 877 CURVE SMOOTH",
"445 877 OFFCURVE",
"425 858 OFFCURVE",
"420 830 CURVE SMOOTH",
"414 804 OFFCURVE",
"426 785 OFFCURVE",
"453 785 CURVE SMOOTH"
);
}
);
width = 588;
}
);
note = Edotaccent;
unicode = 0116;
},
{
glyphname = Edotbelow;
lastChange = "2015-10-27 08:20:56 +0000";
layers = (
{
layerId = "6452E246-BF19-4A01-B77D-5979BB06C1CE";
name = "Regular Italic";
paths = (
{
closed = 1;
nodes = (
"491 0 LINE",
"533 144 LINE",
"512 144 LINE",
"496 125 OFFCURVE",
"462 65 OFFCURVE",
"454 35 CURVE",
"176 35 LINE",
"303 663 LINE",
"579 663 LINE",
"576 637 OFFCURVE",
"577 574 OFFCURVE",
"583 554 CURVE",
"603 554 LINE",
"633 700 LINE",
"142 700 LINE",
"140 688 LINE",
"162 680 OFFCURVE",
"190 672 OFFCURVE",
"216 669 CURVE",
"85 31 LINE",
"55 28 OFFCURVE",
"25 20 OFFCURVE",
"2 12 CURVE",
"0 0 LINE"
);
},
{
closed = 1;
nodes = (
"258 -151 OFFCURVE",
"279 -132 OFFCURVE",
"285 -106 CURVE SMOOTH",
"291 -78 OFFCURVE",
"277 -59 OFFCURVE",
"252 -59 CURVE SMOOTH",
"226 -59 OFFCURVE",
"204 -78 OFFCURVE",
"199 -106 CURVE SMOOTH",
"193 -132 OFFCURVE",
"206 -151 OFFCURVE",
"232 -151 CURVE SMOOTH"
);
},
{
closed = 1;
nodes = (
"451 243 LINE",
"492 445 LINE",
"477 445 LINE",
"463 421 OFFCURVE",
"447 380 OFFCURVE",
"442 362 CURVE",
"176 362 LINE",
"169 326 LINE",
"435 326 LINE",
"433 309 OFFCURVE",
"432 269 OFFCURVE",
"436 243 CURVE"
);
}
);
width = 588;
}
);
note = Edotbelow;
unicode = 1EB8;
},
{
glyphname = Egrave;
lastChange = "2015-10-27 08:20:58 +0000";
layers = (
{
layerId = "6452E246-BF19-4A01-B77D-5979BB06C1CE";
name = "Regular Italic";
paths = (
{
closed = 1;
nodes = (
"491 0 LINE",
"533 144 LINE",
"512 144 LINE",
"496 125 OFFCURVE",
"462 65 OFFCURVE",
"454 35 CURVE",
"176 35 LINE",
"303 663 LINE",
"579 663 LINE",
"576 637 OFFCURVE",
"577 574 OFFCURVE",
"583 554 CURVE",
"603 554 LINE",
"633 700 LINE",
"142 700 LINE",
"140 688 LINE",
"162 680 OFFCURVE",
"190 672 OFFCURVE",
"216 669 CURVE",
"85 31 LINE",
"55 28 OFFCURVE",
"25 20 OFFCURVE",
"2 12 CURVE",
"0 0 LINE"
);
},
{
closed = 1;
nodes = (
"451 243 LINE",
"492 445 LINE",
"477 445 LINE",
"463 421 OFFCURVE",
"447 380 OFFCURVE",
"442 362 CURVE",
"176 362 LINE",
"169 326 LINE",
"435 326 LINE",
"433 309 OFFCURVE",
"432 269 OFFCURVE",
"436 243 CURVE"
);
},
{
closed = 1;
nodes = (
"544 809 LINE",
"454 916 LINE",
"448 924 OFFCURVE",
"437 938 OFFCURVE",
"417 938 CURVE SMOOTH",
"396 938 OFFCURVE",
"383 924 OFFCURVE",
"380 911 CURVE",
"377 895 OFFCURVE",
"386 881 OFFCURVE",
"404 868 CURVE SMOOTH",
"524 786 LINE"
);
}
);
width = 588;
}
);
note = Egrave;
unicode = 00C8;
},
{
glyphname = Ehookabove;
lastChange = "2015-11-28 10:47:03 +0000";
layers = (
{
layerId = "6452E246-BF19-4A01-B77D-5979BB06C1CE";
name = "Regular Italic";
paths = (
{
closed = 1;
nodes = (
"491 0 LINE",
"533 144 LINE",
"512 144 LINE",
"496 125 OFFCURVE",
"462 65 OFFCURVE",
"454 35 CURVE",
"176 35 LINE",
"303 663 LINE",
"579 663 LINE",
"576 637 OFFCURVE",
"577 574 OFFCURVE",
"583 554 CURVE",
"603 554 LINE",
"633 700 LINE",
"142 700 LINE",
"140 688 LINE",
"162 680 OFFCURVE",
"190 672 OFFCURVE",
"216 669 CURVE",
"85 31 LINE",
"55 28 OFFCURVE",
"25 20 OFFCURVE",
"2 12 CURVE",
"0 0 LINE"
);
},
{
closed = 1;
nodes = (
"451 243 LINE",
"492 445 LINE",
"477 445 LINE",
"463 421 OFFCURVE",
"447 380 OFFCURVE",
"442 362 CURVE",
"176 362 LINE",
"169 326 LINE",
"435 326 LINE",
"433 309 OFFCURVE",
"432 269 OFFCURVE",
"436 243 CURVE"
);
},
{
closed = 1;
nodes = (
"462 779 LINE",
"485 843 LINE",
"536 848 OFFCURVE",
"571 872 OFFCURVE",
"581 919 CURVE SMOOTH",
"591 975 OFFCURVE",
"551 998 OFFCURVE",
"503 998 CURVE SMOOTH",
"474 998 OFFCURVE",
"444 990 OFFCURVE",
"425 981 CURVE",
"426 951 LINE",
"447 962 OFFCURVE",
"468 967 OFFCURVE",
"485 967 CURVE SMOOTH",
"522 967 OFFCURVE",
"537 946 OFFCURVE",
"532 921 CURVE SMOOTH",
"526 890 OFFCURVE",
"499 869 OFFCURVE",
"461 869 CURVE SMOOTH",
"438 869 LINE",
"424 779 LINE"
);
}
);
width = 588;
}
);
note = Ehookabove;
unicode = 1EBA;
},
{
glyphname = Emacron;
lastChange = "2015-10-27 08:20:57 +0000";
layers = (
{
layerId = "6452E246-BF19-4A01-B77D-5979BB06C1CE";
name = "Regular Italic";
paths = (
{
closed = 1;
nodes = (
"491 0 LINE",
"533 144 LINE",
"512 144 LINE",
"496 125 OFFCURVE",
"462 65 OFFCURVE",
"454 35 CURVE",
"176 35 LINE",
"303 663 LINE",
"579 663 LINE",
"576 637 OFFCURVE",
"577 574 OFFCURVE",
"583 554 CURVE",
"603 554 LINE",
"633 700 LINE",
"142 700 LINE",
"140 688 LINE",
"162 680 OFFCURVE",
"190 672 OFFCURVE",
"216 669 CURVE",
"85 31 LINE",
"55 28 OFFCURVE",
"25 20 OFFCURVE",
"2 12 CURVE",
"0 0 LINE"
);
},
{
closed = 1;
nodes = (
"451 243 LINE",
"492 445 LINE",
"477 445 LINE",
"463 421 OFFCURVE",
"447 380 OFFCURVE",
"442 362 CURVE",
"176 362 LINE",
"169 326 LINE",
"435 326 LINE",
"433 309 OFFCURVE",
"432 269 OFFCURVE",
"436 243 CURVE"
);
},
{
closed = 1;
nodes = (
"603 784 LINE",
"610 819 LINE",
"291 819 LINE",
"284 784 LINE"
);
}
);
width = 588;
}
);
note = Emacron;
unicode = 0112;
},
{
glyphname = Eogonek;
lastChange = "2015-10-27 08:20:57 +0000";
layers = (
{
layerId = "6452E246-BF19-4A01-B77D-5979BB06C1CE";
name = "Regular Italic";
paths = (
{
closed = 1;
nodes = (
"491 0 LINE",
"533 144 LINE",
"512 144 LINE",
"496 125 OFFCURVE",
"462 65 OFFCURVE",
"454 35 CURVE",
"176 35 LINE",
"303 663 LINE",
"579 663 LINE",
"576 637 OFFCURVE",
"577 574 OFFCURVE",
"583 554 CURVE",
"603 554 LINE",
"633 700 LINE",
"142 700 LINE",
"140 688 LINE",
"162 680 OFFCURVE",
"190 672 OFFCURVE",
"216 669 CURVE",
"85 31 LINE",
"55 28 OFFCURVE",
"25 20 OFFCURVE",
"2 12 CURVE",
"0 0 LINE"
);
},
{
closed = 1;
nodes = (
"428 -187 OFFCURVE",
"455 -181 OFFCURVE",
"480 -170 CURVE",
"489 -129 LINE",
"468 -139 OFFCURVE",
"449 -143 OFFCURVE",
"434 -143 CURVE SMOOTH",
"401 -143 OFFCURVE",
"379 -126 OFFCURVE",
"386 -92 CURVE SMOOTH",
"394 -56 OFFCURVE",
"428 -20 OFFCURVE",
"465 0 CURVE",
"417 0 LINE",
"363 -20 OFFCURVE",
"324 -63 OFFCURVE",
"316 -107 CURVE SMOOTH",
"307 -149 OFFCURVE",
"333 -187 OFFCURVE",
"397 -187 CURVE SMOOTH"
);
},
{
closed = 1;
nodes = (
"451 243 LINE",
"492 445 LINE",
"477 445 LINE",
"463 421 OFFCURVE",
"447 380 OFFCURVE",
"442 362 CURVE",
"176 362 LINE",
"169 326 LINE",
"435 326 LINE",
"433 309 OFFCURVE",
"432 269 OFFCURVE",
"436 243 CURVE"
);
}
);
width = 588;
}
);
note = Eogonek;
unicode = 0118;
},
{
glyphname = Etilde;
lastChange = "2015-10-27 08:20:57 +0000";
layers = (
{
layerId = "6452E246-BF19-4A01-B77D-5979BB06C1CE";
name = "Regular Italic";
paths = (
{
closed = 1;
nodes = (
"491 0 LINE",
"533 144 LINE",
"512 144 LINE",
"496 125 OFFCURVE",
"462 65 OFFCURVE",
"454 35 CURVE",
"176 35 LINE",
"303 663 LINE",
"579 663 LINE",
"576 637 OFFCURVE",
"577 574 OFFCURVE",
"583 554 CURVE",
"603 554 LINE",
"633 700 LINE",
"142 700 LINE",
"140 688 LINE",
"162 680 OFFCURVE",
"190 672 OFFCURVE",
"216 669 CURVE",
"85 31 LINE",
"55 28 OFFCURVE",
"25 20 OFFCURVE",
"2 12 CURVE",
"0 0 LINE"
);
},
{
closed = 1;
nodes = (
"451 243 LINE",
"492 445 LINE",
"477 445 LINE",
"463 421 OFFCURVE",
"447 380 OFFCURVE",
"442 362 CURVE",
"176 362 LINE",
"169 326 LINE",
"435 326 LINE",
"433 309 OFFCURVE",
"432 269 OFFCURVE",
"436 243 CURVE"
);
},
{
closed = 1;
nodes = (
"305 785 LINE",
"320 820 OFFCURVE",
"348 842 OFFCURVE",
"377 842 CURVE SMOOTH",
"416 842 OFFCURVE",
"458 786 OFFCURVE",
"506 786 CURVE SMOOTH",
"563 786 OFFCURVE",
"601 827 OFFCURVE",
"621 890 CURVE",
"591 890 LINE",
"573 847 OFFCURVE",
"544 830 OFFCURVE",
"516 830 CURVE SMOOTH",
"477 830 OFFCURVE",
"444 885 OFFCURVE",
"388 885 CURVE SMOOTH",
"338 885 OFFCURVE",
"297 854 OFFCURVE",
"274 785 CURVE"
);
}
);
width = 588;
}
);
note = Etilde;
unicode = 1EBC;
},
{
glyphname = F;
lastChange = "2015-10-27 08:20:58 +0000";
layers = (
{
layerId = "6452E246-BF19-4A01-B77D-5979BB06C1CE";
name = "Regular Italic";
paths = (
{
closed = 1;
nodes = (
"250 0 LINE",
"252 11 LINE",
"228 20 OFFCURVE",
"199 26 OFFCURVE",
"175 30 CURVE",
"303 663 LINE",
"571 663 LINE",
"568 637 OFFCURVE",
"569 574 OFFCURVE",
"575 554 CURVE",
"596 554 LINE",
"626 700 LINE",
"142 700 LINE",
"140 688 LINE",
"163 679 OFFCURVE",
"192 673 OFFCURVE",
"216 669 CURVE",
"85 30 LINE",
"51 26 OFFCURVE",
"25 19 OFFCURVE",
"2 12 CURVE",
"0 0 LINE"
);
},
{
closed = 1;
nodes = (
"451 243 LINE",
"492 445 LINE",
"477 445 LINE",
"463 421 OFFCURVE",
"447 380 OFFCURVE",
"442 362 CURVE",
"176 362 LINE",
"169 326 LINE",
"435 326 LINE",
"433 309 OFFCURVE",
"432 269 OFFCURVE",
"436 243 CURVE"
);
}
);
width = 547;
}
);
note = F;
unicode = 0046;
},
{
glyphname = G;
lastChange = "2015-10-27 08:20:57 +0000";
layers = (
{
layerId = "6452E246-BF19-4A01-B77D-5979BB06C1CE";
name = "Regular Italic";
paths = (
{
closed = 1;
nodes = (
"385 -10 OFFCURVE",
"481 10 OFFCURVE",
"538 49 CURVE",
"590 307 LINE",
"620 311 OFFCURVE",
"646 321 OFFCURVE",
"661 329 CURVE",
"664 339 LINE",
"436 339 LINE",
"433 327 LINE",
"455 320 OFFCURVE",
"480 314 OFFCURVE",
"505 309 CURVE",
"453 55 LINE",
"414 35 OFFCURVE",
"357 27 OFFCURVE",
"327 27 CURVE SMOOTH",
"159 27 OFFCURVE",
"120 163 OFFCURVE",
"158 350 CURVE SMOOTH",
"197 537 OFFCURVE",
"306 673 OFFCURVE",
"473 673 CURVE SMOOTH",
"526 673 OFFCURVE",
"594 655 OFFCURVE",
"618 631 CURVE",
"613 597 OFFCURVE",
"611 547 OFFCURVE",
"613 519 CURVE",
"636 519 LINE",
"670 641 LINE",
"635 683 OFFCURVE",
"548 710 OFFCURVE",
"457 710 CURVE SMOOTH",
"258 710 OFFCURVE",
"113 572 OFFCURVE",
"68 350 CURVE SMOOTH",
"22 127 OFFCURVE",
"100 -10 OFFCURVE",
"304 -10 CURVE SMOOTH"
);
}
);
width = 644;
}
);
leftKerningGroup = G;
note = G;
unicode = 0047;
},
{
glyphname = Gbreve;
lastChange = "2015-10-27 08:20:56 +0000";
layers = (
{
layerId = "6452E246-BF19-4A01-B77D-5979BB06C1CE";
name = "Regular Italic";
paths = (
{
closed = 1;
nodes = (
"385 -10 OFFCURVE",
"481 10 OFFCURVE",
"538 49 CURVE",
"590 307 LINE",
"620 311 OFFCURVE",
"646 321 OFFCURVE",
"661 329 CURVE",
"664 339 LINE",
"436 339 LINE",
"433 327 LINE",
"455 320 OFFCURVE",
"480 314 OFFCURVE",
"505 309 CURVE",
"453 55 LINE",
"414 35 OFFCURVE",
"357 27 OFFCURVE",
"327 27 CURVE SMOOTH",
"159 27 OFFCURVE",
"120 163 OFFCURVE",
"158 350 CURVE SMOOTH",
"197 537 OFFCURVE",
"306 673 OFFCURVE",
"473 673 CURVE SMOOTH",
"526 673 OFFCURVE",
"594 655 OFFCURVE",
"618 631 CURVE",
"613 597 OFFCURVE",
"611 547 OFFCURVE",
"613 519 CURVE",
"636 519 LINE",
"670 641 LINE",
"635 683 OFFCURVE",
"548 710 OFFCURVE",
"457 710 CURVE SMOOTH",
"258 710 OFFCURVE",
"113 572 OFFCURVE",
"68 350 CURVE SMOOTH",
"22 127 OFFCURVE",
"100 -10 OFFCURVE",
"304 -10 CURVE SMOOTH"
);
},
{
closed = 1;
nodes = (
"552 777 OFFCURVE",
"618 816 OFFCURVE",
"645 901 CURVE",
"591 901 LINE",
"568 825 OFFCURVE",
"518 814 OFFCURVE",
"479 814 CURVE SMOOTH",
"440 814 OFFCURVE",
"393 825 OFFCURVE",
"400 901 CURVE",
"348 901 LINE",
"341 816 OFFCURVE",
"390 777 OFFCURVE",
"471 777 CURVE SMOOTH"
);
}
);
width = 644;
}
);
leftKerningGroup = G;
note = Gbreve;
unicode = 011E;
},
{
glyphname = Gcaron;
lastChange = "2015-10-27 08:20:56 +0000";
layers = (
{
layerId = "6452E246-BF19-4A01-B77D-5979BB06C1CE";
name = "Regular Italic";
paths = (
{
closed = 1;
nodes = (
"385 -10 OFFCURVE",
"481 10 OFFCURVE",
"538 49 CURVE",
"590 307 LINE",
"620 311 OFFCURVE",
"646 321 OFFCURVE",
"661 329 CURVE",
"664 339 LINE",
"436 339 LINE",
"433 327 LINE",
"455 320 OFFCURVE",
"480 314 OFFCURVE",
"505 309 CURVE",
"453 55 LINE",
"414 35 OFFCURVE",
"357 27 OFFCURVE",
"327 27 CURVE SMOOTH",
"159 27 OFFCURVE",
"120 163 OFFCURVE",
"158 350 CURVE SMOOTH",
"197 537 OFFCURVE",
"306 673 OFFCURVE",
"473 673 CURVE SMOOTH",
"526 673 OFFCURVE",
"594 655 OFFCURVE",
"618 631 CURVE",
"613 597 OFFCURVE",
"611 547 OFFCURVE",
"613 519 CURVE",
"636 519 LINE",
"670 641 LINE",
"635 683 OFFCURVE",
"548 710 OFFCURVE",
"457 710 CURVE SMOOTH",
"258 710 OFFCURVE",
"113 572 OFFCURVE",
"68 350 CURVE SMOOTH",
"22 127 OFFCURVE",
"100 -10 OFFCURVE",
"304 -10 CURVE SMOOTH"
);
},
{
closed = 1;
nodes = (
"500 797 LINE",
"536 838 OFFCURVE",
"606 893 OFFCURVE",
"651 920 CURVE",
"621 952 LINE",
"579 924 OFFCURVE",
"523 879 OFFCURVE",
"491 843 CURVE",
"486 843 LINE",
"468 879 OFFCURVE",
"431 924 OFFCURVE",
"400 952 CURVE",
"359 920 LINE",
"391 893 OFFCURVE",
"439 838 OFFCURVE",
"459 797 CURVE"
);
}
);
width = 644;
}
);
leftKerningGroup = G;
note = Gcaron;
unicode = 01E6;
},
{
glyphname = Gcircumflex;
lastChange = "2015-10-27 08:20:58 +0000";
layers = (
{
layerId = "6452E246-BF19-4A01-B77D-5979BB06C1CE";
name = "Regular Italic";
paths = (
{
closed = 1;
nodes = (
"385 -10 OFFCURVE",
"481 10 OFFCURVE",
"538 49 CURVE",
"590 307 LINE",
"620 311 OFFCURVE",
"646 321 OFFCURVE",
"661 329 CURVE",
"664 339 LINE",
"436 339 LINE",
"433 327 LINE",
"455 320 OFFCURVE",
"480 314 OFFCURVE",
"505 309 CURVE",
"453 55 LINE",
"414 35 OFFCURVE",
"357 27 OFFCURVE",
"327 27 CURVE SMOOTH",
"159 27 OFFCURVE",
"120 163 OFFCURVE",
"158 350 CURVE SMOOTH",
"197 537 OFFCURVE",
"306 673 OFFCURVE",
"473 673 CURVE SMOOTH",
"526 673 OFFCURVE",
"594 655 OFFCURVE",
"618 631 CURVE",
"613 597 OFFCURVE",
"611 547 OFFCURVE",
"613 519 CURVE",
"636 519 LINE",
"670 641 LINE",
"635 683 OFFCURVE",
"548 710 OFFCURVE",
"457 710 CURVE SMOOTH",
"258 710 OFFCURVE",
"113 572 OFFCURVE",
"68 350 CURVE SMOOTH",
"22 127 OFFCURVE",
"100 -10 OFFCURVE",
"304 -10 CURVE SMOOTH"
);
},
{
closed = 1;
nodes = (
"417 808 OFFCURVE",
"473 853 OFFCURVE",
"506 889 CURVE",
"511 889 LINE",
"528 853 OFFCURVE",
"564 808 OFFCURVE",
"595 780 CURVE",
"638 812 LINE",
"605 839 OFFCURVE",
"558 894 OFFCURVE",
"538 934 CURVE",
"496 934 LINE",
"461 894 OFFCURVE",
"390 839 OFFCURVE",
"347 812 CURVE",
"374 780 LINE"
);
}
);
width = 644;
}
);
leftKerningGroup = G;
note = Gcircumflex;
unicode = 011C;
},
{
glyphname = Gcommaaccent;
lastChange = "2015-10-27 08:20:56 +0000";
layers = (
{
layerId = "6452E246-BF19-4A01-B77D-5979BB06C1CE";
name = "Regular Italic";
paths = (
{
closed = 1;
nodes = (
"385 -10 OFFCURVE",
"481 10 OFFCURVE",
"538 49 CURVE",
"590 307 LINE",
"620 311 OFFCURVE",
"646 321 OFFCURVE",
"661 329 CURVE",
"664 339 LINE",
"436 339 LINE",
"433 327 LINE",
"455 320 OFFCURVE",
"480 314 OFFCURVE",
"505 309 CURVE",
"453 55 LINE",
"414 35 OFFCURVE",
"357 27 OFFCURVE",
"327 27 CURVE SMOOTH",
"159 27 OFFCURVE",
"120 163 OFFCURVE",
"158 350 CURVE SMOOTH",
"197 537 OFFCURVE",
"306 673 OFFCURVE",
"473 673 CURVE SMOOTH",
"526 673 OFFCURVE",
"594 655 OFFCURVE",
"618 631 CURVE",
"613 597 OFFCURVE",
"611 547 OFFCURVE",
"613 519 CURVE",
"636 519 LINE",
"670 641 LINE",
"635 683 OFFCURVE",
"548 710 OFFCURVE",
"457 710 CURVE SMOOTH",
"258 710 OFFCURVE",
"113 572 OFFCURVE",
"68 350 CURVE SMOOTH",
"22 127 OFFCURVE",
"100 -10 OFFCURVE",
"304 -10 CURVE SMOOTH"
);
},
{
closed = 1;
nodes = (
"288 -263 OFFCURVE",
"331 -190 OFFCURVE",
"343 -135 CURVE SMOOTH",
"350 -98 OFFCURVE",
"340 -69 OFFCURVE",
"299 -69 CURVE SMOOTH",
"272 -69 OFFCURVE",
"243 -86 OFFCURVE",
"236 -118 CURVE SMOOTH",
"231 -145 OFFCURVE",
"244 -162 OFFCURVE",
"265 -166 CURVE SMOOTH",
"271 -167 OFFCURVE",
"276 -167 OFFCURVE",
"283 -166 CURVE",
"272 -207 OFFCURVE",
"244 -249 OFFCURVE",
"214 -277 CURVE",
"239 -302 LINE"
);
}
);
width = 644;
}
);
leftKerningGroup = G;
note = Gcommaaccent;
unicode = 0122;
},
{
glyphname = Gdotaccent;
lastChange = "2015-10-27 08:20:56 +0000";
layers = (
{
layerId = "6452E246-BF19-4A01-B77D-5979BB06C1CE";
name = "Regular Italic";
paths = (
{
closed = 1;
nodes = (
"385 -10 OFFCURVE",
"481 10 OFFCURVE",
"538 49 CURVE",
"590 307 LINE",
"620 311 OFFCURVE",
"646 321 OFFCURVE",
"661 329 CURVE",
"664 339 LINE",
"436 339 LINE",
"433 327 LINE",
"455 320 OFFCURVE",
"480 314 OFFCURVE",
"505 309 CURVE",
"453 55 LINE",
"414 35 OFFCURVE",
"357 27 OFFCURVE",
"327 27 CURVE SMOOTH",
"159 27 OFFCURVE",
"120 163 OFFCURVE",
"158 350 CURVE SMOOTH",
"197 537 OFFCURVE",
"306 673 OFFCURVE",
"473 673 CURVE SMOOTH",
"526 673 OFFCURVE",
"594 655 OFFCURVE",
"618 631 CURVE",
"613 597 OFFCURVE",
"611 547 OFFCURVE",
"613 519 CURVE",
"636 519 LINE",
"670 641 LINE",
"635 683 OFFCURVE",
"548 710 OFFCURVE",
"457 710 CURVE SMOOTH",
"258 710 OFFCURVE",
"113 572 OFFCURVE",
"68 350 CURVE SMOOTH",
"22 127 OFFCURVE",
"100 -10 OFFCURVE",
"304 -10 CURVE SMOOTH"
);
},
{
closed = 1;
nodes = (
"508 785 OFFCURVE",
"529 804 OFFCURVE",
"535 830 CURVE SMOOTH",
"540 858 OFFCURVE",
"527 877 OFFCURVE",
"502 877 CURVE SMOOTH",
"475 877 OFFCURVE",
"455 858 OFFCURVE",
"449 830 CURVE SMOOTH",
"444 804 OFFCURVE",
"456 785 OFFCURVE",
"483 785 CURVE SMOOTH"
);
}
);
width = 644;
}
);
leftKerningGroup = G;
note = Gdotaccent;
unicode = 0120;
},
{
glyphname = Gmacron;
lastChange = "2015-10-27 08:20:56 +0000";
layers = (
{
layerId = "6452E246-BF19-4A01-B77D-5979BB06C1CE";
name = "Regular Italic";
paths = (
{
closed = 1;
nodes = (
"385 -10 OFFCURVE",
"481 10 OFFCURVE",
"538 49 CURVE",
"590 307 LINE",
"620 311 OFFCURVE",
"646 321 OFFCURVE",
"661 329 CURVE",
"664 339 LINE",
"436 339 LINE",
"433 327 LINE",
"455 320 OFFCURVE",
"480 314 OFFCURVE",
"505 309 CURVE",
"453 55 LINE",
"414 35 OFFCURVE",
"357 27 OFFCURVE",
"327 27 CURVE SMOOTH",
"159 27 OFFCURVE",
"120 163 OFFCURVE",
"158 350 CURVE SMOOTH",
"197 537 OFFCURVE",
"306 673 OFFCURVE",
"473 673 CURVE SMOOTH",
"526 673 OFFCURVE",
"594 655 OFFCURVE",
"618 631 CURVE",
"613 597 OFFCURVE",
"611 547 OFFCURVE",
"613 519 CURVE",
"636 519 LINE",
"670 641 LINE",
"635 683 OFFCURVE",
"548 710 OFFCURVE",
"457 710 CURVE SMOOTH",
"258 710 OFFCURVE",
"113 572 OFFCURVE",
"68 350 CURVE SMOOTH",
"22 127 OFFCURVE",
"100 -10 OFFCURVE",
"304 -10 CURVE SMOOTH"
);
},
{
closed = 1;
nodes = (
"626 784 LINE",
"633 819 LINE",
"314 819 LINE",
"307 784 LINE"
);
}
);
width = 644;
}
);
leftKerningGroup = G;
note = Gmacron;
unicode = 1E20;
},
{
glyphname = H;
lastChange = "2015-10-27 08:20:56 +0000";
layers = (
{
layerId = "6452E246-BF19-4A01-B77D-5979BB06C1CE";
name = "Regular Italic";
paths = (
{
closed = 1;
nodes = (
"683 0 LINE",
"684 11 LINE",
"661 20 OFFCURVE",
"636 26 OFFCURVE",
"611 30 CURVE",
"740 668 LINE",
"771 671 OFFCURVE",
"799 679 OFFCURVE",
"823 687 CURVE",
"825 700 LINE",
"584 700 LINE",
"582 688 LINE",
"605 680 OFFCURVE",
"629 673 OFFCURVE",
"653 669 CURVE",
"522 30 LINE",
"493 27 OFFCURVE",
"481 24 OFFCURVE",
"444 10 CURVE",
"442 0 LINE"
);
},
{
closed = 1;
nodes = (
"240 0 LINE",
"242 11 LINE",
"220 19 OFFCURVE",
"195 25 OFFCURVE",
"171 30 CURVE",
"301 669 LINE",
"329 672 OFFCURVE",
"343 675 OFFCURVE",
"380 688 CURVE",
"382 700 LINE",
"142 700 LINE",
"140 688 LINE",
"163 679 OFFCURVE",
"188 673 OFFCURVE",
"212 669 CURVE",
"82 30 LINE",
"51 27 OFFCURVE",
"25 20 OFFCURVE",
"2 12 CURVE",
"0 0 LINE"
);
},
{
closed = 1;
nodes = (
"628 337 LINE",
"636 373 LINE",
"199 373 LINE",
"191 337 LINE"
);
}
);
width = 759;
}
);
note = H;
unicode = 0048;
},
{
glyphname = Hbar;
lastChange = "2015-10-27 08:20:56 +0000";
layers = (
{
layerId = "6452E246-BF19-4A01-B77D-5979BB06C1CE";
name = "Regular Italic";
paths = (
{
closed = 1;
nodes = (
"683 0 LINE",
"684 11 LINE",
"661 20 OFFCURVE",
"636 26 OFFCURVE",
"611 30 CURVE",
"740 668 LINE",
"771 671 OFFCURVE",
"799 679 OFFCURVE",
"823 687 CURVE",
"825 700 LINE",
"584 700 LINE",
"582 688 LINE",
"605 680 OFFCURVE",
"629 673 OFFCURVE",
"653 669 CURVE",
"522 30 LINE",
"493 27 OFFCURVE",
"481 24 OFFCURVE",
"444 10 CURVE",
"442 0 LINE"
);
},
{
closed = 1;
nodes = (
"240 0 LINE",
"242 11 LINE",
"220 19 OFFCURVE",
"195 25 OFFCURVE",
"171 30 CURVE",
"301 669 LINE",
"329 672 OFFCURVE",
"343 675 OFFCURVE",
"380 688 CURVE",
"382 700 LINE",
"142 700 LINE",
"140 688 LINE",
"163 679 OFFCURVE",
"188 673 OFFCURVE",
"212 669 CURVE",
"82 30 LINE",
"51 27 OFFCURVE",
"25 20 OFFCURVE",
"2 12 CURVE",
"0 0 LINE"
);
},
{
closed = 1;
nodes = (
"628 337 LINE",
"636 373 LINE",
"199 373 LINE",
"191 337 LINE"
);
},
{
closed = 1;
nodes = (
"766 504 LINE",
"773 540 LINE",
"128 540 LINE",
"121 504 LINE"
);
}
);
width = 759;
}
);
note = Hbar;
unicode = 0126;
},
{
glyphname = Hbrevebelow;
lastChange = "2015-10-27 08:20:58 +0000";
layers = (
{
layerId = "6452E246-BF19-4A01-B77D-5979BB06C1CE";
name = "Regular Italic";
paths = (
{
closed = 1;
nodes = (
"683 0 LINE",
"684 11 LINE",
"661 20 OFFCURVE",
"636 26 OFFCURVE",
"611 30 CURVE",
"740 668 LINE",
"771 671 OFFCURVE",
"799 679 OFFCURVE",
"823 687 CURVE",
"825 700 LINE",
"584 700 LINE",
"582 688 LINE",
"605 680 OFFCURVE",
"629 673 OFFCURVE",
"653 669 CURVE",
"522 30 LINE",
"493 27 OFFCURVE",
"481 24 OFFCURVE",
"444 10 CURVE",
"442 0 LINE"
);
},
{
closed = 1;
nodes = (
"386 -174 OFFCURVE",
"452 -135 OFFCURVE",
"479 -50 CURVE",
"425 -50 LINE",
"402 -126 OFFCURVE",
"351 -138 OFFCURVE",
"313 -138 CURVE SMOOTH",
"274 -138 OFFCURVE",
"228 -126 OFFCURVE",
"235 -50 CURVE",
"181 -50 LINE",
"175 -135 OFFCURVE",
"225 -174 OFFCURVE",
"306 -174 CURVE SMOOTH"
);
},
{
closed = 1;
nodes = (
"240 0 LINE",
"242 11 LINE",
"220 19 OFFCURVE",
"195 25 OFFCURVE",
"171 30 CURVE",
"301 669 LINE",
"329 672 OFFCURVE",
"343 675 OFFCURVE",
"380 688 CURVE",
"382 700 LINE",
"142 700 LINE",
"140 688 LINE",
"163 679 OFFCURVE",
"188 673 OFFCURVE",
"212 669 CURVE",
"82 30 LINE",
"51 27 OFFCURVE",
"25 20 OFFCURVE",
"2 12 CURVE",
"0 0 LINE"
);
},
{
closed = 1;
nodes = (
"628 337 LINE",
"636 373 LINE",
"199 373 LINE",
"191 337 LINE"
);
}
);
width = 759;
}
);
note = Hbrevebelow;
unicode = 1E2A;
},
{
glyphname = Hcircumflex;
lastChange = "2015-10-27 08:20:56 +0000";
layers = (
{
layerId = "6452E246-BF19-4A01-B77D-5979BB06C1CE";
name = "Regular Italic";
paths = (
{
closed = 1;
nodes = (
"683 0 LINE",
"684 11 LINE",
"661 20 OFFCURVE",
"636 26 OFFCURVE",
"611 30 CURVE",
"740 668 LINE",
"771 671 OFFCURVE",
"799 679 OFFCURVE",
"823 687 CURVE",
"825 700 LINE",
"584 700 LINE",
"582 688 LINE",
"605 680 OFFCURVE",
"629 673 OFFCURVE",
"653 669 CURVE",
"522 30 LINE",
"493 27 OFFCURVE",
"481 24 OFFCURVE",
"444 10 CURVE",
"442 0 LINE"
);
},
{
closed = 1;
nodes = (
"240 0 LINE",
"242 11 LINE",
"220 19 OFFCURVE",
"195 25 OFFCURVE",
"171 30 CURVE",
"301 669 LINE",
"329 672 OFFCURVE",
"343 675 OFFCURVE",
"380 688 CURVE",
"382 700 LINE",
"142 700 LINE",
"140 688 LINE",
"163 679 OFFCURVE",
"188 673 OFFCURVE",
"212 669 CURVE",
"82 30 LINE",
"51 27 OFFCURVE",
"25 20 OFFCURVE",
"2 12 CURVE",
"0 0 LINE"
);
},
{
closed = 1;
nodes = (
"628 337 LINE",
"636 373 LINE",
"199 373 LINE",
"191 337 LINE"
);
},
{
closed = 1;
nodes = (
"430 808 OFFCURVE",
"487 853 OFFCURVE",
"519 889 CURVE",
"524 889 LINE",
"541 853 OFFCURVE",
"578 808 OFFCURVE",
"609 780 CURVE",
"652 812 LINE",
"618 839 OFFCURVE",
"571 894 OFFCURVE",
"551 934 CURVE",
"510 934 LINE",
"474 894 OFFCURVE",
"403 839 OFFCURVE",
"360 812 CURVE",
"388 780 LINE"
);
}
);
width = 759;
}
);
note = Hcircumflex;
unicode = 0124;
},
{
glyphname = Hdotbelow;
lastChange = "2015-10-27 08:20:57 +0000";
layers = (
{
layerId = "6452E246-BF19-4A01-B77D-5979BB06C1CE";
name = "Regular Italic";
paths = (
{
closed = 1;
nodes = (
"683 0 LINE",
"684 11 LINE",
"661 20 OFFCURVE",
"636 26 OFFCURVE",
"611 30 CURVE",
"740 668 LINE",
"771 671 OFFCURVE",
"799 679 OFFCURVE",
"823 687 CURVE",
"825 700 LINE",
"584 700 LINE",
"582 688 LINE",
"605 680 OFFCURVE",
"629 673 OFFCURVE",
"653 669 CURVE",
"522 30 LINE",
"493 27 OFFCURVE",
"481 24 OFFCURVE",
"444 10 CURVE",
"442 0 LINE"
);
},
{
closed = 1;
nodes = (
"332 -151 OFFCURVE",
"353 -132 OFFCURVE",
"359 -106 CURVE SMOOTH",
"365 -78 OFFCURVE",
"351 -59 OFFCURVE",
"325 -59 CURVE SMOOTH",
"300 -59 OFFCURVE",
"278 -78 OFFCURVE",
"273 -106 CURVE SMOOTH",
"267 -132 OFFCURVE",
"280 -151 OFFCURVE",
"306 -151 CURVE SMOOTH"
);
},
{
closed = 1;
nodes = (
"240 0 LINE",
"242 11 LINE",
"220 19 OFFCURVE",
"195 25 OFFCURVE",
"171 30 CURVE",
"301 669 LINE",
"329 672 OFFCURVE",
"343 675 OFFCURVE",
"380 688 CURVE",
"382 700 LINE",
"142 700 LINE",
"140 688 LINE",
"163 679 OFFCURVE",
"188 673 OFFCURVE",
"212 669 CURVE",
"82 30 LINE",
"51 27 OFFCURVE",
"25 20 OFFCURVE",
"2 12 CURVE",
"0 0 LINE"
);
},
{
closed = 1;
nodes = (
"628 337 LINE",
"636 373 LINE",
"199 373 LINE",
"191 337 LINE"
);
}
);
width = 759;
}
);
note = Hdotbelow;
unicode = 1E24;
},
{
glyphname = I;
lastChange = "2015-10-27 08:20:56 +0000";
layers = (
{
layerId = "6452E246-BF19-4A01-B77D-5979BB06C1CE";
name = "Regular Italic";
paths = (
{
closed = 1;
nodes = (
"248 0 LINE",
"250 11 LINE",
"227 19 OFFCURVE",
"199 26 OFFCURVE",
"175 30 CURVE",
"305 669 LINE",
"334 673 OFFCURVE",
"363 679 OFFCURVE",
"388 687 CURVE",
"390 700 LINE",
"145 700 LINE",
"143 688 LINE",
"165 680 OFFCURVE",
"193 673 OFFCURVE",
"217 669 CURVE",
"86 30 LINE",
"59 26 OFFCURVE",
"30 19 OFFCURVE",
"5 12 CURVE",
"3 0 LINE"
);
}
);
width = 327;
}
);
note = I;
unicode = 0049;
},
{
glyphname = IJ;
lastChange = "2015-10-27 08:20:56 +0000";
layers = (
{
layerId = "6452E246-BF19-4A01-B77D-5979BB06C1CE";
name = "Regular Italic";
paths = (
{
closed = 1;
nodes = (
"551 -10 OFFCURVE",
"632 41 OFFCURVE",
"653 143 CURVE SMOOTH",
"759 668 LINE",
"790 671 OFFCURVE",
"817 679 OFFCURVE",
"840 687 CURVE",
"842 700 LINE",
"601 700 LINE",
"598 686 LINE",
"617 679 OFFCURVE",
"636 673 OFFCURVE",
"670 668 CURVE",
"564 143 LINE SMOOTH",
"546 61 OFFCURVE",
"495 33 OFFCURVE",
"434 33 CURVE SMOOTH",
"392 33 OFFCURVE",
"356 46 OFFCURVE",
"332 63 CURVE",
"313 39 LINE",
"343 8 OFFCURVE",
"390 -10 OFFCURVE",
"450 -10 CURVE SMOOTH"
);
},
{
closed = 1;
nodes = (
"248 0 LINE",
"250 11 LINE",
"227 19 OFFCURVE",
"199 26 OFFCURVE",
"175 30 CURVE",
"305 669 LINE",
"334 673 OFFCURVE",
"363 679 OFFCURVE",
"388 687 CURVE",
"390 700 LINE",
"145 700 LINE",
"143 688 LINE",
"165 680 OFFCURVE",
"193 673 OFFCURVE",
"217 669 CURVE",
"86 30 LINE",
"59 26 OFFCURVE",
"30 19 OFFCURVE",
"5 12 CURVE",
"3 0 LINE"
);
}
);
width = 778;
}
);
note = IJ;
rightKerningGroup = J;
unicode = 0132;
},
{
glyphname = Iacute;
lastChange = "2015-10-27 08:20:55 +0000";
layers = (
{
layerId = "6452E246-BF19-4A01-B77D-5979BB06C1CE";
name = "Regular Italic";
paths = (
{
closed = 1;
nodes = (
"248 0 LINE",
"250 11 LINE",
"227 19 OFFCURVE",
"199 26 OFFCURVE",
"175 30 CURVE",
"305 669 LINE",
"334 673 OFFCURVE",
"363 679 OFFCURVE",
"388 687 CURVE",
"390 700 LINE",
"145 700 LINE",
"143 688 LINE",
"165 680 OFFCURVE",
"193 673 OFFCURVE",
"217 669 CURVE",
"86 30 LINE",
"59 26 OFFCURVE",
"30 19 OFFCURVE",
"5 12 CURVE",
"3 0 LINE"
);
},
{
closed = 1;
nodes = (
"360 868 LINE SMOOTH",
"383 881 OFFCURVE",
"396 895 OFFCURVE",
"399 911 CURVE",
"402 924 OFFCURVE",
"396 938 OFFCURVE",
"375 938 CURVE SMOOTH",
"354 938 OFFCURVE",
"336 922 OFFCURVE",
"327 915 CURVE SMOOTH",
"197 809 LINE",
"207 786 LINE"
);
}
);
width = 327;
}
);
note = Iacute;
unicode = 00CD;
},
{
glyphname = Ibreve;
lastChange = "2015-10-27 08:20:57 +0000";
layers = (
{
layerId = "6452E246-BF19-4A01-B77D-5979BB06C1CE";
name = "Regular Italic";
paths = (
{
closed = 1;
nodes = (
"248 0 LINE",
"250 11 LINE",
"227 19 OFFCURVE",
"199 26 OFFCURVE",
"175 30 CURVE",
"305 669 LINE",
"334 673 OFFCURVE",
"363 679 OFFCURVE",
"388 687 CURVE",
"390 700 LINE",
"145 700 LINE",
"143 688 LINE",
"165 680 OFFCURVE",
"193 673 OFFCURVE",
"217 669 CURVE",
"86 30 LINE",
"59 26 OFFCURVE",
"30 19 OFFCURVE",
"5 12 CURVE",
"3 0 LINE"
);
},
{
closed = 1;
nodes = (
"363 777 OFFCURVE",
"429 816 OFFCURVE",
"456 901 CURVE",
"402 901 LINE",
"379 825 OFFCURVE",
"329 814 OFFCURVE",
"290 814 CURVE SMOOTH",
"251 814 OFFCURVE",
"204 825 OFFCURVE",
"211 901 CURVE",
"158 901 LINE",
"152 816 OFFCURVE",
"201 777 OFFCURVE",
"282 777 CURVE SMOOTH"
);
}
);
width = 327;
}
);
note = Ibreve;
unicode = 012C;
},
{
glyphname = Icaron;
lastChange = "2015-10-27 08:20:56 +0000";
layers = (
{
layerId = "6452E246-BF19-4A01-B77D-5979BB06C1CE";
name = "Regular Italic";
paths = (
{
closed = 1;
nodes = (
"248 0 LINE",
"250 11 LINE",
"227 19 OFFCURVE",
"199 26 OFFCURVE",
"175 30 CURVE",
"305 669 LINE",
"334 673 OFFCURVE",
"363 679 OFFCURVE",
"388 687 CURVE",
"390 700 LINE",
"145 700 LINE",
"143 688 LINE",
"165 680 OFFCURVE",
"193 673 OFFCURVE",
"217 669 CURVE",
"86 30 LINE",
"59 26 OFFCURVE",
"30 19 OFFCURVE",
"5 12 CURVE",
"3 0 LINE"
);
},
{
closed = 1;
nodes = (
"304 786 LINE",
"340 827 OFFCURVE",
"410 882 OFFCURVE",
"455 909 CURVE",
"425 941 LINE",
"383 913 OFFCURVE",
"327 868 OFFCURVE",
"295 832 CURVE",
"290 832 LINE",
"273 868 OFFCURVE",
"235 913 OFFCURVE",
"204 941 CURVE",
"163 909 LINE",
"195 882 OFFCURVE",
"243 827 OFFCURVE",
"263 786 CURVE"
);
}
);
width = 327;
}
);
note = Icaron;
unicode = 01CF;
},
{
glyphname = Icircumflex;
lastChange = "2015-10-27 08:20:57 +0000";
layers = (
{
layerId = "6452E246-BF19-4A01-B77D-5979BB06C1CE";
name = "Regular Italic";
paths = (
{
closed = 1;
nodes = (
"248 0 LINE",
"250 11 LINE",
"227 19 OFFCURVE",
"199 26 OFFCURVE",
"175 30 CURVE",
"305 669 LINE",
"334 673 OFFCURVE",
"363 679 OFFCURVE",
"388 687 CURVE",
"390 700 LINE",
"145 700 LINE",
"143 688 LINE",
"165 680 OFFCURVE",
"193 673 OFFCURVE",
"217 669 CURVE",
"86 30 LINE",
"59 26 OFFCURVE",
"30 19 OFFCURVE",
"5 12 CURVE",
"3 0 LINE"
);
},
{
closed = 1;
nodes = (
"213 808 OFFCURVE",
"270 853 OFFCURVE",
"302 889 CURVE",
"307 889 LINE",
"324 853 OFFCURVE",
"361 808 OFFCURVE",
"392 780 CURVE",
"435 812 LINE",
"401 839 OFFCURVE",
"354 894 OFFCURVE",
"334 934 CURVE",
"293 934 LINE",
"257 894 OFFCURVE",
"186 839 OFFCURVE",
"143 812 CURVE",
"171 780 LINE"
);
}
);
width = 327;
}
);
note = Icircumflex;
unicode = 00CE;
},
{
glyphname = Idieresis;
lastChange = "2015-10-27 08:20:56 +0000";
layers = (
{
layerId = "6452E246-BF19-4A01-B77D-5979BB06C1CE";
name = "Regular Italic";
paths = (
{
closed = 1;
nodes = (
"248 0 LINE",
"250 11 LINE",
"227 19 OFFCURVE",
"199 26 OFFCURVE",
"175 30 CURVE",
"305 669 LINE",
"334 673 OFFCURVE",
"363 679 OFFCURVE",
"388 687 CURVE",
"390 700 LINE",
"145 700 LINE",
"143 688 LINE",
"165 680 OFFCURVE",
"193 673 OFFCURVE",
"217 669 CURVE",
"86 30 LINE",
"59 26 OFFCURVE",
"30 19 OFFCURVE",
"5 12 CURVE",
"3 0 LINE"
);
},
{
closed = 1;
nodes = (
"203 785 OFFCURVE",
"224 804 OFFCURVE",
"229 830 CURVE SMOOTH",
"235 858 OFFCURVE",
"222 877 OFFCURVE",
"196 877 CURVE SMOOTH",
"171 877 OFFCURVE",
"151 858 OFFCURVE",
"145 830 CURVE SMOOTH",
"139 804 OFFCURVE",
"153 785 OFFCURVE",
"177 785 CURVE SMOOTH"
);
},
{
closed = 1;
nodes = (
"414 785 OFFCURVE",
"435 804 OFFCURVE",
"441 830 CURVE SMOOTH",
"446 858 OFFCURVE",
"433 877 OFFCURVE",
"407 877 CURVE SMOOTH",
"381 877 OFFCURVE",
"361 858 OFFCURVE",
"355 830 CURVE SMOOTH",
"349 804 OFFCURVE",
"362 785 OFFCURVE",
"388 785 CURVE SMOOTH"
);
}
);
width = 327;
}
);
note = Idieresis;
unicode = 00CF;
},
{
glyphname = Idotaccent;
lastChange = "2015-10-27 08:20:58 +0000";
layers = (
{
layerId = "6452E246-BF19-4A01-B77D-5979BB06C1CE";
name = "Regular Italic";
paths = (
{
closed = 1;
nodes = (
"248 0 LINE",
"250 11 LINE",
"227 19 OFFCURVE",
"199 26 OFFCURVE",
"175 30 CURVE",
"305 669 LINE",
"334 673 OFFCURVE",
"363 679 OFFCURVE",
"388 687 CURVE",
"390 700 LINE",
"145 700 LINE",
"143 688 LINE",
"165 680 OFFCURVE",
"193 673 OFFCURVE",
"217 669 CURVE",
"86 30 LINE",
"59 26 OFFCURVE",
"30 19 OFFCURVE",
"5 12 CURVE",
"3 0 LINE"
);
},
{
closed = 1;
nodes = (
"307 785 OFFCURVE",
"328 804 OFFCURVE",
"334 830 CURVE SMOOTH",
"340 858 OFFCURVE",
"326 877 OFFCURVE",
"301 877 CURVE SMOOTH",
"275 877 OFFCURVE",
"254 858 OFFCURVE",
"249 830 CURVE SMOOTH",
"243 804 OFFCURVE",
"255 785 OFFCURVE",
"282 785 CURVE SMOOTH"
);
}
);
width = 327;
}
);
note = Idotaccent;
unicode = 0130;
},
{
glyphname = Idotbelow;
lastChange = "2015-10-27 08:20:56 +0000";
layers = (
{
layerId = "6452E246-BF19-4A01-B77D-5979BB06C1CE";
name = "Regular Italic";
paths = (
{
closed = 1;
nodes = (
"248 0 LINE",
"250 11 LINE",
"227 19 OFFCURVE",
"199 26 OFFCURVE",
"175 30 CURVE",
"305 669 LINE",
"334 673 OFFCURVE",
"363 679 OFFCURVE",
"388 687 CURVE",
"390 700 LINE",
"145 700 LINE",
"143 688 LINE",
"165 680 OFFCURVE",
"193 673 OFFCURVE",
"217 669 CURVE",
"86 30 LINE",
"59 26 OFFCURVE",
"30 19 OFFCURVE",
"5 12 CURVE",
"3 0 LINE"
);
},
{
closed = 1;
nodes = (
"119 -151 OFFCURVE",
"140 -132 OFFCURVE",
"146 -106 CURVE SMOOTH",
"152 -78 OFFCURVE",
"138 -59 OFFCURVE",
"112 -59 CURVE SMOOTH",
"86 -59 OFFCURVE",
"65 -78 OFFCURVE",
"60 -106 CURVE SMOOTH",
"54 -132 OFFCURVE",
"67 -151 OFFCURVE",
"93 -151 CURVE SMOOTH"
);
}
);
width = 327;
}
);
note = Idotbelow;
unicode = 1ECA;
},
{
glyphname = Igrave;
lastChange = "2015-10-27 08:20:57 +0000";
layers = (
{
layerId = "6452E246-BF19-4A01-B77D-5979BB06C1CE";
name = "Regular Italic";
paths = (
{
closed = 1;
nodes = (
"248 0 LINE",
"250 11 LINE",
"227 19 OFFCURVE",
"199 26 OFFCURVE",
"175 30 CURVE",
"305 669 LINE",
"334 673 OFFCURVE",
"363 679 OFFCURVE",
"388 687 CURVE",
"390 700 LINE",
"145 700 LINE",
"143 688 LINE",
"165 680 OFFCURVE",
"193 673 OFFCURVE",
"217 669 CURVE",
"86 30 LINE",
"59 26 OFFCURVE",
"30 19 OFFCURVE",
"5 12 CURVE",
"3 0 LINE"
);
},
{
closed = 1;
nodes = (
"381 809 LINE",
"291 916 LINE",
"285 924 OFFCURVE",
"274 938 OFFCURVE",
"253 938 CURVE SMOOTH",
"233 938 OFFCURVE",
"220 924 OFFCURVE",
"217 911 CURVE",
"214 895 OFFCURVE",
"223 881 OFFCURVE",
"241 868 CURVE SMOOTH",
"361 786 LINE"
);
}
);
width = 327;
}
);
note = Igrave;
unicode = 00CC;
},
{
glyphname = Ihookabove;
lastChange = "2015-10-27 08:20:58 +0000";
layers = (
{
layerId = "6452E246-BF19-4A01-B77D-5979BB06C1CE";
name = "Regular Italic";
paths = (
{
closed = 1;
nodes = (
"248 0 LINE",
"250 11 LINE",
"227 19 OFFCURVE",
"199 26 OFFCURVE",
"175 30 CURVE",
"305 669 LINE",
"334 673 OFFCURVE",
"363 679 OFFCURVE",
"388 687 CURVE",
"390 700 LINE",
"145 700 LINE",
"143 688 LINE",
"165 680 OFFCURVE",
"193 673 OFFCURVE",
"217 669 CURVE",
"86 30 LINE",
"59 26 OFFCURVE",
"30 19 OFFCURVE",
"5 12 CURVE",
"3 0 LINE"
);
},
{
closed = 1;
nodes = (
"306 779 LINE",
"329 843 LINE",
"380 848 OFFCURVE",
"416 872 OFFCURVE",
"425 919 CURVE SMOOTH",
"436 975 OFFCURVE",
"396 998 OFFCURVE",
"348 998 CURVE SMOOTH",
"319 998 OFFCURVE",
"289 990 OFFCURVE",
"270 981 CURVE",
"271 951 LINE",
"292 962 OFFCURVE",
"313 967 OFFCURVE",
"329 967 CURVE SMOOTH",
"367 967 OFFCURVE",
"381 946 OFFCURVE",
"376 921 CURVE SMOOTH",
"371 890 OFFCURVE",
"344 869 OFFCURVE",
"305 869 CURVE SMOOTH",
"282 869 LINE",
"269 779 LINE"
);
}
);
width = 327;
}
);
note = Ihookabove;
unicode = 1EC8;
},
{
glyphname = Imacron;
lastChange = "2015-10-27 08:20:56 +0000";
layers = (
{
layerId = "6452E246-BF19-4A01-B77D-5979BB06C1CE";
name = "Regular Italic";
paths = (
{
closed = 1;
nodes = (
"248 0 LINE",
"250 11 LINE",
"227 19 OFFCURVE",
"199 26 OFFCURVE",
"175 30 CURVE",
"305 669 LINE",
"334 673 OFFCURVE",
"363 679 OFFCURVE",
"388 687 CURVE",
"390 700 LINE",
"145 700 LINE",
"143 688 LINE",
"165 680 OFFCURVE",
"193 673 OFFCURVE",
"217 669 CURVE",
"86 30 LINE",
"59 26 OFFCURVE",
"30 19 OFFCURVE",
"5 12 CURVE",
"3 0 LINE"
);
},
{
closed = 1;
nodes = (
"454 785 LINE",
"462 820 LINE",
"123 820 LINE",
"115 785 LINE"
);
}
);
width = 327;
}
);
note = Imacron;
unicode = 012A;
},
{
glyphname = Iogonek;
lastChange = "2015-10-27 08:20:57 +0000";
layers = (
{
layerId = "6452E246-BF19-4A01-B77D-5979BB06C1CE";
name = "Regular Italic";
paths = (
{
closed = 1;
nodes = (
"248 0 LINE",
"250 11 LINE",
"227 19 OFFCURVE",
"199 26 OFFCURVE",
"175 30 CURVE",
"305 669 LINE",
"334 673 OFFCURVE",
"363 679 OFFCURVE",
"388 687 CURVE",
"390 700 LINE",
"145 700 LINE",
"143 688 LINE",
"165 680 OFFCURVE",
"193 673 OFFCURVE",
"217 669 CURVE",
"86 30 LINE",
"59 26 OFFCURVE",
"30 19 OFFCURVE",
"5 12 CURVE",
"3 0 LINE"
);
},
{
closed = 1;
nodes = (
"188 -187 OFFCURVE",
"215 -181 OFFCURVE",
"240 -170 CURVE",
"249 -129 LINE",
"228 -139 OFFCURVE",
"209 -143 OFFCURVE",
"194 -143 CURVE SMOOTH",
"161 -143 OFFCURVE",
"139 -126 OFFCURVE",
"146 -92 CURVE SMOOTH",
"154 -56 OFFCURVE",
"188 -20 OFFCURVE",
"225 0 CURVE",
"177 0 LINE",
"123 -20 OFFCURVE",
"84 -63 OFFCURVE",
"76 -107 CURVE SMOOTH",
"67 -149 OFFCURVE",
"93 -187 OFFCURVE",
"157 -187 CURVE SMOOTH"
);
}
);
width = 327;
}
);
note = Iogonek;
unicode = 012E;
},
{
glyphname = Itilde;
lastChange = "2015-10-27 08:20:56 +0000";
layers = (
{
layerId = "6452E246-BF19-4A01-B77D-5979BB06C1CE";
name = "Regular Italic";
paths = (
{
closed = 1;
nodes = (
"248 0 LINE",
"250 11 LINE",
"227 19 OFFCURVE",
"199 26 OFFCURVE",
"175 30 CURVE",
"305 669 LINE",
"334 673 OFFCURVE",
"363 679 OFFCURVE",
"388 687 CURVE",
"390 700 LINE",
"145 700 LINE",
"143 688 LINE",
"165 680 OFFCURVE",
"193 673 OFFCURVE",
"217 669 CURVE",
"86 30 LINE",
"59 26 OFFCURVE",
"30 19 OFFCURVE",
"5 12 CURVE",
"3 0 LINE"
);
},
{
closed = 1;
nodes = (
"153 786 LINE",
"167 821 OFFCURVE",
"195 843 OFFCURVE",
"225 843 CURVE SMOOTH",
"263 843 OFFCURVE",
"305 787 OFFCURVE",
"353 787 CURVE SMOOTH",
"410 787 OFFCURVE",
"448 828 OFFCURVE",
"468 891 CURVE",
"439 891 LINE",
"420 848 OFFCURVE",
"392 831 OFFCURVE",
"364 831 CURVE SMOOTH",
"324 831 OFFCURVE",
"291 886 OFFCURVE",
"235 886 CURVE SMOOTH",
"185 886 OFFCURVE",
"144 855 OFFCURVE",
"121 786 CURVE"
);
}
);
width = 327;
}
);
note = Itilde;
unicode = 0128;
},
{
glyphname = J;
lastChange = "2015-10-27 08:28:09 +0000";
layers = (
{
layerId = "6452E246-BF19-4A01-B77D-5979BB06C1CE";
name = "Regular Italic";
paths = (
{
closed = 1;
nodes = (
"228 -10 OFFCURVE",
"308 41 OFFCURVE",
"329 143 CURVE SMOOTH",
"436 668 LINE",
"467 671 OFFCURVE",
"493 679 OFFCURVE",
"516 687 CURVE",
"518 700 LINE",
"277 700 LINE",
"275 686 LINE",
"294 679 OFFCURVE",
"313 673 OFFCURVE",
"347 668 CURVE",
"240 143 LINE SMOOTH",
"223 61 OFFCURVE",
"172 33 OFFCURVE",
"110 33 CURVE SMOOTH",
"68 33 OFFCURVE",
"33 46 OFFCURVE",
"9 63 CURVE",
"-11 39 LINE",
"19 8 OFFCURVE",
"66 -10 OFFCURVE",
"127 -10 CURVE SMOOTH"
);
}
);
width = 454;
}
);
leftKerningGroup = J;
note = J;
rightKerningGroup = J;
unicode = 004A;
},
{
glyphname = Jcircumflex;
lastChange = "2015-10-27 08:20:58 +0000";
layers = (
{
layerId = "6452E246-BF19-4A01-B77D-5979BB06C1CE";
name = "Regular Italic";
paths = (
{
closed = 1;
nodes = (
"228 -10 OFFCURVE",
"308 41 OFFCURVE",
"329 143 CURVE SMOOTH",
"436 668 LINE",
"467 671 OFFCURVE",
"493 679 OFFCURVE",
"516 687 CURVE",
"518 700 LINE",
"277 700 LINE",
"275 686 LINE",
"294 679 OFFCURVE",
"313 673 OFFCURVE",
"347 668 CURVE",
"240 143 LINE SMOOTH",
"223 61 OFFCURVE",
"172 33 OFFCURVE",
"110 33 CURVE SMOOTH",
"68 33 OFFCURVE",
"33 46 OFFCURVE",
"9 63 CURVE",
"-11 39 LINE",
"19 8 OFFCURVE",
"66 -10 OFFCURVE",
"127 -10 CURVE SMOOTH"
);
},
{
closed = 1;
nodes = (
"345 808 OFFCURVE",
"401 853 OFFCURVE",
"434 889 CURVE",
"439 889 LINE",
"456 853 OFFCURVE",
"492 808 OFFCURVE",
"523 780 CURVE",
"566 812 LINE",
"533 839 OFFCURVE",
"486 894 OFFCURVE",
"466 934 CURVE",
"424 934 LINE",
"389 894 OFFCURVE",
"318 839 OFFCURVE",
"275 812 CURVE",
"302 780 LINE"
);
}
);
width = 454;
}
);
leftKerningGroup = J;
note = Jcircumflex;
rightKerningGroup = J;
unicode = 0134;
},
{
glyphname = K;
lastChange = "2015-10-27 08:20:56 +0000";
layers = (
{
layerId = "6452E246-BF19-4A01-B77D-5979BB06C1CE";
name = "Regular Italic";
paths = (
{
closed = 1;
nodes = (
"244 0 LINE",
"246 11 LINE",
"224 19 OFFCURVE",
"197 26 OFFCURVE",
"172 30 CURVE",
"220 265 LINE",
"312 351 LINE",
"505 0 LINE",
"659 0 LINE",
"660 11 LINE",
"634 20 OFFCURVE",
"605 26 OFFCURVE",
"585 30 CURVE",
"376 409 LINE",
"654 662 LINE SMOOTH",
"675 681 OFFCURVE",
"703 679 OFFCURVE",
"724 684 CURVE",
"727 700 LINE",
"534 700 LINE",
"531 684 LINE",
"550 683 OFFCURVE",
"600 678 OFFCURVE",
"597 665 CURVE SMOOTH",
"596 661 OFFCURVE",
"590 656 OFFCURVE",
"589 655 CURVE",
"232 326 LINE",
"302 669 LINE",
"330 673 OFFCURVE",
"358 679 OFFCURVE",
"384 687 CURVE",
"386 700 LINE",
"142 700 LINE",
"140 688 LINE",
"162 679 OFFCURVE",
"189 673 OFFCURVE",
"213 669 CURVE",
"83 30 LINE",
"65 28 OFFCURVE",
"28 20 OFFCURVE",
"2 12 CURVE",
"0 0 LINE"
);
}
);
width = 707;
}
);
note = K;
rightKerningGroup = K;
unicode = 004B;
},
{
glyphname = Kcommaaccent;
lastChange = "2015-10-27 08:20:57 +0000";
layers = (
{
layerId = "6452E246-BF19-4A01-B77D-5979BB06C1CE";
name = "Regular Italic";
paths = (
{
closed = 1;
nodes = (
"244 0 LINE",
"246 11 LINE",
"224 19 OFFCURVE",
"197 26 OFFCURVE",
"172 30 CURVE",
"220 265 LINE",
"312 351 LINE",
"505 0 LINE",
"659 0 LINE",
"660 11 LINE",
"634 20 OFFCURVE",
"605 26 OFFCURVE",
"585 30 CURVE",
"376 409 LINE",
"654 662 LINE SMOOTH",
"675 681 OFFCURVE",
"703 679 OFFCURVE",
"724 684 CURVE",
"727 700 LINE",
"534 700 LINE",
"531 684 LINE",
"550 683 OFFCURVE",
"600 678 OFFCURVE",
"597 665 CURVE SMOOTH",
"596 661 OFFCURVE",
"590 656 OFFCURVE",
"589 655 CURVE",
"232 326 LINE",
"302 669 LINE",
"330 673 OFFCURVE",
"358 679 OFFCURVE",
"384 687 CURVE",
"386 700 LINE",
"142 700 LINE",
"140 688 LINE",
"162 679 OFFCURVE",
"189 673 OFFCURVE",
"213 669 CURVE",
"83 30 LINE",
"65 28 OFFCURVE",
"28 20 OFFCURVE",
"2 12 CURVE",
"0 0 LINE"
);
},
{
closed = 1;
nodes = (
"309 -263 OFFCURVE",
"352 -190 OFFCURVE",
"364 -135 CURVE SMOOTH",
"372 -98 OFFCURVE",
"361 -69 OFFCURVE",
"320 -69 CURVE SMOOTH",
"293 -69 OFFCURVE",
"264 -86 OFFCURVE",
"257 -118 CURVE SMOOTH",
"252 -145 OFFCURVE",
"265 -162 OFFCURVE",
"286 -166 CURVE SMOOTH",
"292 -167 OFFCURVE",
"298 -167 OFFCURVE",
"304 -166 CURVE",
"293 -207 OFFCURVE",
"265 -249 OFFCURVE",
"235 -277 CURVE",
"260 -302 LINE"
);
}
);
width = 707;
}
);
note = Kcommaaccent;
rightKerningGroup = K;
unicode = 0136;
},
{
glyphname = L;
lastChange = "2015-10-27 08:20:56 +0000";
layers = (
{
layerId = "6452E246-BF19-4A01-B77D-5979BB06C1CE";
name = "Regular Italic";
paths = (
{
closed = 1;
nodes = (
"483 0 LINE",
"525 144 LINE",
"505 144 LINE",
"489 125 OFFCURVE",
"454 65 OFFCURVE",
"446 35 CURVE",
"177 35 LINE",
"306 669 LINE",
"333 673 OFFCURVE",
"361 679 OFFCURVE",
"387 687 CURVE",
"389 700 LINE",
"145 700 LINE",
"143 688 LINE",
"166 679 OFFCURVE",
"192 673 OFFCURVE",
"217 669 CURVE",
"86 30 LINE",
"52 26 OFFCURVE",
"25 19 OFFCURVE",
"2 12 CURVE",
"0 0 LINE"
);
}
);
width = 575;
}
);
note = L;
rightKerningGroup = L;
unicode = 004C;
},
{
glyphname = Lacute;
lastChange = "2015-10-27 08:20:58 +0000";
layers = (
{
layerId = "6452E246-BF19-4A01-B77D-5979BB06C1CE";
name = "Regular Italic";
paths = (
{
closed = 1;
nodes = (
"483 0 LINE",
"525 144 LINE",
"505 144 LINE",
"489 125 OFFCURVE",
"454 65 OFFCURVE",
"446 35 CURVE",
"177 35 LINE",
"306 669 LINE",
"333 673 OFFCURVE",
"361 679 OFFCURVE",
"387 687 CURVE",
"389 700 LINE",
"145 700 LINE",
"143 688 LINE",
"166 679 OFFCURVE",
"192 673 OFFCURVE",
"217 669 CURVE",
"86 30 LINE",
"52 26 OFFCURVE",
"25 19 OFFCURVE",
"2 12 CURVE",
"0 0 LINE"
);
},
{
closed = 1;
nodes = (
"406 868 LINE SMOOTH",
"429 881 OFFCURVE",
"443 895 OFFCURVE",
"445 911 CURVE",
"448 924 OFFCURVE",
"442 938 OFFCURVE",
"421 938 CURVE SMOOTH",
"400 938 OFFCURVE",
"382 922 OFFCURVE",
"373 915 CURVE SMOOTH",
"243 809 LINE",
"253 786 LINE"
);
}
);
width = 575;
}
);
note = Lacute;
rightKerningGroup = L;
unicode = 0139;
},
{
glyphname = Lcaron;
lastChange = "2015-10-27 08:20:56 +0000";
layers = (
{
layerId = "6452E246-BF19-4A01-B77D-5979BB06C1CE";
name = "Regular Italic";
paths = (
{
closed = 1;
nodes = (
"483 0 LINE",
"525 144 LINE",
"505 144 LINE",
"489 125 OFFCURVE",
"454 65 OFFCURVE",
"446 35 CURVE",
"177 35 LINE",
"306 669 LINE",
"333 673 OFFCURVE",
"361 679 OFFCURVE",
"387 687 CURVE",
"389 700 LINE",
"145 700 LINE",
"143 688 LINE",
"166 679 OFFCURVE",
"192 673 OFFCURVE",
"217 669 CURVE",
"86 30 LINE",
"52 26 OFFCURVE",
"25 19 OFFCURVE",
"2 12 CURVE",
"0 0 LINE"
);
},
{
closed = 1;
nodes = (
"526 511 OFFCURVE",
"572 584 OFFCURVE",
"583 639 CURVE SMOOTH",
"590 676 OFFCURVE",
"583 710 OFFCURVE",
"538 710 CURVE SMOOTH",
"503 710 OFFCURVE",
"480 686 OFFCURVE",
"474 656 CURVE SMOOTH",
"467 620 OFFCURVE",
"491 606 OFFCURVE",
"513 606 CURVE SMOOTH",
"516 606 OFFCURVE",
"520 607 OFFCURVE",
"523 607 CURVE",
"511 566 OFFCURVE",
"481 524 OFFCURVE",
"452 496 CURVE",
"478 471 LINE"
);
}
);
width = 575;
}
);
note = Lcaron;
rightKerningGroup = L;
unicode = 013D;
},
{
glyphname = Lcommaaccent;
lastChange = "2015-10-27 08:20:58 +0000";
layers = (
{
layerId = "6452E246-BF19-4A01-B77D-5979BB06C1CE";
name = "Regular Italic";
paths = (
{
closed = 1;
nodes = (
"483 0 LINE",
"525 144 LINE",
"505 144 LINE",
"489 125 OFFCURVE",
"454 65 OFFCURVE",
"446 35 CURVE",
"177 35 LINE",
"306 669 LINE",
"333 673 OFFCURVE",
"361 679 OFFCURVE",
"387 687 CURVE",
"389 700 LINE",
"145 700 LINE",
"143 688 LINE",
"166 679 OFFCURVE",
"192 673 OFFCURVE",
"217 669 CURVE",
"86 30 LINE",
"52 26 OFFCURVE",
"25 19 OFFCURVE",
"2 12 CURVE",
"0 0 LINE"
);
},
{
closed = 1;
nodes = (
"240 -263 OFFCURVE",
"283 -190 OFFCURVE",
"295 -135 CURVE SMOOTH",
"302 -98 OFFCURVE",
"292 -69 OFFCURVE",
"251 -69 CURVE SMOOTH",
"224 -69 OFFCURVE",
"195 -86 OFFCURVE",
"188 -118 CURVE SMOOTH",
"183 -145 OFFCURVE",
"196 -162 OFFCURVE",
"217 -166 CURVE SMOOTH",
"223 -167 OFFCURVE",
"228 -167 OFFCURVE",
"235 -166 CURVE",
"224 -207 OFFCURVE",
"196 -249 OFFCURVE",
"166 -277 CURVE",
"191 -302 LINE"
);
}
);
width = 575;
}
);
note = Lcommaaccent;
rightKerningGroup = L;
unicode = 013B;
},
{
glyphname = Ldot;
lastChange = "2015-10-27 08:20:56 +0000";
layers = (
{
layerId = "6452E246-BF19-4A01-B77D-5979BB06C1CE";
name = "Regular Italic";
paths = (
{
closed = 1;
nodes = (
"483 0 LINE",
"525 144 LINE",
"505 144 LINE",
"489 125 OFFCURVE",
"454 65 OFFCURVE",
"446 35 CURVE",
"177 35 LINE",
"306 669 LINE",
"333 673 OFFCURVE",
"361 679 OFFCURVE",
"387 687 CURVE",
"389 700 LINE",
"145 700 LINE",
"143 688 LINE",
"166 679 OFFCURVE",
"192 673 OFFCURVE",
"217 669 CURVE",
"86 30 LINE",
"52 26 OFFCURVE",
"25 19 OFFCURVE",
"2 12 CURVE",
"0 0 LINE"
);
},
{
closed = 1;
nodes = (
"436 331 OFFCURVE",
"457 349 OFFCURVE",
"463 377 CURVE SMOOTH",
"468 403 OFFCURVE",
"454 422 OFFCURVE",
"428 422 CURVE SMOOTH",
"402 422 OFFCURVE",
"381 403 OFFCURVE",
"376 377 CURVE SMOOTH",
"371 349 OFFCURVE",
"384 331 OFFCURVE",
"410 331 CURVE SMOOTH"
);
}
);
width = 575;
}
);
note = Ldot;
rightKerningGroup = L;
unicode = 013F;
},
{
glyphname = Ldotbelow;
lastChange = "2015-10-27 08:20:56 +0000";
layers = (
{
layerId = "6452E246-BF19-4A01-B77D-5979BB06C1CE";
name = "Regular Italic";
paths = (
{
closed = 1;
nodes = (
"483 0 LINE",
"525 144 LINE",
"505 144 LINE",
"489 125 OFFCURVE",
"454 65 OFFCURVE",
"446 35 CURVE",
"177 35 LINE",
"306 669 LINE",
"333 673 OFFCURVE",
"361 679 OFFCURVE",
"387 687 CURVE",
"389 700 LINE",
"145 700 LINE",
"143 688 LINE",
"166 679 OFFCURVE",
"192 673 OFFCURVE",
"217 669 CURVE",
"86 30 LINE",
"52 26 OFFCURVE",
"25 19 OFFCURVE",
"2 12 CURVE",
"0 0 LINE"
);
},
{
closed = 1;
nodes = (
"269 -144 OFFCURVE",
"290 -126 OFFCURVE",
"296 -98 CURVE SMOOTH",
"300 -72 OFFCURVE",
"287 -53 OFFCURVE",
"262 -53 CURVE SMOOTH",
"235 -53 OFFCURVE",
"215 -72 OFFCURVE",
"210 -98 CURVE SMOOTH",
"204 -126 OFFCURVE",
"217 -144 OFFCURVE",
"244 -144 CURVE SMOOTH"
);
}
);
width = 575;
}
);
note = Ldotbelow;
rightKerningGroup = L;
unicode = 1E36;
},
{
glyphname = Ldotbelowmacron;
lastChange = "2015-10-27 08:20:56 +0000";
layers = (
{
layerId = "6452E246-BF19-4A01-B77D-5979BB06C1CE";
name = "Regular Italic";
paths = (
{
closed = 1;
nodes = (
"483 0 LINE",
"525 144 LINE",
"505 144 LINE",
"489 125 OFFCURVE",
"454 65 OFFCURVE",
"446 35 CURVE",
"177 35 LINE",
"306 669 LINE",
"333 673 OFFCURVE",
"361 679 OFFCURVE",
"387 687 CURVE",
"389 700 LINE",
"145 700 LINE",
"143 688 LINE",
"166 679 OFFCURVE",
"192 673 OFFCURVE",
"217 669 CURVE",
"86 30 LINE",
"52 26 OFFCURVE",
"25 19 OFFCURVE",
"2 12 CURVE",
"0 0 LINE"
);
},
{
closed = 1;
nodes = (
"268 -144 OFFCURVE",
"289 -126 OFFCURVE",
"295 -98 CURVE SMOOTH",
"300 -72 OFFCURVE",
"286 -53 OFFCURVE",
"260 -53 CURVE SMOOTH",
"235 -53 OFFCURVE",
"214 -72 OFFCURVE",
"209 -98 CURVE SMOOTH",
"204 -126 OFFCURVE",
"217 -144 OFFCURVE",
"242 -144 CURVE SMOOTH"
);
},
{
closed = 1;
nodes = (
"444 785 LINE",
"451 819 LINE",
"132 819 LINE",
"124 785 LINE"
);
}
);
width = 575;
}
);
note = Ldotbelowmacron;
rightKerningGroup = L;
unicode = 1E38;
},
{
glyphname = Llinebelow;
lastChange = "2015-10-27 08:20:58 +0000";
layers = (
{
layerId = "6452E246-BF19-4A01-B77D-5979BB06C1CE";
name = "Regular Italic";
paths = (
{
closed = 1;
nodes = (
"483 0 LINE",
"525 144 LINE",
"505 144 LINE",
"489 125 OFFCURVE",
"454 65 OFFCURVE",
"446 35 CURVE",
"177 35 LINE",
"306 669 LINE",
"333 673 OFFCURVE",
"361 679 OFFCURVE",
"387 687 CURVE",
"389 700 LINE",
"145 700 LINE",
"143 688 LINE",
"166 679 OFFCURVE",
"192 673 OFFCURVE",
"217 669 CURVE",
"86 30 LINE",
"52 26 OFFCURVE",
"25 19 OFFCURVE",
"2 12 CURVE",
"0 0 LINE"
);
},
{
closed = 1;
nodes = (
"394 -104 LINE",
"401 -69 LINE",
"83 -69 LINE",
"75 -104 LINE"
);
}
);
width = 575;
}
);
note = Llinebelow;
rightKerningGroup = L;
unicode = 1E3A;
},
{
glyphname = Lslash;
lastChange = "2015-10-27 08:20:57 +0000";
layers = (
{
layerId = "6452E246-BF19-4A01-B77D-5979BB06C1CE";
name = "Regular Italic";
paths = (
{
closed = 1;
nodes = (
"483 0 LINE",
"525 144 LINE",
"505 144 LINE",
"489 125 OFFCURVE",
"454 65 OFFCURVE",
"446 35 CURVE",
"177 35 LINE",
"306 669 LINE",
"333 673 OFFCURVE",
"361 679 OFFCURVE",
"387 687 CURVE",
"389 700 LINE",
"145 700 LINE",
"143 688 LINE",
"166 679 OFFCURVE",
"192 673 OFFCURVE",
"217 669 CURVE",
"86 30 LINE",
"52 26 OFFCURVE",
"25 19 OFFCURVE",
"2 12 CURVE",
"0 0 LINE"
);
},
{
closed = 1;
nodes = (
"448 382 LINE",
"458 430 LINE",
"56 290 LINE",
"46 242 LINE"
);
}
);
width = 575;
}
);
note = Lslash;
rightKerningGroup = L;
unicode = 0141;
},
{
glyphname = M;
lastChange = "2015-10-27 08:20:56 +0000";
layers = (
{
layerId = "6452E246-BF19-4A01-B77D-5979BB06C1CE";
name = "Regular Italic";
paths = (
{
closed = 1;
nodes = (
"198 0 LINE",
"200 11 LINE",
"177 19 OFFCURVE",
"152 25 OFFCURVE",
"127 30 CURVE",
"251 636 LINE",
"365 77 LINE",
"417 77 LINE",
"761 630 LINE",
"639 30 LINE",
"612 25 OFFCURVE",
"586 19 OFFCURVE",
"559 11 CURVE",
"557 0 LINE",
"800 0 LINE",
"802 11 LINE",
"779 19 OFFCURVE",
"753 25 OFFCURVE",
"729 29 CURVE",
"858 668 LINE",
"887 673 OFFCURVE",
"915 680 OFFCURVE",
"940 688 CURVE",
"942 700 LINE",
"764 700 LINE",
"426 156 LINE",
"322 700 LINE",
"142 700 LINE",
"140 688 LINE",
"162 679 OFFCURVE",
"189 673 OFFCURVE",
"213 669 CURVE",
"83 29 LINE",
"57 25 OFFCURVE",
"29 19 OFFCURVE",
"2 11 CURVE",
"0 0 LINE"
);
}
);
width = 876;
}
);
note = M;
unicode = 004D;
},
{
glyphname = Mdotbelow;
lastChange = "2015-10-27 08:20:58 +0000";
layers = (
{
layerId = "6452E246-BF19-4A01-B77D-5979BB06C1CE";
name = "Regular Italic";
paths = (
{
closed = 1;
nodes = (
"198 0 LINE",
"200 11 LINE",
"177 19 OFFCURVE",
"152 25 OFFCURVE",
"127 30 CURVE",
"251 636 LINE",
"365 77 LINE",
"417 77 LINE",
"761 630 LINE",
"639 30 LINE",
"612 25 OFFCURVE",
"586 19 OFFCURVE",
"559 11 CURVE",
"557 0 LINE",
"800 0 LINE",
"802 11 LINE",
"779 19 OFFCURVE",
"753 25 OFFCURVE",
"729 29 CURVE",
"858 668 LINE",
"887 673 OFFCURVE",
"915 680 OFFCURVE",
"940 688 CURVE",
"942 700 LINE",
"764 700 LINE",
"426 156 LINE",
"322 700 LINE",
"142 700 LINE",
"140 688 LINE",
"162 679 OFFCURVE",
"189 673 OFFCURVE",
"213 669 CURVE",
"83 29 LINE",
"57 25 OFFCURVE",
"29 19 OFFCURVE",
"2 11 CURVE",
"0 0 LINE"
);
},
{
closed = 1;
nodes = (
"394 -151 OFFCURVE",
"415 -132 OFFCURVE",
"420 -106 CURVE SMOOTH",
"426 -78 OFFCURVE",
"413 -59 OFFCURVE",
"387 -59 CURVE SMOOTH",
"361 -59 OFFCURVE",
"340 -78 OFFCURVE",
"334 -106 CURVE SMOOTH",
"328 -132 OFFCURVE",
"342 -151 OFFCURVE",
"368 -151 CURVE SMOOTH"
);
}
);
width = 876;
}
);
note = Mdotbelow;
unicode = 1E42;
},
{
glyphname = N;
lastChange = "2015-10-27 08:20:57 +0000";
layers = (
{
layerId = "6452E246-BF19-4A01-B77D-5979BB06C1CE";
name = "Regular Italic";
paths = (
{
closed = 1;
nodes = (
"198 0 LINE",
"200 11 LINE",
"177 19 OFFCURVE",
"152 25 OFFCURVE",
"127 30 CURVE",
"252 649 LINE",
"541 0 LINE",
"592 0 LINE",
"729 669 LINE",
"756 674 OFFCURVE",
"783 680 OFFCURVE",
"810 688 CURVE",
"812 700 LINE",
"614 700 LINE",
"612 688 LINE",
"636 680 OFFCURVE",
"660 674 OFFCURVE",
"685 670 CURVE",
"572 117 LINE",
"317 700 LINE",
"142 700 LINE",
"140 688 LINE",
"162 679 OFFCURVE",
"189 673 OFFCURVE",
"213 669 CURVE",
"83 29 LINE",
"57 25 OFFCURVE",
"29 19 OFFCURVE",
"2 11 CURVE",
"0 0 LINE"
);
}
);
width = 747;
}
);
note = N;
unicode = 004E;
},
{
glyphname = Nacute;
lastChange = "2015-10-27 08:20:58 +0000";
layers = (
{
layerId = "6452E246-BF19-4A01-B77D-5979BB06C1CE";
name = "Regular Italic";
paths = (
{
closed = 1;
nodes = (
"198 0 LINE",
"200 11 LINE",
"177 19 OFFCURVE",
"152 25 OFFCURVE",
"127 30 CURVE",
"252 649 LINE",
"541 0 LINE",
"592 0 LINE",
"729 669 LINE",
"756 674 OFFCURVE",
"783 680 OFFCURVE",
"810 688 CURVE",
"812 700 LINE",
"614 700 LINE",
"612 688 LINE",
"636 680 OFFCURVE",
"660 674 OFFCURVE",
"685 670 CURVE",
"572 117 LINE",
"317 700 LINE",
"142 700 LINE",
"140 688 LINE",
"162 679 OFFCURVE",
"189 673 OFFCURVE",
"213 669 CURVE",
"83 29 LINE",
"57 25 OFFCURVE",
"29 19 OFFCURVE",
"2 11 CURVE",
"0 0 LINE"
);
},
{
closed = 1;
nodes = (
"605 868 LINE SMOOTH",
"628 881 OFFCURVE",
"641 895 OFFCURVE",
"644 911 CURVE",
"647 924 OFFCURVE",
"640 938 OFFCURVE",
"620 938 CURVE SMOOTH",
"599 938 OFFCURVE",
"581 922 OFFCURVE",
"572 915 CURVE SMOOTH",
"442 809 LINE",
"452 786 LINE"
);
}
);
width = 747;
}
);
note = Nacute;
unicode = 0143;
},
{
glyphname = Ncaron;
lastChange = "2015-10-27 08:20:58 +0000";
layers = (
{
layerId = "6452E246-BF19-4A01-B77D-5979BB06C1CE";
name = "Regular Italic";
paths = (
{
closed = 1;
nodes = (
"198 0 LINE",
"200 11 LINE",
"177 19 OFFCURVE",
"152 25 OFFCURVE",
"127 30 CURVE",
"252 649 LINE",
"541 0 LINE",
"592 0 LINE",
"729 669 LINE",
"756 674 OFFCURVE",
"783 680 OFFCURVE",
"810 688 CURVE",
"812 700 LINE",
"614 700 LINE",
"612 688 LINE",
"636 680 OFFCURVE",
"660 674 OFFCURVE",
"685 670 CURVE",
"572 117 LINE",
"317 700 LINE",
"142 700 LINE",
"140 688 LINE",
"162 679 OFFCURVE",
"189 673 OFFCURVE",
"213 669 CURVE",
"83 29 LINE",
"57 25 OFFCURVE",
"29 19 OFFCURVE",
"2 11 CURVE",
"0 0 LINE"
);
},
{
closed = 1;
nodes = (
"514 786 LINE",
"549 827 OFFCURVE",
"619 882 OFFCURVE",
"664 909 CURVE",
"635 941 LINE",
"592 913 OFFCURVE",
"537 868 OFFCURVE",
"504 832 CURVE",
"499 832 LINE",
"482 868 OFFCURVE",
"444 913 OFFCURVE",
"414 941 CURVE",
"372 909 LINE",
"404 882 OFFCURVE",
"452 827 OFFCURVE",
"472 786 CURVE"
);
}
);
width = 747;
}
);
note = Ncaron;
unicode = 0147;
},
{
glyphname = Ncommaaccent;
lastChange = "2015-10-27 08:20:57 +0000";
layers = (
{
layerId = "6452E246-BF19-4A01-B77D-5979BB06C1CE";
name = "Regular Italic";
paths = (
{
closed = 1;
nodes = (
"198 0 LINE",
"200 11 LINE",
"177 19 OFFCURVE",
"152 25 OFFCURVE",
"127 30 CURVE",
"252 649 LINE",
"541 0 LINE",
"592 0 LINE",
"729 669 LINE",
"756 674 OFFCURVE",
"783 680 OFFCURVE",
"810 688 CURVE",
"812 700 LINE",
"614 700 LINE",
"612 688 LINE",
"636 680 OFFCURVE",
"660 674 OFFCURVE",
"685 670 CURVE",
"572 117 LINE",
"317 700 LINE",
"142 700 LINE",
"140 688 LINE",
"162 679 OFFCURVE",
"189 673 OFFCURVE",
"213 669 CURVE",
"83 29 LINE",
"57 25 OFFCURVE",
"29 19 OFFCURVE",
"2 11 CURVE",
"0 0 LINE"
);
},
{
closed = 1;
nodes = (
"309 -263 OFFCURVE",
"352 -190 OFFCURVE",
"364 -135 CURVE SMOOTH",
"372 -98 OFFCURVE",
"361 -69 OFFCURVE",
"320 -69 CURVE SMOOTH",
"293 -69 OFFCURVE",
"264 -86 OFFCURVE",
"257 -118 CURVE SMOOTH",
"252 -145 OFFCURVE",
"265 -162 OFFCURVE",
"286 -166 CURVE SMOOTH",
"292 -167 OFFCURVE",
"298 -167 OFFCURVE",
"304 -166 CURVE",
"293 -207 OFFCURVE",
"265 -249 OFFCURVE",
"235 -277 CURVE",
"260 -302 LINE"
);
}
);
width = 747;
}
);
note = Ncommaaccent;
unicode = 0145;
},
{
glyphname = Ndotaccent;
lastChange = "2015-10-27 08:20:57 +0000";
layers = (
{
layerId = "6452E246-BF19-4A01-B77D-5979BB06C1CE";
name = "Regular Italic";
paths = (
{
closed = 1;
nodes = (
"198 0 LINE",
"200 11 LINE",
"177 19 OFFCURVE",
"152 25 OFFCURVE",
"127 30 CURVE",
"252 649 LINE",
"541 0 LINE",
"592 0 LINE",
"729 669 LINE",
"756 674 OFFCURVE",
"783 680 OFFCURVE",
"810 688 CURVE",
"812 700 LINE",
"614 700 LINE",
"612 688 LINE",
"636 680 OFFCURVE",
"660 674 OFFCURVE",
"685 670 CURVE",
"572 117 LINE",
"317 700 LINE",
"142 700 LINE",
"140 688 LINE",
"162 679 OFFCURVE",
"189 673 OFFCURVE",
"213 669 CURVE",
"83 29 LINE",
"57 25 OFFCURVE",
"29 19 OFFCURVE",
"2 11 CURVE",
"0 0 LINE"
);
},
{
closed = 1;
nodes = (
"521 785 OFFCURVE",
"542 804 OFFCURVE",
"548 830 CURVE SMOOTH",
"554 858 OFFCURVE",
"540 877 OFFCURVE",
"516 877 CURVE SMOOTH",
"489 877 OFFCURVE",
"468 858 OFFCURVE",
"463 830 CURVE SMOOTH",
"457 804 OFFCURVE",
"469 785 OFFCURVE",
"496 785 CURVE SMOOTH"
);
}
);
width = 747;
}
);
note = Ndotaccent;
unicode = 1E44;
},
{
glyphname = Ndotbelow;
lastChange = "2015-10-27 08:20:58 +0000";
layers = (
{
layerId = "6452E246-BF19-4A01-B77D-5979BB06C1CE";
name = "Regular Italic";
paths = (
{
closed = 1;
nodes = (
"198 0 LINE",
"200 11 LINE",
"177 19 OFFCURVE",
"152 25 OFFCURVE",
"127 30 CURVE",
"252 649 LINE",
"541 0 LINE",
"592 0 LINE",
"729 669 LINE",
"756 674 OFFCURVE",
"783 680 OFFCURVE",
"810 688 CURVE",
"812 700 LINE",
"614 700 LINE",
"612 688 LINE",
"636 680 OFFCURVE",
"660 674 OFFCURVE",
"685 670 CURVE",
"572 117 LINE",
"317 700 LINE",
"142 700 LINE",
"140 688 LINE",
"162 679 OFFCURVE",
"189 673 OFFCURVE",
"213 669 CURVE",
"83 29 LINE",
"57 25 OFFCURVE",
"29 19 OFFCURVE",
"2 11 CURVE",
"0 0 LINE"
);
},
{
closed = 1;
nodes = (
"321 -151 OFFCURVE",
"342 -132 OFFCURVE",
"348 -106 CURVE SMOOTH",
"353 -78 OFFCURVE",
"340 -59 OFFCURVE",
"314 -59 CURVE SMOOTH",
"288 -59 OFFCURVE",
"267 -78 OFFCURVE",
"261 -106 CURVE SMOOTH",
"255 -132 OFFCURVE",
"269 -151 OFFCURVE",
"295 -151 CURVE SMOOTH"
);
}
);
width = 747;
}
);
note = uni1E46;
unicode = 1E46;
},
{
glyphname = Eng;
lastChange = "2015-10-27 08:20:58 +0000";
layers = (
{
layerId = "6452E246-BF19-4A01-B77D-5979BB06C1CE";
name = "Regular Italic";
paths = (
{
closed = 1;
nodes = (
"489 -249 OFFCURVE",
"551 -200 OFFCURVE",
"570 -108 CURVE SMOOTH",
"729 669 LINE",
"756 674 OFFCURVE",
"783 680 OFFCURVE",
"810 688 CURVE",
"812 700 LINE",
"614 700 LINE",
"612 688 LINE",
"636 680 OFFCURVE",
"660 674 OFFCURVE",
"685 670 CURVE",
"572 117 LINE",
"317 700 LINE",
"142 700 LINE",
"140 688 LINE",
"162 679 OFFCURVE",
"189 673 OFFCURVE",
"213 669 CURVE",
"83 29 LINE",
"57 25 OFFCURVE",
"29 19 OFFCURVE",
"2 11 CURVE",
"0 0 LINE",
"198 0 LINE",
"200 11 LINE",
"177 19 OFFCURVE",
"152 25 OFFCURVE",
"127 30 CURVE",
"252 649 LINE",
"549 -4 LINE",
"528 -106 LINE SMOOTH",
"513 -182 OFFCURVE",
"455 -209 OFFCURVE",
"391 -209 CURVE SMOOTH",
"352 -209 OFFCURVE",
"323 -202 OFFCURVE",
"298 -190 CURVE",
"285 -215 LINE",
"315 -235 OFFCURVE",
"350 -249 OFFCURVE",
"399 -249 CURVE SMOOTH"
);
}
);
width = 747;
}
);
note = Eng;
unicode = 014A;
},
{
glyphname = Nlinebelow;
lastChange = "2015-10-27 08:20:57 +0000";
layers = (
{
layerId = "6452E246-BF19-4A01-B77D-5979BB06C1CE";
name = "Regular Italic";
paths = (
{
closed = 1;
nodes = (
"198 0 LINE",
"200 11 LINE",
"177 19 OFFCURVE",
"152 25 OFFCURVE",
"127 30 CURVE",
"252 649 LINE",
"541 0 LINE",
"592 0 LINE",
"729 669 LINE",
"756 674 OFFCURVE",
"783 680 OFFCURVE",
"810 688 CURVE",
"812 700 LINE",
"614 700 LINE",
"612 688 LINE",
"636 680 OFFCURVE",
"660 674 OFFCURVE",
"685 670 CURVE",
"572 117 LINE",
"317 700 LINE",
"142 700 LINE",
"140 688 LINE",
"162 679 OFFCURVE",
"189 673 OFFCURVE",
"213 669 CURVE",
"83 29 LINE",
"57 25 OFFCURVE",
"29 19 OFFCURVE",
"2 11 CURVE",
"0 0 LINE"
);
},
{
closed = 1;
nodes = (
"474 -104 LINE",
"482 -69 LINE",
"163 -69 LINE",
"156 -104 LINE"
);
}
);
width = 747;
}
);
note = Nlinebelow;
unicode = 1E48;
},
{
glyphname = Ntilde;
lastChange = "2015-10-27 08:20:57 +0000";
layers = (
{
layerId = "6452E246-BF19-4A01-B77D-5979BB06C1CE";
name = "Regular Italic";
paths = (
{
closed = 1;
nodes = (
"198 0 LINE",
"200 11 LINE",
"177 19 OFFCURVE",
"152 25 OFFCURVE",
"127 30 CURVE",
"252 649 LINE",
"541 0 LINE",
"592 0 LINE",
"729 669 LINE",
"756 674 OFFCURVE",
"783 680 OFFCURVE",
"810 688 CURVE",
"812 700 LINE",
"614 700 LINE",
"612 688 LINE",
"636 680 OFFCURVE",
"660 674 OFFCURVE",
"685 670 CURVE",
"572 117 LINE",
"317 700 LINE",
"142 700 LINE",
"140 688 LINE",
"162 679 OFFCURVE",
"189 673 OFFCURVE",
"213 669 CURVE",
"83 29 LINE",
"57 25 OFFCURVE",
"29 19 OFFCURVE",
"2 11 CURVE",
"0 0 LINE"
);
},
{
closed = 1;
nodes = (
"367 786 LINE",
"381 821 OFFCURVE",
"409 843 OFFCURVE",
"439 843 CURVE SMOOTH",
"477 843 OFFCURVE",
"519 787 OFFCURVE",
"567 787 CURVE SMOOTH",
"624 787 OFFCURVE",
"662 828 OFFCURVE",
"683 891 CURVE",
"653 891 LINE",
"635 848 OFFCURVE",
"606 831 OFFCURVE",
"578 831 CURVE SMOOTH",
"539 831 OFFCURVE",
"505 886 OFFCURVE",
"449 886 CURVE SMOOTH",
"399 886 OFFCURVE",
"358 855 OFFCURVE",
"335 786 CURVE"
);
}
);
width = 747;
}
);
note = Ntilde;
unicode = 00D1;
},
{
glyphname = O;
lastChange = "2015-10-27 08:20:56 +0000";
layers = (
{
layerId = "6452E246-BF19-4A01-B77D-5979BB06C1CE";
name = "Regular Italic";
paths = (
{
closed = 1;
nodes = (
"501 -10 OFFCURVE",
"637 127 OFFCURVE",
"684 350 CURVE SMOOTH",
"729 572 OFFCURVE",
"648 710 OFFCURVE",
"448 710 CURVE SMOOTH",
"248 710 OFFCURVE",
"113 572 OFFCURVE",
"68 350 CURVE SMOOTH",
"22 127 OFFCURVE",
"101 -10 OFFCURVE",
"301 -10 CURVE SMOOTH"
);
},
{
closed = 1;
nodes = (
"160 27 OFFCURVE",
"119 163 OFFCURVE",
"157 350 CURVE SMOOTH",
"195 536 OFFCURVE",
"293 673 OFFCURVE",
"442 673 CURVE SMOOTH",
"590 673 OFFCURVE",
"632 536 OFFCURVE",
"594 350 CURVE SMOOTH",
"556 163 OFFCURVE",
"458 27 OFFCURVE",
"309 27 CURVE SMOOTH"
);
}
);
width = 686;
}
);
leftKerningGroup = O;
note = O;
rightKerningGroup = O;
unicode = 004F;
},
{
glyphname = Oacute;
lastChange = "2015-10-27 08:20:57 +0000";
layers = (
{
layerId = "6452E246-BF19-4A01-B77D-5979BB06C1CE";
name = "Regular Italic";
paths = (
{
closed = 1;
nodes = (
"501 -10 OFFCURVE",
"637 127 OFFCURVE",
"684 350 CURVE SMOOTH",
"729 572 OFFCURVE",
"648 710 OFFCURVE",
"448 710 CURVE SMOOTH",
"248 710 OFFCURVE",
"113 572 OFFCURVE",
"68 350 CURVE SMOOTH",
"22 127 OFFCURVE",
"101 -10 OFFCURVE",
"301 -10 CURVE SMOOTH"
);
},
{
closed = 1;
nodes = (
"160 27 OFFCURVE",
"119 163 OFFCURVE",
"157 350 CURVE SMOOTH",
"195 536 OFFCURVE",
"293 673 OFFCURVE",
"442 673 CURVE SMOOTH",
"590 673 OFFCURVE",
"632 536 OFFCURVE",
"594 350 CURVE SMOOTH",
"556 163 OFFCURVE",
"458 27 OFFCURVE",
"309 27 CURVE SMOOTH"
);
},
{
closed = 1;
nodes = (
"544 868 LINE SMOOTH",
"567 881 OFFCURVE",
"581 895 OFFCURVE",
"584 911 CURVE",
"587 924 OFFCURVE",
"580 938 OFFCURVE",
"560 938 CURVE SMOOTH",
"539 938 OFFCURVE",
"520 922 OFFCURVE",
"512 915 CURVE SMOOTH",
"381 809 LINE",
"392 786 LINE"
);
}
);
width = 686;
}
);
leftKerningGroup = O;
note = Oacute;
rightKerningGroup = O;
unicode = 00D3;
},
{
glyphname = Obreve;
lastChange = "2015-10-27 08:20:56 +0000";
layers = (
{
layerId = "6452E246-BF19-4A01-B77D-5979BB06C1CE";
name = "Regular Italic";
paths = (
{
closed = 1;
nodes = (
"501 -10 OFFCURVE",
"637 127 OFFCURVE",
"684 350 CURVE SMOOTH",
"729 572 OFFCURVE",
"648 710 OFFCURVE",
"448 710 CURVE SMOOTH",
"248 710 OFFCURVE",
"113 572 OFFCURVE",
"68 350 CURVE SMOOTH",
"22 127 OFFCURVE",
"101 -10 OFFCURVE",
"301 -10 CURVE SMOOTH"
);
},
{
closed = 1;
nodes = (
"160 27 OFFCURVE",
"119 163 OFFCURVE",
"157 350 CURVE SMOOTH",
"195 536 OFFCURVE",
"293 673 OFFCURVE",
"442 673 CURVE SMOOTH",
"590 673 OFFCURVE",
"632 536 OFFCURVE",
"594 350 CURVE SMOOTH",
"556 163 OFFCURVE",
"458 27 OFFCURVE",
"309 27 CURVE SMOOTH"
);
},
{
closed = 1;
nodes = (
"542 775 OFFCURVE",
"609 814 OFFCURVE",
"636 899 CURVE",
"582 899 LINE",
"559 823 OFFCURVE",
"509 812 OFFCURVE",
"469 812 CURVE SMOOTH",
"430 812 OFFCURVE",
"383 823 OFFCURVE",
"391 899 CURVE",
"338 899 LINE",
"331 814 OFFCURVE",
"380 775 OFFCURVE",
"462 775 CURVE SMOOTH"
);
}
);
width = 686;
}
);
leftKerningGroup = O;
note = Obreve;
rightKerningGroup = O;
unicode = 014E;
},
{
glyphname = Ocaron;
lastChange = "2015-10-27 08:20:57 +0000";
layers = (
{
layerId = "6452E246-BF19-4A01-B77D-5979BB06C1CE";
name = "Regular Italic";
paths = (
{
closed = 1;
nodes = (
"501 -10 OFFCURVE",
"637 127 OFFCURVE",
"684 350 CURVE SMOOTH",
"729 572 OFFCURVE",
"648 710 OFFCURVE",
"448 710 CURVE SMOOTH",
"248 710 OFFCURVE",
"113 572 OFFCURVE",
"68 350 CURVE SMOOTH",
"22 127 OFFCURVE",
"101 -10 OFFCURVE",
"301 -10 CURVE SMOOTH"
);
},
{
closed = 1;
nodes = (
"160 27 OFFCURVE",
"119 163 OFFCURVE",
"157 350 CURVE SMOOTH",
"195 536 OFFCURVE",
"293 673 OFFCURVE",
"442 673 CURVE SMOOTH",
"590 673 OFFCURVE",
"632 536 OFFCURVE",
"594 350 CURVE SMOOTH",
"556 163 OFFCURVE",
"458 27 OFFCURVE",
"309 27 CURVE SMOOTH"
);
},
{
closed = 1;
nodes = (
"485 786 LINE",
"520 827 OFFCURVE",
"590 882 OFFCURVE",
"636 909 CURVE",
"606 941 LINE",
"564 913 OFFCURVE",
"508 868 OFFCURVE",
"475 832 CURVE",
"470 832 LINE",
"453 868 OFFCURVE",
"416 913 OFFCURVE",
"385 941 CURVE",
"344 909 LINE",
"375 882 OFFCURVE",
"423 827 OFFCURVE",
"444 786 CURVE"
);
}
);
width = 686;
}
);
leftKerningGroup = O;
note = Ocaron;
rightKerningGroup = O;
unicode = 01D1;
},
{
glyphname = Ocircumflex;
lastChange = "2015-10-27 08:20:57 +0000";
layers = (
{
layerId = "6452E246-BF19-4A01-B77D-5979BB06C1CE";
name = "Regular Italic";
paths = (
{
closed = 1;
nodes = (
"501 -10 OFFCURVE",
"637 127 OFFCURVE",
"684 350 CURVE SMOOTH",
"729 572 OFFCURVE",
"648 710 OFFCURVE",
"448 710 CURVE SMOOTH",
"248 710 OFFCURVE",
"113 572 OFFCURVE",
"68 350 CURVE SMOOTH",
"22 127 OFFCURVE",
"101 -10 OFFCURVE",
"301 -10 CURVE SMOOTH"
);
},
{
closed = 1;
nodes = (
"160 27 OFFCURVE",
"119 163 OFFCURVE",
"157 350 CURVE SMOOTH",
"195 536 OFFCURVE",
"293 673 OFFCURVE",
"442 673 CURVE SMOOTH",
"590 673 OFFCURVE",
"632 536 OFFCURVE",
"594 350 CURVE SMOOTH",
"556 163 OFFCURVE",
"458 27 OFFCURVE",
"309 27 CURVE SMOOTH"
);
},
{
closed = 1;
nodes = (
"393 808 OFFCURVE",
"449 853 OFFCURVE",
"482 889 CURVE",
"487 889 LINE",
"504 853 OFFCURVE",
"540 808 OFFCURVE",
"571 780 CURVE",
"614 812 LINE",
"581 839 OFFCURVE",
"534 894 OFFCURVE",
"514 934 CURVE",
"472 934 LINE",
"437 894 OFFCURVE",
"366 839 OFFCURVE",
"323 812 CURVE",
"350 780 LINE"
);
}
);
width = 686;
}
);
leftKerningGroup = O;
note = Ocircumflex;
rightKerningGroup = O;
unicode = 00D4;
},
{
glyphname = Ocircumflexacute;
lastChange = "2015-10-27 08:20:56 +0000";
layers = (
{
layerId = "6452E246-BF19-4A01-B77D-5979BB06C1CE";
name = "Regular Italic";
paths = (
{
closed = 1;
nodes = (
"501 -10 OFFCURVE",
"637 127 OFFCURVE",
"684 350 CURVE SMOOTH",
"729 572 OFFCURVE",
"648 710 OFFCURVE",
"448 710 CURVE SMOOTH",
"248 710 OFFCURVE",
"113 572 OFFCURVE",
"68 350 CURVE SMOOTH",
"22 127 OFFCURVE",
"101 -10 OFFCURVE",
"301 -10 CURVE SMOOTH"
);
},
{
closed = 1;
nodes = (
"160 27 OFFCURVE",
"119 163 OFFCURVE",
"157 350 CURVE SMOOTH",
"195 536 OFFCURVE",
"293 673 OFFCURVE",
"442 673 CURVE SMOOTH",
"590 673 OFFCURVE",
"632 536 OFFCURVE",
"594 350 CURVE SMOOTH",
"556 163 OFFCURVE",
"458 27 OFFCURVE",
"309 27 CURVE SMOOTH"
);
},
{
closed = 1;
nodes = (
"394 808 OFFCURVE",
"449 853 OFFCURVE",
"483 889 CURVE",
"487 889 LINE",
"505 853 OFFCURVE",
"541 808 OFFCURVE",
"572 780 CURVE",
"613 812 LINE",
"583 839 OFFCURVE",
"535 894 OFFCURVE",
"514 934 CURVE",
"473 934 LINE",
"437 894 OFFCURVE",
"367 839 OFFCURVE",
"323 812 CURVE",
"352 780 LINE"
);
},
{
closed = 1;
nodes = (
"712 957 LINE SMOOTH",
"747 974 OFFCURVE",
"763 994 OFFCURVE",
"766 1010 CURVE",
"769 1023 OFFCURVE",
"761 1033 OFFCURVE",
"747 1033 CURVE SMOOTH",
"732 1033 OFFCURVE",
"709 1023 OFFCURVE",
"684 1000 CURVE SMOOTH",
"590 921 LINE",
"601 900 LINE"
);
}
);
width = 686;
}
);
leftKerningGroup = O;
note = Ocircumflexacute;
rightKerningGroup = O;
unicode = 1ED0;
},
{
glyphname = Ocircumflexdotbelow;
lastChange = "2015-11-28 10:26:53 +0000";
layers = (
{
layerId = "6452E246-BF19-4A01-B77D-5979BB06C1CE";
name = "Regular Italic";
paths = (
{
closed = 1;
nodes = (
"22 127 OFFCURVE",
"101 -10 OFFCURVE",
"301 -10 CURVE SMOOTH",
"501 -10 OFFCURVE",
"637 127 OFFCURVE",
"684 350 CURVE SMOOTH",
"729 572 OFFCURVE",
"648 710 OFFCURVE",
"448 710 CURVE SMOOTH",
"248 710 OFFCURVE",
"113 572 OFFCURVE",
"68 350 CURVE SMOOTH"
);
},
{
closed = 1;
nodes = (
"195 536 OFFCURVE",
"293 673 OFFCURVE",
"442 673 CURVE SMOOTH",
"590 673 OFFCURVE",
"632 536 OFFCURVE",
"594 350 CURVE SMOOTH",
"556 163 OFFCURVE",
"458 27 OFFCURVE",
"309 27 CURVE SMOOTH",
"160 27 OFFCURVE",
"119 163 OFFCURVE",
"157 350 CURVE SMOOTH"
);
},
{
closed = 1;
nodes = (
"233 -132 OFFCURVE",
"247 -151 OFFCURVE",
"273 -151 CURVE SMOOTH",
"299 -151 OFFCURVE",
"320 -132 OFFCURVE",
"325 -106 CURVE SMOOTH",
"331 -78 OFFCURVE",
"318 -59 OFFCURVE",
"292 -59 CURVE SMOOTH",
"266 -59 OFFCURVE",
"245 -78 OFFCURVE",
"239 -106 CURVE SMOOTH"
);
},
{
closed = 1;
nodes = (
"350 780 LINE",
"393 808 OFFCURVE",
"449 853 OFFCURVE",
"482 889 CURVE",
"487 889 LINE",
"504 853 OFFCURVE",
"540 808 OFFCURVE",
"571 780 CURVE",
"614 812 LINE",
"581 839 OFFCURVE",
"534 894 OFFCURVE",
"514 934 CURVE",
"472 934 LINE",
"437 894 OFFCURVE",
"366 839 OFFCURVE",
"323 812 CURVE"
);
}
);
width = 686;
}
);
leftKerningGroup = O;
note = Ocircumflexdotbelow;
rightKerningGroup = O;
unicode = 1ED8;
},
{
glyphname = Ocircumflexgrave;
lastChange = "2015-11-28 10:27:12 +0000";
layers = (
{
layerId = "6452E246-BF19-4A01-B77D-5979BB06C1CE";
name = "Regular Italic";
paths = (
{
closed = 1;
nodes = (
"22 127 OFFCURVE",
"101 -10 OFFCURVE",
"301 -10 CURVE SMOOTH",
"501 -10 OFFCURVE",
"637 127 OFFCURVE",
"684 350 CURVE SMOOTH",
"729 572 OFFCURVE",
"648 710 OFFCURVE",
"448 710 CURVE SMOOTH",
"248 710 OFFCURVE",
"113 572 OFFCURVE",
"68 350 CURVE SMOOTH"
);
},
{
closed = 1;
nodes = (
"195 536 OFFCURVE",
"293 673 OFFCURVE",
"442 673 CURVE SMOOTH",
"590 673 OFFCURVE",
"632 536 OFFCURVE",
"594 350 CURVE SMOOTH",
"556 163 OFFCURVE",
"458 27 OFFCURVE",
"309 27 CURVE SMOOTH",
"160 27 OFFCURVE",
"119 163 OFFCURVE",
"157 350 CURVE SMOOTH"
);
},
{
closed = 1;
nodes = (
"254 992 OFFCURVE",
"271 970 OFFCURVE",
"300 951 CURVE SMOOTH",
"379 900 LINE",
"398 921 LINE",
"344 992 LINE SMOOTH",
"325 1017 OFFCURVE",
"304 1033 OFFCURVE",
"287 1033 CURVE SMOOTH",
"273 1033 OFFCURVE",
"261 1023 OFFCURVE",
"258 1010 CURVE SMOOTH"
);
},
{
closed = 1;
nodes = (
"352 780 LINE",
"394 808 OFFCURVE",
"449 853 OFFCURVE",
"483 889 CURVE",
"487 889 LINE",
"505 853 OFFCURVE",
"541 808 OFFCURVE",
"572 780 CURVE",
"613 812 LINE",
"583 839 OFFCURVE",
"535 894 OFFCURVE",
"514 934 CURVE",
"473 934 LINE",
"437 894 OFFCURVE",
"367 839 OFFCURVE",
"323 812 CURVE"
);
}
);
width = 686;
}
);
leftKerningGroup = O;
note = Ocircumflexgrave;
rightKerningGroup = O;
unicode = 1ED2;
},
{
glyphname = Ocircumflexhookabove;
lastChange = "2015-11-28 10:27:09 +0000";
layers = (
{
layerId = "6452E246-BF19-4A01-B77D-5979BB06C1CE";
name = "Regular Italic";
paths = (
{
closed = 1;
nodes = (
"22 127 OFFCURVE",
"101 -10 OFFCURVE",
"301 -10 CURVE SMOOTH",
"501 -10 OFFCURVE",
"637 127 OFFCURVE",
"684 350 CURVE SMOOTH",
"729 572 OFFCURVE",
"648 710 OFFCURVE",
"448 710 CURVE SMOOTH",
"248 710 OFFCURVE",
"113 572 OFFCURVE",
"68 350 CURVE SMOOTH"
);
},
{
closed = 1;
nodes = (
"195 536 OFFCURVE",
"293 673 OFFCURVE",
"442 673 CURVE SMOOTH",
"590 673 OFFCURVE",
"632 536 OFFCURVE",
"594 350 CURVE SMOOTH",
"556 163 OFFCURVE",
"458 27 OFFCURVE",
"309 27 CURVE SMOOTH",
"160 27 OFFCURVE",
"119 163 OFFCURVE",
"157 350 CURVE SMOOTH"
);
},
{
closed = 1;
nodes = (
"353 781 LINE",
"395 809 OFFCURVE",
"450 854 OFFCURVE",
"484 890 CURVE",
"488 890 LINE",
"506 854 OFFCURVE",
"542 809 OFFCURVE",
"573 781 CURVE",
"614 813 LINE",
"584 840 OFFCURVE",
"536 895 OFFCURVE",
"515 935 CURVE",
"474 935 LINE",
"438 895 OFFCURVE",
"368 840 OFFCURVE",
"324 813 CURVE"
);
},
{
closed = 1;
nodes = (
"617 892 LINE",
"636 945 LINE",
"681 949 OFFCURVE",
"711 968 OFFCURVE",
"720 1008 CURVE SMOOTH",
"730 1055 OFFCURVE",
"693 1074 OFFCURVE",
"651 1074 CURVE SMOOTH",
"627 1074 OFFCURVE",
"602 1067 OFFCURVE",
"586 1060 CURVE",
"586 1033 LINE",
"603 1042 OFFCURVE",
"621 1046 OFFCURVE",
"636 1046 CURVE SMOOTH",
"668 1046 OFFCURVE",
"680 1030 OFFCURVE",
"676 1009 CURVE",
"670 983 OFFCURVE",
"649 967 OFFCURVE",
"615 967 CURVE SMOOTH",
"596 967 LINE",
"585 892 LINE"
);
}
);
width = 686;
}
);
leftKerningGroup = O;
note = Ocircumflexhookabove;
rightKerningGroup = O;
unicode = 1ED4;
},
{
glyphname = Ocircumflextilde;
lastChange = "2015-10-27 08:20:58 +0000";
layers = (
{
layerId = "6452E246-BF19-4A01-B77D-5979BB06C1CE";
name = "Regular Italic";
paths = (
{
closed = 1;
nodes = (
"501 -10 OFFCURVE",
"637 127 OFFCURVE",
"684 350 CURVE SMOOTH",
"729 572 OFFCURVE",
"648 710 OFFCURVE",
"448 710 CURVE SMOOTH",
"248 710 OFFCURVE",
"113 572 OFFCURVE",
"68 350 CURVE SMOOTH",
"22 127 OFFCURVE",
"101 -10 OFFCURVE",
"301 -10 CURVE SMOOTH"
);
},
{
closed = 1;
nodes = (
"160 27 OFFCURVE",
"119 163 OFFCURVE",
"157 350 CURVE SMOOTH",
"195 536 OFFCURVE",
"293 673 OFFCURVE",
"442 673 CURVE SMOOTH",
"590 673 OFFCURVE",
"632 536 OFFCURVE",
"594 350 CURVE SMOOTH",
"556 163 OFFCURVE",
"458 27 OFFCURVE",
"309 27 CURVE SMOOTH"
);
},
{
closed = 1;
nodes = (
"394 808 OFFCURVE",
"449 853 OFFCURVE",
"483 889 CURVE",
"487 889 LINE",
"505 853 OFFCURVE",
"541 808 OFFCURVE",
"572 780 CURVE",
"613 812 LINE",
"583 839 OFFCURVE",
"535 894 OFFCURVE",
"514 934 CURVE",
"473 934 LINE",
"437 894 OFFCURVE",
"367 839 OFFCURVE",
"323 812 CURVE",
"352 780 LINE"
);
},
{
closed = 1;
nodes = (
"374 963 LINE",
"390 998 OFFCURVE",
"416 1020 OFFCURVE",
"444 1020 CURVE SMOOTH",
"480 1020 OFFCURVE",
"520 964 OFFCURVE",
"565 964 CURVE SMOOTH",
"619 964 OFFCURVE",
"656 1005 OFFCURVE",
"677 1068 CURVE",
"648 1068 LINE",
"629 1025 OFFCURVE",
"603 1008 OFFCURVE",
"577 1008 CURVE SMOOTH",
"540 1008 OFFCURVE",
"508 1063 OFFCURVE",
"455 1063 CURVE SMOOTH",
"407 1063 OFFCURVE",
"368 1032 OFFCURVE",
"345 963 CURVE"
);
}
);
width = 686;
}
);
leftKerningGroup = O;
note = Ocircumflextilde;
rightKerningGroup = O;
unicode = 1ED6;
},
{
glyphname = Odieresis;
lastChange = "2015-10-27 08:20:56 +0000";
layers = (
{
layerId = "6452E246-BF19-4A01-B77D-5979BB06C1CE";
name = "Regular Italic";
paths = (
{
closed = 1;
nodes = (
"501 -10 OFFCURVE",
"637 127 OFFCURVE",
"684 350 CURVE SMOOTH",
"729 572 OFFCURVE",
"648 710 OFFCURVE",
"448 710 CURVE SMOOTH",
"248 710 OFFCURVE",
"113 572 OFFCURVE",
"68 350 CURVE SMOOTH",
"22 127 OFFCURVE",
"101 -10 OFFCURVE",
"301 -10 CURVE SMOOTH"
);
},
{
closed = 1;
nodes = (
"160 27 OFFCURVE",
"119 163 OFFCURVE",
"157 350 CURVE SMOOTH",
"195 536 OFFCURVE",
"293 673 OFFCURVE",
"442 673 CURVE SMOOTH",
"590 673 OFFCURVE",
"632 536 OFFCURVE",
"594 350 CURVE SMOOTH",
"556 163 OFFCURVE",
"458 27 OFFCURVE",
"309 27 CURVE SMOOTH"
);
},
{
closed = 1;
nodes = (
"382 785 OFFCURVE",
"403 804 OFFCURVE",
"409 830 CURVE SMOOTH",
"415 858 OFFCURVE",
"401 877 OFFCURVE",
"375 877 CURVE SMOOTH",
"350 877 OFFCURVE",
"330 858 OFFCURVE",
"324 830 CURVE SMOOTH",
"319 804 OFFCURVE",
"332 785 OFFCURVE",
"356 785 CURVE SMOOTH"
);
},
{
closed = 1;
nodes = (
"593 785 OFFCURVE",
"614 804 OFFCURVE",
"620 830 CURVE SMOOTH",
"626 858 OFFCURVE",
"612 877 OFFCURVE",
"587 877 CURVE SMOOTH",
"561 877 OFFCURVE",
"540 858 OFFCURVE",
"535 830 CURVE SMOOTH",
"529 804 OFFCURVE",
"541 785 OFFCURVE",
"567 785 CURVE SMOOTH"
);
}
);
width = 686;
}
);
leftKerningGroup = O;
note = Odieresis;
rightKerningGroup = O;
unicode = 00D6;
},
{
glyphname = Odotbelow;
lastChange = "2015-11-28 10:27:16 +0000";
layers = (
{
layerId = "6452E246-BF19-4A01-B77D-5979BB06C1CE";
name = "Regular Italic";
paths = (
{
closed = 1;
nodes = (
"22 127 OFFCURVE",
"101 -10 OFFCURVE",
"301 -10 CURVE SMOOTH",
"501 -10 OFFCURVE",
"637 127 OFFCURVE",
"684 350 CURVE SMOOTH",
"729 572 OFFCURVE",
"648 710 OFFCURVE",
"448 710 CURVE SMOOTH",
"248 710 OFFCURVE",
"113 572 OFFCURVE",
"68 350 CURVE SMOOTH"
);
},
{
closed = 1;
nodes = (
"195 536 OFFCURVE",
"293 673 OFFCURVE",
"442 673 CURVE SMOOTH",
"590 673 OFFCURVE",
"632 536 OFFCURVE",
"594 350 CURVE SMOOTH",
"556 163 OFFCURVE",
"458 27 OFFCURVE",
"309 27 CURVE SMOOTH",
"160 27 OFFCURVE",
"119 163 OFFCURVE",
"157 350 CURVE SMOOTH"
);
},
{
closed = 1;
nodes = (
"233 -132 OFFCURVE",
"247 -151 OFFCURVE",
"273 -151 CURVE SMOOTH",
"299 -151 OFFCURVE",
"320 -132 OFFCURVE",
"325 -106 CURVE SMOOTH",
"331 -78 OFFCURVE",
"318 -59 OFFCURVE",
"292 -59 CURVE SMOOTH",
"266 -59 OFFCURVE",
"245 -78 OFFCURVE",
"239 -106 CURVE SMOOTH"
);
}
);
width = 686;
}
);
leftKerningGroup = O;
note = Odotbelow;
rightKerningGroup = O;
unicode = 1ECC;
},
{
glyphname = Ograve;
lastChange = "2015-10-27 08:20:58 +0000";
layers = (
{
layerId = "6452E246-BF19-4A01-B77D-5979BB06C1CE";
name = "Regular Italic";
paths = (
{
closed = 1;
nodes = (
"501 -10 OFFCURVE",
"637 127 OFFCURVE",
"684 350 CURVE SMOOTH",
"729 572 OFFCURVE",
"648 710 OFFCURVE",
"448 710 CURVE SMOOTH",
"248 710 OFFCURVE",
"113 572 OFFCURVE",
"68 350 CURVE SMOOTH",
"22 127 OFFCURVE",
"101 -10 OFFCURVE",
"301 -10 CURVE SMOOTH"
);
},
{
closed = 1;
nodes = (
"160 27 OFFCURVE",
"119 163 OFFCURVE",
"157 350 CURVE SMOOTH",
"195 536 OFFCURVE",
"293 673 OFFCURVE",
"442 673 CURVE SMOOTH",
"590 673 OFFCURVE",
"632 536 OFFCURVE",
"594 350 CURVE SMOOTH",
"556 163 OFFCURVE",
"458 27 OFFCURVE",
"309 27 CURVE SMOOTH"
);
},
{
closed = 1;
nodes = (
"557 809 LINE",
"467 916 LINE",
"461 924 OFFCURVE",
"449 938 OFFCURVE",
"429 938 CURVE SMOOTH",
"409 938 OFFCURVE",
"396 924 OFFCURVE",
"393 911 CURVE",
"390 895 OFFCURVE",
"398 881 OFFCURVE",
"417 868 CURVE SMOOTH",
"537 786 LINE"
);
}
);
width = 686;
}
);
leftKerningGroup = O;
note = Ograve;
rightKerningGroup = O;
unicode = 00D2;
},
{
glyphname = Ohookabove;
lastChange = "2015-10-27 08:20:55 +0000";
layers = (
{
layerId = "6452E246-BF19-4A01-B77D-5979BB06C1CE";
name = "Regular Italic";
paths = (
{
closed = 1;
nodes = (
"501 -10 OFFCURVE",
"637 127 OFFCURVE",
"684 350 CURVE SMOOTH",
"729 572 OFFCURVE",
"648 710 OFFCURVE",
"448 710 CURVE SMOOTH",
"248 710 OFFCURVE",
"113 572 OFFCURVE",
"68 350 CURVE SMOOTH",
"22 127 OFFCURVE",
"101 -10 OFFCURVE",
"301 -10 CURVE SMOOTH"
);
},
{
closed = 1;
nodes = (
"160 27 OFFCURVE",
"119 163 OFFCURVE",
"157 350 CURVE SMOOTH",
"195 536 OFFCURVE",
"293 673 OFFCURVE",
"442 673 CURVE SMOOTH",
"590 673 OFFCURVE",
"632 536 OFFCURVE",
"594 350 CURVE SMOOTH",
"556 163 OFFCURVE",
"458 27 OFFCURVE",
"309 27 CURVE SMOOTH"
);
},
{
closed = 1;
nodes = (
"480 779 LINE",
"503 843 LINE",
"554 848 OFFCURVE",
"589 872 OFFCURVE",
"599 919 CURVE SMOOTH",
"610 975 OFFCURVE",
"569 998 OFFCURVE",
"521 998 CURVE SMOOTH",
"492 998 OFFCURVE",
"463 990 OFFCURVE",
"444 981 CURVE",
"444 951 LINE",
"466 962 OFFCURVE",
"487 967 OFFCURVE",
"503 967 CURVE SMOOTH",
"540 967 OFFCURVE",
"555 946 OFFCURVE",
"550 921 CURVE SMOOTH",
"544 890 OFFCURVE",
"517 869 OFFCURVE",
"479 869 CURVE SMOOTH",
"456 869 LINE",
"443 779 LINE"
);
}
);
width = 686;
}
);
leftKerningGroup = O;
note = Ohookabove;
rightKerningGroup = O;
unicode = 1ECE;
},
{
glyphname = Ohorn;
lastChange = "2015-10-27 08:20:58 +0000";
layers = (
{
layerId = "6452E246-BF19-4A01-B77D-5979BB06C1CE";
name = "Regular Italic";
paths = (
{
closed = 1;
nodes = (
"501 -10 OFFCURVE",
"637 127 OFFCURVE",
"684 350 CURVE SMOOTH",
"729 572 OFFCURVE",
"648 710 OFFCURVE",
"448 710 CURVE SMOOTH",
"248 710 OFFCURVE",
"113 572 OFFCURVE",
"68 350 CURVE SMOOTH",
"22 127 OFFCURVE",
"101 -10 OFFCURVE",
"301 -10 CURVE SMOOTH"
);
},
{
closed = 1;
nodes = (
"160 27 OFFCURVE",
"119 163 OFFCURVE",
"157 350 CURVE SMOOTH",
"195 536 OFFCURVE",
"293 673 OFFCURVE",
"442 673 CURVE SMOOTH",
"590 673 OFFCURVE",
"632 536 OFFCURVE",
"594 350 CURVE SMOOTH",
"556 163 OFFCURVE",
"458 27 OFFCURVE",
"309 27 CURVE SMOOTH"
);
},
{
closed = 1;
nodes = (
"761 560 OFFCURVE",
"803 621 OFFCURVE",
"812 666 CURVE SMOOTH",
"819 698 OFFCURVE",
"818 736 OFFCURVE",
"768 736 CURVE SMOOTH",
"730 736 OFFCURVE",
"710 710 OFFCURVE",
"706 686 CURVE SMOOTH",
"700 656 OFFCURVE",
"714 638 OFFCURVE",
"740 638 CURVE SMOOTH",
"746 638 OFFCURVE",
"753 639 OFFCURVE",
"759 643 CURVE",
"744 596 OFFCURVE",
"694 554 OFFCURVE",
"663 535 CURVE",
"677 508 LINE"
);
}
);
width = 708;
}
);
leftKerningGroup = O;
note = Ohorn;
rightKerningGroup = O;
unicode = 01A0;
},
{
glyphname = Ohornacute;
lastChange = "2015-10-27 08:20:57 +0000";
layers = (
{
layerId = "6452E246-BF19-4A01-B77D-5979BB06C1CE";
name = "Regular Italic";
paths = (
{
closed = 1;
nodes = (
"501 -10 OFFCURVE",
"637 127 OFFCURVE",
"684 350 CURVE SMOOTH",
"729 572 OFFCURVE",
"648 710 OFFCURVE",
"448 710 CURVE SMOOTH",
"248 710 OFFCURVE",
"113 572 OFFCURVE",
"68 350 CURVE SMOOTH",
"22 127 OFFCURVE",
"101 -10 OFFCURVE",
"301 -10 CURVE SMOOTH"
);
},
{
closed = 1;
nodes = (
"160 27 OFFCURVE",
"119 163 OFFCURVE",
"157 350 CURVE SMOOTH",
"195 536 OFFCURVE",
"293 673 OFFCURVE",
"442 673 CURVE SMOOTH",
"590 673 OFFCURVE",
"632 536 OFFCURVE",
"594 350 CURVE SMOOTH",
"556 163 OFFCURVE",
"458 27 OFFCURVE",
"309 27 CURVE SMOOTH"
);
},
{
closed = 1;
nodes = (
"545 867 LINE SMOOTH",
"568 880 OFFCURVE",
"582 894 OFFCURVE",
"585 910 CURVE",
"588 923 OFFCURVE",
"581 937 OFFCURVE",
"561 937 CURVE SMOOTH",
"540 937 OFFCURVE",
"521 921 OFFCURVE",
"513 914 CURVE SMOOTH",
"382 808 LINE",
"393 785 LINE"
);
},
{
closed = 1;
nodes = (
"761 560 OFFCURVE",
"803 621 OFFCURVE",
"812 666 CURVE SMOOTH",
"819 698 OFFCURVE",
"818 736 OFFCURVE",
"768 736 CURVE SMOOTH",
"730 736 OFFCURVE",
"710 710 OFFCURVE",
"706 686 CURVE SMOOTH",
"700 656 OFFCURVE",
"714 638 OFFCURVE",
"740 638 CURVE SMOOTH",
"746 638 OFFCURVE",
"753 639 OFFCURVE",
"759 643 CURVE",
"744 596 OFFCURVE",
"694 554 OFFCURVE",
"663 535 CURVE",
"677 508 LINE"
);
}
);
width = 708;
}
);
leftKerningGroup = O;
note = Ohornacute;
rightKerningGroup = O;
unicode = 1EDA;
},
{
glyphname = Ohorndotbelow;
lastChange = "2015-11-28 10:27:22 +0000";
layers = (
{
layerId = "6452E246-BF19-4A01-B77D-5979BB06C1CE";
name = "Regular Italic";
paths = (
{
closed = 1;
nodes = (
"501 -10 OFFCURVE",
"637 127 OFFCURVE",
"684 350 CURVE SMOOTH",
"729 572 OFFCURVE",
"648 710 OFFCURVE",
"448 710 CURVE SMOOTH",
"248 710 OFFCURVE",
"113 572 OFFCURVE",
"68 350 CURVE SMOOTH",
"22 127 OFFCURVE",
"101 -10 OFFCURVE",
"301 -10 CURVE SMOOTH"
);
},
{
closed = 1;
nodes = (
"160 27 OFFCURVE",
"119 163 OFFCURVE",
"157 350 CURVE SMOOTH",
"195 536 OFFCURVE",
"293 673 OFFCURVE",
"442 673 CURVE SMOOTH",
"590 673 OFFCURVE",
"632 536 OFFCURVE",
"594 350 CURVE SMOOTH",
"556 163 OFFCURVE",
"458 27 OFFCURVE",
"309 27 CURVE SMOOTH"
);
},
{
closed = 1;
nodes = (
"761 560 OFFCURVE",
"803 621 OFFCURVE",
"812 666 CURVE SMOOTH",
"819 698 OFFCURVE",
"818 736 OFFCURVE",
"768 736 CURVE SMOOTH",
"730 736 OFFCURVE",
"710 710 OFFCURVE",
"706 686 CURVE SMOOTH",
"700 656 OFFCURVE",
"714 638 OFFCURVE",
"740 638 CURVE SMOOTH",
"746 638 OFFCURVE",
"753 639 OFFCURVE",
"759 643 CURVE",
"744 596 OFFCURVE",
"694 554 OFFCURVE",
"663 535 CURVE",
"677 508 LINE"
);
},
{
closed = 1;
nodes = (
"299 -151 OFFCURVE",
"320 -132 OFFCURVE",
"325 -106 CURVE SMOOTH",
"331 -78 OFFCURVE",
"318 -59 OFFCURVE",
"292 -59 CURVE SMOOTH",
"266 -59 OFFCURVE",
"245 -78 OFFCURVE",
"239 -106 CURVE SMOOTH",
"233 -132 OFFCURVE",
"247 -151 OFFCURVE",
"273 -151 CURVE SMOOTH"
);
}
);
width = 708;
}
);
leftKerningGroup = O;
note = Ohorndotbelow;
rightKerningGroup = O;
unicode = 1EE2;
},
{
glyphname = Ohorngrave;
lastChange = "2015-10-27 08:20:56 +0000";
layers = (
{
layerId = "6452E246-BF19-4A01-B77D-5979BB06C1CE";
name = "Regular Italic";
paths = (
{
closed = 1;
nodes = (
"501 -10 OFFCURVE",
"637 127 OFFCURVE",
"684 350 CURVE SMOOTH",
"729 572 OFFCURVE",
"648 710 OFFCURVE",
"448 710 CURVE SMOOTH",
"248 710 OFFCURVE",
"113 572 OFFCURVE",
"68 350 CURVE SMOOTH",
"22 127 OFFCURVE",
"101 -10 OFFCURVE",
"301 -10 CURVE SMOOTH"
);
},
{
closed = 1;
nodes = (
"160 27 OFFCURVE",
"119 163 OFFCURVE",
"157 350 CURVE SMOOTH",
"195 536 OFFCURVE",
"293 673 OFFCURVE",
"442 673 CURVE SMOOTH",
"590 673 OFFCURVE",
"632 536 OFFCURVE",
"594 350 CURVE SMOOTH",
"556 163 OFFCURVE",
"458 27 OFFCURVE",
"309 27 CURVE SMOOTH"
);
},
{
closed = 1;
nodes = (
"558 808 LINE",
"468 915 LINE",
"462 923 OFFCURVE",
"450 937 OFFCURVE",
"430 937 CURVE SMOOTH",
"410 937 OFFCURVE",
"396 923 OFFCURVE",
"394 910 CURVE",
"391 894 OFFCURVE",
"399 880 OFFCURVE",
"418 867 CURVE SMOOTH",
"538 785 LINE"
);
},
{
closed = 1;
nodes = (
"761 560 OFFCURVE",
"803 621 OFFCURVE",
"812 666 CURVE SMOOTH",
"819 698 OFFCURVE",
"818 736 OFFCURVE",
"768 736 CURVE SMOOTH",
"730 736 OFFCURVE",
"710 710 OFFCURVE",
"706 686 CURVE SMOOTH",
"700 656 OFFCURVE",
"714 638 OFFCURVE",
"740 638 CURVE SMOOTH",
"746 638 OFFCURVE",
"753 639 OFFCURVE",
"759 643 CURVE",
"744 596 OFFCURVE",
"694 554 OFFCURVE",
"663 535 CURVE",
"677 508 LINE"
);
}
);
width = 708;
}
);
leftKerningGroup = O;
note = Ohorngrave;
rightKerningGroup = O;
unicode = 1EDC;
},
{
glyphname = Ohornhookabove;
lastChange = "2015-10-27 08:20:58 +0000";
layers = (
{
layerId = "6452E246-BF19-4A01-B77D-5979BB06C1CE";
name = "Regular Italic";
paths = (
{
closed = 1;
nodes = (
"501 -10 OFFCURVE",
"637 127 OFFCURVE",
"684 350 CURVE SMOOTH",
"729 572 OFFCURVE",
"648 710 OFFCURVE",
"448 710 CURVE SMOOTH",
"248 710 OFFCURVE",
"113 572 OFFCURVE",
"68 350 CURVE SMOOTH",
"22 127 OFFCURVE",
"101 -10 OFFCURVE",
"301 -10 CURVE SMOOTH"
);
},
{
closed = 1;
nodes = (
"160 27 OFFCURVE",
"119 163 OFFCURVE",
"157 350 CURVE SMOOTH",
"195 536 OFFCURVE",
"293 673 OFFCURVE",
"442 673 CURVE SMOOTH",
"590 673 OFFCURVE",
"632 536 OFFCURVE",
"594 350 CURVE SMOOTH",
"556 163 OFFCURVE",
"458 27 OFFCURVE",
"309 27 CURVE SMOOTH"
);
},
{
closed = 1;
nodes = (
"761 560 OFFCURVE",
"803 621 OFFCURVE",
"812 666 CURVE SMOOTH",
"819 698 OFFCURVE",
"818 736 OFFCURVE",
"768 736 CURVE SMOOTH",
"730 736 OFFCURVE",
"710 710 OFFCURVE",
"706 686 CURVE SMOOTH",
"700 656 OFFCURVE",
"714 638 OFFCURVE",
"740 638 CURVE SMOOTH",
"746 638 OFFCURVE",
"753 639 OFFCURVE",
"759 643 CURVE",
"744 596 OFFCURVE",
"694 554 OFFCURVE",
"663 535 CURVE",
"677 508 LINE"
);
},
{
closed = 1;
nodes = (
"478 778 LINE",
"501 842 LINE",
"552 847 OFFCURVE",
"588 871 OFFCURVE",
"597 918 CURVE SMOOTH",
"608 974 OFFCURVE",
"567 997 OFFCURVE",
"519 997 CURVE SMOOTH",
"491 997 OFFCURVE",
"461 989 OFFCURVE",
"442 980 CURVE",
"443 950 LINE",
"464 961 OFFCURVE",
"485 966 OFFCURVE",
"501 966 CURVE SMOOTH",
"539 966 OFFCURVE",
"553 945 OFFCURVE",
"548 920 CURVE SMOOTH",
"542 889 OFFCURVE",
"516 868 OFFCURVE",
"477 868 CURVE SMOOTH",
"454 868 LINE",
"441 778 LINE"
);
}
);
width = 708;
}
);
leftKerningGroup = O;
note = Ohornhookabove;
rightKerningGroup = O;
unicode = 1EDE;
},
{
glyphname = Ohorntilde;
lastChange = "2015-10-27 08:20:56 +0000";
layers = (
{
layerId = "6452E246-BF19-4A01-B77D-5979BB06C1CE";
name = "Regular Italic";
paths = (
{
closed = 1;
nodes = (
"501 -10 OFFCURVE",
"637 127 OFFCURVE",
"684 350 CURVE SMOOTH",
"729 572 OFFCURVE",
"648 710 OFFCURVE",
"448 710 CURVE SMOOTH",
"248 710 OFFCURVE",
"113 572 OFFCURVE",
"68 350 CURVE SMOOTH",
"22 127 OFFCURVE",
"101 -10 OFFCURVE",
"301 -10 CURVE SMOOTH"
);
},
{
closed = 1;
nodes = (
"160 27 OFFCURVE",
"119 163 OFFCURVE",
"157 350 CURVE SMOOTH",
"195 536 OFFCURVE",
"293 673 OFFCURVE",
"442 673 CURVE SMOOTH",
"590 673 OFFCURVE",
"632 536 OFFCURVE",
"594 350 CURVE SMOOTH",
"556 163 OFFCURVE",
"458 27 OFFCURVE",
"309 27 CURVE SMOOTH"
);
},
{
closed = 1;
nodes = (
"333 786 LINE",
"348 821 OFFCURVE",
"375 843 OFFCURVE",
"405 843 CURVE SMOOTH",
"444 843 OFFCURVE",
"486 787 OFFCURVE",
"534 787 CURVE SMOOTH",
"590 787 OFFCURVE",
"629 828 OFFCURVE",
"649 891 CURVE",
"619 891 LINE",
"601 848 OFFCURVE",
"572 831 OFFCURVE",
"544 831 CURVE SMOOTH",
"505 831 OFFCURVE",
"471 886 OFFCURVE",
"416 886 CURVE SMOOTH",
"366 886 OFFCURVE",
"324 855 OFFCURVE",
"301 786 CURVE"
);
},
{
closed = 1;
nodes = (
"761 560 OFFCURVE",
"803 621 OFFCURVE",
"812 666 CURVE SMOOTH",
"819 698 OFFCURVE",
"818 736 OFFCURVE",
"768 736 CURVE SMOOTH",
"730 736 OFFCURVE",
"710 710 OFFCURVE",
"706 686 CURVE SMOOTH",
"700 656 OFFCURVE",
"714 638 OFFCURVE",
"740 638 CURVE SMOOTH",
"746 638 OFFCURVE",
"753 639 OFFCURVE",
"759 643 CURVE",
"744 596 OFFCURVE",
"694 554 OFFCURVE",
"663 535 CURVE",
"677 508 LINE"
);
}
);
width = 708;
}
);
leftKerningGroup = O;
note = Ohorntilde;
rightKerningGroup = O;
unicode = 1EE0;
},
{
glyphname = Ohungarumlaut;
lastChange = "2015-10-27 08:20:56 +0000";
layers = (
{
layerId = "6452E246-BF19-4A01-B77D-5979BB06C1CE";
name = "Regular Italic";
paths = (
{
closed = 1;
nodes = (
"501 -10 OFFCURVE",
"637 127 OFFCURVE",
"684 350 CURVE SMOOTH",
"729 572 OFFCURVE",
"648 710 OFFCURVE",
"448 710 CURVE SMOOTH",
"248 710 OFFCURVE",
"113 572 OFFCURVE",
"68 350 CURVE SMOOTH",
"22 127 OFFCURVE",
"101 -10 OFFCURVE",
"301 -10 CURVE SMOOTH"
);
},
{
closed = 1;
nodes = (
"160 27 OFFCURVE",
"119 163 OFFCURVE",
"157 350 CURVE SMOOTH",
"195 536 OFFCURVE",
"293 673 OFFCURVE",
"442 673 CURVE SMOOTH",
"590 673 OFFCURVE",
"632 536 OFFCURVE",
"594 350 CURVE SMOOTH",
"556 163 OFFCURVE",
"458 27 OFFCURVE",
"309 27 CURVE SMOOTH"
);
},
{
closed = 1;
nodes = (
"491 868 LINE SMOOTH",
"514 880 OFFCURVE",
"528 894 OFFCURVE",
"531 910 CURVE SMOOTH",
"534 924 OFFCURVE",
"526 938 OFFCURVE",
"506 938 CURVE SMOOTH",
"486 938 OFFCURVE",
"466 921 OFFCURVE",
"458 914 CURVE",
"327 808 LINE",
"338 785 LINE"
);
},
{
closed = 1;
nodes = (
"681 868 LINE SMOOTH",
"704 880 OFFCURVE",
"718 894 OFFCURVE",
"721 910 CURVE SMOOTH",
"724 924 OFFCURVE",
"716 938 OFFCURVE",
"696 938 CURVE SMOOTH",
"676 938 OFFCURVE",
"655 921 OFFCURVE",
"648 914 CURVE",
"516 808 LINE",
"527 785 LINE"
);
}
);
width = 686;
}
);
leftKerningGroup = O;
note = Ohungarumlaut;
rightKerningGroup = O;
unicode = 0150;
},
{
glyphname = Omacron;
lastChange = "2015-10-27 08:20:57 +0000";
layers = (
{
layerId = "6452E246-BF19-4A01-B77D-5979BB06C1CE";
name = "Regular Italic";
paths = (
{
closed = 1;
nodes = (
"501 -10 OFFCURVE",
"637 127 OFFCURVE",
"684 350 CURVE SMOOTH",
"729 572 OFFCURVE",
"648 710 OFFCURVE",
"448 710 CURVE SMOOTH",
"248 710 OFFCURVE",
"113 572 OFFCURVE",
"68 350 CURVE SMOOTH",
"22 127 OFFCURVE",
"101 -10 OFFCURVE",
"301 -10 CURVE SMOOTH"
);
},
{
closed = 1;
nodes = (
"160 27 OFFCURVE",
"119 163 OFFCURVE",
"157 350 CURVE SMOOTH",
"195 536 OFFCURVE",
"293 673 OFFCURVE",
"442 673 CURVE SMOOTH",
"590 673 OFFCURVE",
"632 536 OFFCURVE",
"594 350 CURVE SMOOTH",
"556 163 OFFCURVE",
"458 27 OFFCURVE",
"309 27 CURVE SMOOTH"
);
},
{
closed = 1;
nodes = (
"625 797 LINE",
"632 832 LINE",
"313 832 LINE",
"306 797 LINE"
);
}
);
width = 686;
}
);
leftKerningGroup = O;
note = Omacron;
rightKerningGroup = O;
unicode = 014C;
},
{
glyphname = Oslash;
lastChange = "2015-11-28 10:27:28 +0000";
layers = (
{
layerId = "6452E246-BF19-4A01-B77D-5979BB06C1CE";
name = "Regular Italic";
paths = (
{
closed = 1;
nodes = (
"501 -10 OFFCURVE",
"637 127 OFFCURVE",
"684 350 CURVE SMOOTH",
"729 572 OFFCURVE",
"648 710 OFFCURVE",
"448 710 CURVE SMOOTH",
"248 710 OFFCURVE",
"113 572 OFFCURVE",
"68 350 CURVE SMOOTH",
"22 127 OFFCURVE",
"101 -10 OFFCURVE",
"301 -10 CURVE SMOOTH"
);
},
{
closed = 1;
nodes = (
"160 27 OFFCURVE",
"119 163 OFFCURVE",
"157 350 CURVE SMOOTH",
"195 536 OFFCURVE",
"293 673 OFFCURVE",
"442 673 CURVE SMOOTH",
"590 673 OFFCURVE",
"632 536 OFFCURVE",
"594 350 CURVE SMOOTH",
"556 163 OFFCURVE",
"458 27 OFFCURVE",
"309 27 CURVE SMOOTH"
);
},
{
closed = 1;
nodes = (
"697 698 LINE",
"671 720 LINE",
"36 -8 LINE",
"60 -30 LINE"
);
}
);
width = 686;
}
);
leftKerningGroup = O;
note = Oslash;
rightKerningGroup = O;
unicode = 00D8;
},
{
glyphname = Oslashacute;
lastChange = "2015-11-28 10:27:31 +0000";
layers = (
{
layerId = "6452E246-BF19-4A01-B77D-5979BB06C1CE";
name = "Regular Italic";
paths = (
{
closed = 1;
nodes = (
"501 -10 OFFCURVE",
"637 127 OFFCURVE",
"684 350 CURVE SMOOTH",
"729 572 OFFCURVE",
"648 710 OFFCURVE",
"448 710 CURVE SMOOTH",
"248 710 OFFCURVE",
"113 572 OFFCURVE",
"68 350 CURVE SMOOTH",
"22 127 OFFCURVE",
"101 -10 OFFCURVE",
"301 -10 CURVE SMOOTH"
);
},
{
closed = 1;
nodes = (
"160 27 OFFCURVE",
"119 163 OFFCURVE",
"157 350 CURVE SMOOTH",
"195 536 OFFCURVE",
"293 673 OFFCURVE",
"442 673 CURVE SMOOTH",
"590 673 OFFCURVE",
"632 536 OFFCURVE",
"594 350 CURVE SMOOTH",
"556 163 OFFCURVE",
"458 27 OFFCURVE",
"309 27 CURVE SMOOTH"
);
},
{
closed = 1;
nodes = (
"555 868 LINE SMOOTH",
"578 881 OFFCURVE",
"591 895 OFFCURVE",
"594 911 CURVE",
"597 924 OFFCURVE",
"590 938 OFFCURVE",
"570 938 CURVE SMOOTH",
"549 938 OFFCURVE",
"531 922 OFFCURVE",
"522 915 CURVE SMOOTH",
"392 809 LINE",
"402 786 LINE"
);
},
{
closed = 1;
nodes = (
"697 698 LINE",
"671 720 LINE",
"36 -8 LINE",
"60 -30 LINE"
);
}
);
width = 686;
}
);
leftKerningGroup = O;
note = Oslashacute;
rightKerningGroup = O;
unicode = 01FE;
},
{
glyphname = Otilde;
lastChange = "2015-10-27 08:20:56 +0000";
layers = (
{
layerId = "6452E246-BF19-4A01-B77D-5979BB06C1CE";
name = "Regular Italic";
paths = (
{
closed = 1;
nodes = (
"501 -10 OFFCURVE",
"637 127 OFFCURVE",
"684 350 CURVE SMOOTH",
"729 572 OFFCURVE",
"648 710 OFFCURVE",
"448 710 CURVE SMOOTH",
"248 710 OFFCURVE",
"113 572 OFFCURVE",
"68 350 CURVE SMOOTH",
"22 127 OFFCURVE",
"101 -10 OFFCURVE",
"301 -10 CURVE SMOOTH"
);
},
{
closed = 1;
nodes = (
"160 27 OFFCURVE",
"119 163 OFFCURVE",
"157 350 CURVE SMOOTH",
"195 536 OFFCURVE",
"293 673 OFFCURVE",
"442 673 CURVE SMOOTH",
"590 673 OFFCURVE",
"632 536 OFFCURVE",
"594 350 CURVE SMOOTH",
"556 163 OFFCURVE",
"458 27 OFFCURVE",
"309 27 CURVE SMOOTH"
);
},
{
closed = 1;
nodes = (
"332 786 LINE",
"347 821 OFFCURVE",
"374 843 OFFCURVE",
"404 843 CURVE SMOOTH",
"443 843 OFFCURVE",
"485 787 OFFCURVE",
"533 787 CURVE SMOOTH",
"589 787 OFFCURVE",
"628 828 OFFCURVE",
"648 891 CURVE",
"618 891 LINE",
"600 848 OFFCURVE",
"571 831 OFFCURVE",
"543 831 CURVE SMOOTH",
"504 831 OFFCURVE",
"470 886 OFFCURVE",
"415 886 CURVE SMOOTH",
"365 886 OFFCURVE",
"324 855 OFFCURVE",
"300 786 CURVE"
);
}
);
width = 686;
}
);
leftKerningGroup = O;
note = Otilde;
rightKerningGroup = O;
unicode = 00D5;
},
{
glyphname = OE;
lastChange = "2015-10-27 08:20:57 +0000";
layers = (
{
layerId = "6452E246-BF19-4A01-B77D-5979BB06C1CE";
name = "Regular Italic";
paths = (
{
closed = 1;
nodes = (
"357 -10 OFFCURVE",
"412 6 OFFCURVE",
"462 44 CURVE",
"453 0 LINE",
"864 0 LINE",
"906 144 LINE",
"886 144 LINE",
"870 125 OFFCURVE",
"836 65 OFFCURVE",
"828 35 CURVE",
"549 35 LINE",
"612 341 LINE",
"812 341 LINE",
"810 324 OFFCURVE",
"808 284 OFFCURVE",
"812 258 CURVE",
"828 258 LINE",
"869 460 LINE",
"853 460 LINE",
"839 436 OFFCURVE",
"825 395 OFFCURVE",
"820 377 CURVE",
"619 377 LINE",
"677 663 LINE",
"952 663 LINE",
"949 637 OFFCURVE",
"950 574 OFFCURVE",
"956 554 CURVE",
"977 554 LINE",
"1007 700 LINE",
"595 700 LINE",
"586 653 LINE",
"554 689 OFFCURVE",
"504 710 OFFCURVE",
"436 710 CURVE SMOOTH",
"235 710 OFFCURVE",
"109 552 OFFCURVE",
"68 350 CURVE SMOOTH",
"27 146 OFFCURVE",
"88 -10 OFFCURVE",
"289 -10 CURVE SMOOTH"
);
},
{
closed = 1;
nodes = (
"161 27 OFFCURVE",
"120 163 OFFCURVE",
"158 350 CURVE SMOOTH",
"196 536 OFFCURVE",
"294 673 OFFCURVE",
"442 673 CURVE SMOOTH",
"506 673 OFFCURVE",
"552 641 OFFCURVE",
"575 598 CURVE",
"473 100 LINE",
"429 55 OFFCURVE",
"373 27 OFFCURVE",
"309 27 CURVE SMOOTH"
);
}
);
width = 962;
}
);
note = OE;
unicode = 0152;
},
{
glyphname = P;
lastChange = "2015-10-27 08:20:58 +0000";
layers = (
{
layerId = "6452E246-BF19-4A01-B77D-5979BB06C1CE";
name = "Regular Italic";
paths = (
{
closed = 1;
nodes = (
"241 0 LINE",
"243 11 LINE",
"221 19 OFFCURVE",
"193 26 OFFCURVE",
"169 30 CURVE",
"219 277 LINE",
"364 277 LINE SMOOTH",
"509 277 OFFCURVE",
"591 371 OFFCURVE",
"616 492 CURVE SMOOTH",
"642 620 OFFCURVE",
"599 700 OFFCURVE",
"426 700 CURVE SMOOTH",
"140 700 LINE",
"138 688 LINE",
"161 679 OFFCURVE",
"186 673 OFFCURVE",
"210 669 CURVE",
"80 30 LINE",
"61 28 OFFCURVE",
"25 20 OFFCURVE",
"-2 12 CURVE",
"-4 0 LINE"
);
},
{
closed = 1;
nodes = (
"298 663 LINE",
"423 663 LINE SMOOTH",
"521 663 OFFCURVE",
"550 595 OFFCURVE",
"529 493 CURVE SMOOTH",
"509 393 OFFCURVE",
"452 312 OFFCURVE",
"352 312 CURVE SMOOTH",
"227 312 LINE"
);
}
);
width = 585;
}
);
note = P;
unicode = 0050;
},
{
glyphname = Thorn;
lastChange = "2015-11-28 10:27:38 +0000";
layers = (
{
layerId = "6452E246-BF19-4A01-B77D-5979BB06C1CE";
name = "Regular Italic";
paths = (
{
closed = 1;
nodes = (
"241 0 LINE",
"243 11 LINE",
"221 19 OFFCURVE",
"194 26 OFFCURVE",
"169 30 CURVE",
"191 140 LINE",
"337 140 LINE SMOOTH",
"481 140 OFFCURVE",
"564 234 OFFCURVE",
"589 355 CURVE SMOOTH",
"613 473 OFFCURVE",
"576 562 OFFCURVE",
"422 562 CURVE SMOOTH",
"277 562 LINE",
"305 700 LINE",
"140 700 LINE",
"138 688 LINE",
"162 679 OFFCURVE",
"186 673 OFFCURVE",
"211 669 CURVE",
"81 30 LINE",
"62 28 OFFCURVE",
"26 20 OFFCURVE",
"-2 12 CURVE",
"-4 0 LINE"
);
},
{
closed = 1;
nodes = (
"271 527 LINE",
"394 527 LINE SMOOTH",
"494 527 OFFCURVE",
"522 460 OFFCURVE",
"501 356 CURVE SMOOTH",
"481 256 OFFCURVE",
"425 175 OFFCURVE",
"324 175 CURVE SMOOTH",
"199 175 LINE"
);
}
);
width = 585;
}
);
note = Thorn;
unicode = 00DE;
},
{
glyphname = Q;
lastChange = "2015-11-28 10:27:42 +0000";
layers = (
{
layerId = "6452E246-BF19-4A01-B77D-5979BB06C1CE";
name = "Regular Italic";
paths = (
{
closed = 1;
nodes = (
"501 -10 OFFCURVE",
"637 127 OFFCURVE",
"684 350 CURVE SMOOTH",
"729 572 OFFCURVE",
"648 710 OFFCURVE",
"448 710 CURVE SMOOTH",
"248 710 OFFCURVE",
"113 572 OFFCURVE",
"68 350 CURVE SMOOTH",
"22 127 OFFCURVE",
"101 -10 OFFCURVE",
"301 -10 CURVE SMOOTH"
);
},
{
closed = 1;
nodes = (
"161 27 OFFCURVE",
"119 163 OFFCURVE",
"157 350 CURVE SMOOTH",
"195 536 OFFCURVE",
"294 673 OFFCURVE",
"442 673 CURVE SMOOTH",
"589 673 OFFCURVE",
"632 536 OFFCURVE",
"594 350 CURVE SMOOTH",
"556 163 OFFCURVE",
"457 27 OFFCURVE",
"309 27 CURVE SMOOTH"
);
},
{
closed = 1;
nodes = (
"503 -127 LINE",
"405 -118 OFFCURVE",
"355 -66 OFFCURVE",
"364 10 CURVE",
"277 10 LINE",
"271 -83 OFFCURVE",
"340 -146 OFFCURVE",
"496 -159 CURVE"
);
}
);
width = 686;
}
);
leftKerningGroup = O;
note = Q;
rightKerningGroup = O;
unicode = 0051;
},
{
glyphname = R;
lastChange = "2015-11-28 10:27:47 +0000";
layers = (
{
layerId = "6452E246-BF19-4A01-B77D-5979BB06C1CE";
name = "Regular Italic";
paths = (
{
closed = 1;
nodes = (
"245 0 LINE",
"247 11 LINE",
"224 19 OFFCURVE",
"197 26 OFFCURVE",
"173 30 CURVE",
"228 300 LINE",
"378 300 LINE SMOOTH",
"515 300 OFFCURVE",
"601 378 OFFCURVE",
"626 502 CURVE SMOOTH",
"650 620 OFFCURVE",
"613 700 OFFCURVE",
"460 700 CURVE SMOOTH",
"144 700 LINE",
"142 688 LINE",
"165 679 OFFCURVE",
"189 673 OFFCURVE",
"214 669 CURVE",
"84 30 LINE",
"65 28 OFFCURVE",
"28 20 OFFCURVE",
"2 12 CURVE",
"0 0 LINE"
);
},
{
closed = 1;
nodes = (
"301 663 LINE",
"427 663 LINE SMOOTH",
"528 663 OFFCURVE",
"559 605 OFFCURVE",
"538 503 CURVE SMOOTH",
"517 403 OFFCURVE",
"463 336 OFFCURVE",
"361 336 CURVE SMOOTH",
"235 336 LINE"
);
},
{
closed = 1;
nodes = (
"579 0 LINE",
"581 12 LINE",
"564 20 OFFCURVE",
"535 26 OFFCURVE",
"515 30 CURVE",
"419 310 LINE",
"339 310 LINE",
"439 0 LINE"
);
}
);
width = 641;
}
);
note = R;
rightKerningGroup = R;
unicode = 0052;
},
{
glyphname = Racute;
lastChange = "2015-11-28 10:27:51 +0000";
layers = (
{
layerId = "6452E246-BF19-4A01-B77D-5979BB06C1CE";
name = "Regular Italic";
paths = (
{
closed = 1;
nodes = (
"245 0 LINE",
"247 11 LINE",
"224 19 OFFCURVE",
"197 26 OFFCURVE",
"173 30 CURVE",
"228 300 LINE",
"378 300 LINE SMOOTH",
"515 300 OFFCURVE",
"601 378 OFFCURVE",
"626 502 CURVE SMOOTH",
"650 620 OFFCURVE",
"613 700 OFFCURVE",
"460 700 CURVE SMOOTH",
"144 700 LINE",
"142 688 LINE",
"165 679 OFFCURVE",
"189 673 OFFCURVE",
"214 669 CURVE",
"84 30 LINE",
"65 28 OFFCURVE",
"28 20 OFFCURVE",
"2 12 CURVE",
"0 0 LINE"
);
},
{
closed = 1;
nodes = (
"301 663 LINE",
"427 663 LINE SMOOTH",
"528 663 OFFCURVE",
"559 605 OFFCURVE",
"538 503 CURVE SMOOTH",
"517 403 OFFCURVE",
"463 336 OFFCURVE",
"361 336 CURVE SMOOTH",
"235 336 LINE"
);
},
{
closed = 1;
nodes = (
"579 0 LINE",
"581 12 LINE",
"564 20 OFFCURVE",
"535 26 OFFCURVE",
"515 30 CURVE",
"419 310 LINE",
"339 310 LINE",
"439 0 LINE"
);
},
{
closed = 1;
nodes = (
"519 868 LINE SMOOTH",
"542 881 OFFCURVE",
"556 895 OFFCURVE",
"559 911 CURVE",
"562 924 OFFCURVE",
"555 938 OFFCURVE",
"535 938 CURVE SMOOTH",
"514 938 OFFCURVE",
"495 922 OFFCURVE",
"487 915 CURVE SMOOTH",
"356 809 LINE",
"367 786 LINE"
);
}
);
width = 641;
}
);
note = Racute;
rightKerningGroup = R;
unicode = 0154;
},
{
glyphname = Rcaron;
lastChange = "2015-11-28 10:27:58 +0000";
layers = (
{
layerId = "6452E246-BF19-4A01-B77D-5979BB06C1CE";
name = "Regular Italic";
paths = (
{
closed = 1;
nodes = (
"245 0 LINE",
"247 11 LINE",
"224 19 OFFCURVE",
"197 26 OFFCURVE",
"173 30 CURVE",
"228 300 LINE",
"378 300 LINE SMOOTH",
"515 300 OFFCURVE",
"601 378 OFFCURVE",
"626 502 CURVE SMOOTH",
"650 620 OFFCURVE",
"613 700 OFFCURVE",
"460 700 CURVE SMOOTH",
"144 700 LINE",
"142 688 LINE",
"165 679 OFFCURVE",
"189 673 OFFCURVE",
"214 669 CURVE",
"84 30 LINE",
"65 28 OFFCURVE",
"28 20 OFFCURVE",
"2 12 CURVE",
"0 0 LINE"
);
},
{
closed = 1;
nodes = (
"301 663 LINE",
"427 663 LINE SMOOTH",
"528 663 OFFCURVE",
"559 605 OFFCURVE",
"538 503 CURVE SMOOTH",
"517 403 OFFCURVE",
"463 336 OFFCURVE",
"361 336 CURVE SMOOTH",
"235 336 LINE"
);
},
{
closed = 1;
nodes = (
"579 0 LINE",
"581 12 LINE",
"564 20 OFFCURVE",
"535 26 OFFCURVE",
"515 30 CURVE",
"419 310 LINE",
"339 310 LINE",
"439 0 LINE"
);
},
{
closed = 1;
nodes = (
"457 786 LINE",
"492 827 OFFCURVE",
"563 882 OFFCURVE",
"608 909 CURVE",
"578 941 LINE",
"536 913 OFFCURVE",
"480 868 OFFCURVE",
"447 832 CURVE",
"443 832 LINE",
"425 868 OFFCURVE",
"388 913 OFFCURVE",
"357 941 CURVE",
"316 909 LINE",
"348 882 OFFCURVE",
"396 827 OFFCURVE",
"416 786 CURVE"
);
}
);
width = 641;
}
);
note = Rcaron;
rightKerningGroup = R;
unicode = 0158;
},
{
glyphname = Rcommaaccent;
lastChange = "2015-11-28 10:28:03 +0000";
layers = (
{
layerId = "6452E246-BF19-4A01-B77D-5979BB06C1CE";
name = "Regular Italic";
paths = (
{
closed = 1;
nodes = (
"245 0 LINE",
"247 11 LINE",
"224 19 OFFCURVE",
"197 26 OFFCURVE",
"173 30 CURVE",
"228 300 LINE",
"378 300 LINE SMOOTH",
"515 300 OFFCURVE",
"601 378 OFFCURVE",
"626 502 CURVE SMOOTH",
"650 620 OFFCURVE",
"613 700 OFFCURVE",
"460 700 CURVE SMOOTH",
"144 700 LINE",
"142 688 LINE",
"165 679 OFFCURVE",
"189 673 OFFCURVE",
"214 669 CURVE",
"84 30 LINE",
"65 28 OFFCURVE",
"28 20 OFFCURVE",
"2 12 CURVE",
"0 0 LINE"
);
},
{
closed = 1;
nodes = (
"301 663 LINE",
"427 663 LINE SMOOTH",
"528 663 OFFCURVE",
"559 605 OFFCURVE",
"538 503 CURVE SMOOTH",
"517 403 OFFCURVE",
"463 336 OFFCURVE",
"361 336 CURVE SMOOTH",
"235 336 LINE"
);
},
{
closed = 1;
nodes = (
"273 -263 OFFCURVE",
"316 -190 OFFCURVE",
"327 -135 CURVE SMOOTH",
"335 -98 OFFCURVE",
"324 -69 OFFCURVE",
"283 -69 CURVE SMOOTH",
"256 -69 OFFCURVE",
"228 -86 OFFCURVE",
"221 -118 CURVE SMOOTH",
"216 -145 OFFCURVE",
"228 -162 OFFCURVE",
"250 -166 CURVE SMOOTH",
"255 -167 OFFCURVE",
"261 -167 OFFCURVE",
"268 -166 CURVE",
"256 -207 OFFCURVE",
"228 -249 OFFCURVE",
"199 -277 CURVE",
"224 -302 LINE"
);
},
{
closed = 1;
nodes = (
"579 0 LINE",
"581 12 LINE",
"564 20 OFFCURVE",
"535 26 OFFCURVE",
"515 30 CURVE",
"419 310 LINE",
"339 310 LINE",
"439 0 LINE"
);
}
);
width = 641;
}
);
note = Rcommaaccent;
rightKerningGroup = R;
unicode = 0156;
},
{
glyphname = Rdotbelow;
lastChange = "2015-11-28 10:28:12 +0000";
layers = (
{
layerId = "6452E246-BF19-4A01-B77D-5979BB06C1CE";
name = "Regular Italic";
paths = (
{
closed = 1;
nodes = (
"245 0 LINE",
"247 11 LINE",
"224 19 OFFCURVE",
"197 26 OFFCURVE",
"173 30 CURVE",
"228 300 LINE",
"378 300 LINE SMOOTH",
"515 300 OFFCURVE",
"601 378 OFFCURVE",
"626 502 CURVE SMOOTH",
"650 620 OFFCURVE",
"613 700 OFFCURVE",
"460 700 CURVE SMOOTH",
"144 700 LINE",
"142 688 LINE",
"165 679 OFFCURVE",
"189 673 OFFCURVE",
"214 669 CURVE",
"84 30 LINE",
"65 28 OFFCURVE",
"28 20 OFFCURVE",
"2 12 CURVE",
"0 0 LINE"
);
},
{
closed = 1;
nodes = (
"301 663 LINE",
"427 663 LINE SMOOTH",
"528 663 OFFCURVE",
"559 605 OFFCURVE",
"538 503 CURVE SMOOTH",
"517 403 OFFCURVE",
"463 336 OFFCURVE",
"361 336 CURVE SMOOTH",
"235 336 LINE"
);
},
{
closed = 1;
nodes = (
"579 0 LINE",
"581 12 LINE",
"564 20 OFFCURVE",
"535 26 OFFCURVE",
"515 30 CURVE",
"419 310 LINE",
"339 310 LINE",
"439 0 LINE"
);
},
{
closed = 1;
nodes = (
"288 -151 OFFCURVE",
"309 -132 OFFCURVE",
"315 -106 CURVE SMOOTH",
"321 -78 OFFCURVE",
"307 -59 OFFCURVE",
"281 -59 CURVE SMOOTH",
"255 -59 OFFCURVE",
"234 -78 OFFCURVE",
"228 -106 CURVE SMOOTH",
"223 -132 OFFCURVE",
"236 -151 OFFCURVE",
"262 -151 CURVE SMOOTH"
);
}
);
width = 641;
}
);
note = Rdotbelow;
rightKerningGroup = R;
unicode = 1E5A;
},
{
glyphname = Rdotbelowmacron;
lastChange = "2015-11-28 10:28:21 +0000";
layers = (
{
layerId = "6452E246-BF19-4A01-B77D-5979BB06C1CE";
name = "Regular Italic";
paths = (
{
closed = 1;
nodes = (
"245 0 LINE",
"247 11 LINE",
"224 19 OFFCURVE",
"197 26 OFFCURVE",
"173 30 CURVE",
"228 300 LINE",
"378 300 LINE SMOOTH",
"515 300 OFFCURVE",
"601 378 OFFCURVE",
"626 502 CURVE SMOOTH",
"650 620 OFFCURVE",
"613 700 OFFCURVE",
"460 700 CURVE SMOOTH",
"144 700 LINE",
"142 688 LINE",
"165 679 OFFCURVE",
"189 673 OFFCURVE",
"214 669 CURVE",
"84 30 LINE",
"65 28 OFFCURVE",
"28 20 OFFCURVE",
"2 12 CURVE",
"0 0 LINE"
);
},
{
closed = 1;
nodes = (
"301 663 LINE",
"427 663 LINE SMOOTH",
"528 663 OFFCURVE",
"559 605 OFFCURVE",
"538 503 CURVE SMOOTH",
"517 403 OFFCURVE",
"463 336 OFFCURVE",
"361 336 CURVE SMOOTH",
"235 336 LINE"
);
},
{
closed = 1;
nodes = (
"576 785 LINE",
"584 820 LINE",
"244 820 LINE",
"236 785 LINE"
);
},
{
closed = 1;
nodes = (
"288 -151 OFFCURVE",
"309 -132 OFFCURVE",
"315 -106 CURVE SMOOTH",
"321 -78 OFFCURVE",
"307 -59 OFFCURVE",
"280 -59 CURVE SMOOTH",
"255 -59 OFFCURVE",
"234 -78 OFFCURVE",
"228 -106 CURVE SMOOTH",
"223 -132 OFFCURVE",
"236 -151 OFFCURVE",
"261 -151 CURVE SMOOTH"
);
},
{
closed = 1;
nodes = (
"579 0 LINE",
"581 12 LINE",
"564 20 OFFCURVE",
"535 26 OFFCURVE",
"515 30 CURVE",
"419 310 LINE",
"339 310 LINE",
"439 0 LINE"
);
}
);
width = 641;
}
);
note = Rdotbelowmacron;
rightKerningGroup = R;
unicode = 1E5C;
},
{
glyphname = Rlinebelow;
lastChange = "2015-11-28 10:28:32 +0000";
layers = (
{
layerId = "6452E246-BF19-4A01-B77D-5979BB06C1CE";
name = "Regular Italic";
paths = (
{
closed = 1;
nodes = (
"245 0 LINE",
"247 11 LINE",
"224 19 OFFCURVE",
"197 26 OFFCURVE",
"173 30 CURVE",
"228 300 LINE",
"378 300 LINE SMOOTH",
"515 300 OFFCURVE",
"601 378 OFFCURVE",
"626 502 CURVE SMOOTH",
"650 620 OFFCURVE",
"613 700 OFFCURVE",
"460 700 CURVE SMOOTH",
"144 700 LINE",
"142 688 LINE",
"165 679 OFFCURVE",
"189 673 OFFCURVE",
"214 669 CURVE",
"84 30 LINE",
"65 28 OFFCURVE",
"28 20 OFFCURVE",
"2 12 CURVE",
"0 0 LINE"
);
},
{
closed = 1;
nodes = (
"301 663 LINE",
"427 663 LINE SMOOTH",
"528 663 OFFCURVE",
"559 605 OFFCURVE",
"538 503 CURVE SMOOTH",
"517 403 OFFCURVE",
"463 336 OFFCURVE",
"361 336 CURVE SMOOTH",
"235 336 LINE"
);
},
{
closed = 1;
nodes = (
"417 -104 LINE",
"424 -69 LINE",
"106 -69 LINE",
"98 -104 LINE"
);
},
{
closed = 1;
nodes = (
"579 0 LINE",
"581 12 LINE",
"564 20 OFFCURVE",
"535 26 OFFCURVE",
"515 30 CURVE",
"419 310 LINE",
"339 310 LINE",
"439 0 LINE"
);
}
);
width = 641;
}
);
note = Rlinebelow;
rightKerningGroup = R;
unicode = 1E5E;
},
{
glyphname = S;
lastChange = "2015-10-27 08:20:57 +0000";
layers = (
{
layerId = "6452E246-BF19-4A01-B77D-5979BB06C1CE";
name = "Regular Italic";
paths = (
{
closed = 1;
nodes = (
"348 -10 OFFCURVE",
"464 63 OFFCURVE",
"489 184 CURVE SMOOTH",
"539 432 OFFCURVE",
"177 396 OFFCURVE",
"209 556 CURVE SMOOTH",
"225 631 OFFCURVE",
"286 673 OFFCURVE",
"389 673 CURVE SMOOTH",
"442 673 OFFCURVE",
"482 657 OFFCURVE",
"505 629 CURVE",
"501 594 OFFCURVE",
"498 547 OFFCURVE",
"501 521 CURVE",
"523 521 LINE",
"557 638 LINE",
"522 686 OFFCURVE",
"464 710 OFFCURVE",
"373 710 CURVE SMOOTH",
"240 710 OFFCURVE",
"139 655 OFFCURVE",
"116 543 CURVE SMOOTH",
"70 318 OFFCURVE",
"436 370 OFFCURVE",
"396 170 CURVE SMOOTH",
"375 75 OFFCURVE",
"286 27 OFFCURVE",
"202 27 CURVE SMOOTH",
"132 27 OFFCURVE",
"85 56 OFFCURVE",
"62 95 CURVE",
"66 129 OFFCURVE",
"74 191 OFFCURVE",
"70 218 CURVE",
"48 218 LINE",
"11 82 LINE",
"40 30 OFFCURVE",
"112 -10 OFFCURVE",
"216 -10 CURVE SMOOTH"
);
}
);
width = 523;
}
);
leftKerningGroup = S;
note = S;
rightKerningGroup = S;
unicode = 0053;
},
{
glyphname = Sacute;
lastChange = "2015-10-27 08:20:56 +0000";
layers = (
{
layerId = "6452E246-BF19-4A01-B77D-5979BB06C1CE";
name = "Regular Italic";
paths = (
{
closed = 1;
nodes = (
"348 -10 OFFCURVE",
"464 63 OFFCURVE",
"489 184 CURVE SMOOTH",
"539 432 OFFCURVE",
"177 396 OFFCURVE",
"209 556 CURVE SMOOTH",
"225 631 OFFCURVE",
"286 673 OFFCURVE",
"389 673 CURVE SMOOTH",
"442 673 OFFCURVE",
"482 657 OFFCURVE",
"505 629 CURVE",
"501 594 OFFCURVE",
"498 547 OFFCURVE",
"501 521 CURVE",
"523 521 LINE",
"557 638 LINE",
"522 686 OFFCURVE",
"464 710 OFFCURVE",
"373 710 CURVE SMOOTH",
"240 710 OFFCURVE",
"139 655 OFFCURVE",
"116 543 CURVE SMOOTH",
"70 318 OFFCURVE",
"436 370 OFFCURVE",
"396 170 CURVE SMOOTH",
"375 75 OFFCURVE",
"286 27 OFFCURVE",
"202 27 CURVE SMOOTH",
"132 27 OFFCURVE",
"85 56 OFFCURVE",
"62 95 CURVE",
"66 129 OFFCURVE",
"74 191 OFFCURVE",
"70 218 CURVE",
"48 218 LINE",
"11 82 LINE",
"40 30 OFFCURVE",
"112 -10 OFFCURVE",
"216 -10 CURVE SMOOTH"
);
},
{
closed = 1;
nodes = (
"480 868 LINE SMOOTH",
"503 881 OFFCURVE",
"516 895 OFFCURVE",
"519 911 CURVE",
"522 924 OFFCURVE",
"516 938 OFFCURVE",
"495 938 CURVE SMOOTH",
"474 938 OFFCURVE",
"456 922 OFFCURVE",
"447 915 CURVE SMOOTH",
"317 809 LINE",
"327 786 LINE"
);
}
);
width = 523;
}
);
leftKerningGroup = S;
note = Sacute;
rightKerningGroup = S;
unicode = 015A;
},
{
glyphname = Scaron;
lastChange = "2015-10-27 08:20:58 +0000";
layers = (
{
layerId = "6452E246-BF19-4A01-B77D-5979BB06C1CE";
name = "Regular Italic";
paths = (
{
closed = 1;
nodes = (
"348 -10 OFFCURVE",
"464 63 OFFCURVE",
"489 184 CURVE SMOOTH",
"539 432 OFFCURVE",
"177 396 OFFCURVE",
"209 556 CURVE SMOOTH",
"225 631 OFFCURVE",
"286 673 OFFCURVE",
"389 673 CURVE SMOOTH",
"442 673 OFFCURVE",
"482 657 OFFCURVE",
"505 629 CURVE",
"501 594 OFFCURVE",
"498 547 OFFCURVE",
"501 521 CURVE",
"523 521 LINE",
"557 638 LINE",
"522 686 OFFCURVE",
"464 710 OFFCURVE",
"373 710 CURVE SMOOTH",
"240 710 OFFCURVE",
"139 655 OFFCURVE",
"116 543 CURVE SMOOTH",
"70 318 OFFCURVE",
"436 370 OFFCURVE",
"396 170 CURVE SMOOTH",
"375 75 OFFCURVE",
"286 27 OFFCURVE",
"202 27 CURVE SMOOTH",
"132 27 OFFCURVE",
"85 56 OFFCURVE",
"62 95 CURVE",
"66 129 OFFCURVE",
"74 191 OFFCURVE",
"70 218 CURVE",
"48 218 LINE",
"11 82 LINE",
"40 30 OFFCURVE",
"112 -10 OFFCURVE",
"216 -10 CURVE SMOOTH"
);
},
{
closed = 1;
nodes = (
"402 786 LINE",
"438 827 OFFCURVE",
"508 882 OFFCURVE",
"553 909 CURVE",
"523 941 LINE",
"481 913 OFFCURVE",
"425 868 OFFCURVE",
"393 832 CURVE",
"388 832 LINE",
"371 868 OFFCURVE",
"333 913 OFFCURVE",
"302 941 CURVE",
"261 909 LINE",
"293 882 OFFCURVE",
"341 827 OFFCURVE",
"361 786 CURVE"
);
}
);
width = 523;
}
);
leftKerningGroup = S;
note = Scaron;
rightKerningGroup = S;
unicode = 0160;
},
{
glyphname = Scedilla;
lastChange = "2015-10-27 08:20:58 +0000";
layers = (
{
layerId = "6452E246-BF19-4A01-B77D-5979BB06C1CE";
name = "Regular Italic";
paths = (
{
closed = 1;
nodes = (
"348 -10 OFFCURVE",
"464 63 OFFCURVE",
"489 184 CURVE SMOOTH",
"539 432 OFFCURVE",
"177 396 OFFCURVE",
"209 556 CURVE SMOOTH",
"225 631 OFFCURVE",
"286 673 OFFCURVE",
"389 673 CURVE SMOOTH",
"442 673 OFFCURVE",
"482 657 OFFCURVE",
"505 629 CURVE",
"501 594 OFFCURVE",
"498 547 OFFCURVE",
"501 521 CURVE",
"523 521 LINE",
"557 638 LINE",
"522 686 OFFCURVE",
"464 710 OFFCURVE",
"373 710 CURVE SMOOTH",
"240 710 OFFCURVE",
"139 655 OFFCURVE",
"116 543 CURVE SMOOTH",
"70 318 OFFCURVE",
"436 370 OFFCURVE",
"396 170 CURVE SMOOTH",
"375 75 OFFCURVE",
"286 27 OFFCURVE",
"202 27 CURVE SMOOTH",
"132 27 OFFCURVE",
"85 56 OFFCURVE",
"62 95 CURVE",
"66 129 OFFCURVE",
"74 191 OFFCURVE",
"70 218 CURVE",
"48 218 LINE",
"11 82 LINE",
"40 30 OFFCURVE",
"112 -10 OFFCURVE",
"216 -10 CURVE SMOOTH"
);
},
{
closed = 1;
nodes = (
"225 -219 OFFCURVE",
"281 -191 OFFCURVE",
"293 -132 CURVE SMOOTH",
"302 -86 OFFCURVE",
"269 -65 OFFCURVE",
"206 -65 CURVE",
"255 12 LINE",
"213 12 LINE",
"157 -69 LINE",
"173 -97 LINE",
"180 -96 OFFCURVE",
"188 -95 OFFCURVE",
"197 -95 CURVE SMOOTH",
"222 -95 OFFCURVE",
"251 -104 OFFCURVE",
"245 -132 CURVE SMOOTH",
"238 -169 OFFCURVE",
"204 -184 OFFCURVE",
"163 -184 CURVE SMOOTH",
"143 -184 OFFCURVE",
"122 -180 OFFCURVE",
"106 -172 CURVE",
"84 -201 LINE",
"105 -213 OFFCURVE",
"134 -219 OFFCURVE",
"161 -219 CURVE SMOOTH"
);
}
);
width = 523;
}
);
leftKerningGroup = S;
note = Scedilla;
rightKerningGroup = S;
unicode = 015E;
},
{
glyphname = Scircumflex;
lastChange = "2015-10-27 08:20:56 +0000";
layers = (
{
layerId = "6452E246-BF19-4A01-B77D-5979BB06C1CE";
name = "Regular Italic";
paths = (
{
closed = 1;
nodes = (
"348 -10 OFFCURVE",
"464 63 OFFCURVE",
"489 184 CURVE SMOOTH",
"539 432 OFFCURVE",
"177 396 OFFCURVE",
"209 556 CURVE SMOOTH",
"225 631 OFFCURVE",
"286 673 OFFCURVE",
"389 673 CURVE SMOOTH",
"442 673 OFFCURVE",
"482 657 OFFCURVE",
"505 629 CURVE",
"501 594 OFFCURVE",
"498 547 OFFCURVE",
"501 521 CURVE",
"523 521 LINE",
"557 638 LINE",
"522 686 OFFCURVE",
"464 710 OFFCURVE",
"373 710 CURVE SMOOTH",
"240 710 OFFCURVE",
"139 655 OFFCURVE",
"116 543 CURVE SMOOTH",
"70 318 OFFCURVE",
"436 370 OFFCURVE",
"396 170 CURVE SMOOTH",
"375 75 OFFCURVE",
"286 27 OFFCURVE",
"202 27 CURVE SMOOTH",
"132 27 OFFCURVE",
"85 56 OFFCURVE",
"62 95 CURVE",
"66 129 OFFCURVE",
"74 191 OFFCURVE",
"70 218 CURVE",
"48 218 LINE",
"11 82 LINE",
"40 30 OFFCURVE",
"112 -10 OFFCURVE",
"216 -10 CURVE SMOOTH"
);
},
{
closed = 1;
nodes = (
"311 808 OFFCURVE",
"368 853 OFFCURVE",
"400 889 CURVE",
"405 889 LINE",
"422 853 OFFCURVE",
"459 808 OFFCURVE",
"490 780 CURVE",
"533 812 LINE",
"499 839 OFFCURVE",
"452 894 OFFCURVE",
"432 934 CURVE",
"391 934 LINE",
"355 894 OFFCURVE",
"284 839 OFFCURVE",
"241 812 CURVE",
"269 780 LINE"
);
}
);
width = 523;
}
);
leftKerningGroup = S;
note = Scircumflex;
rightKerningGroup = S;
unicode = 015C;
},
{
glyphname = Scommaaccent;
lastChange = "2015-10-27 08:20:56 +0000";
layers = (
{
layerId = "6452E246-BF19-4A01-B77D-5979BB06C1CE";
name = "Regular Italic";
paths = (
{
closed = 1;
nodes = (
"348 -10 OFFCURVE",
"464 63 OFFCURVE",
"489 184 CURVE SMOOTH",
"539 432 OFFCURVE",
"177 396 OFFCURVE",
"209 556 CURVE SMOOTH",
"225 631 OFFCURVE",
"286 673 OFFCURVE",
"389 673 CURVE SMOOTH",
"442 673 OFFCURVE",
"482 657 OFFCURVE",
"505 629 CURVE",
"501 594 OFFCURVE",
"498 547 OFFCURVE",
"501 521 CURVE",
"523 521 LINE",
"557 638 LINE",
"522 686 OFFCURVE",
"464 710 OFFCURVE",
"373 710 CURVE SMOOTH",
"240 710 OFFCURVE",
"139 655 OFFCURVE",
"116 543 CURVE SMOOTH",
"70 318 OFFCURVE",
"436 370 OFFCURVE",
"396 170 CURVE SMOOTH",
"375 75 OFFCURVE",
"286 27 OFFCURVE",
"202 27 CURVE SMOOTH",
"132 27 OFFCURVE",
"85 56 OFFCURVE",
"62 95 CURVE",
"66 129 OFFCURVE",
"74 191 OFFCURVE",
"70 218 CURVE",
"48 218 LINE",
"11 82 LINE",
"40 30 OFFCURVE",
"112 -10 OFFCURVE",
"216 -10 CURVE SMOOTH"
);
},
{
closed = 1;
nodes = (
"198 -252 OFFCURVE",
"244 -178 OFFCURVE",
"254 -123 CURVE SMOOTH",
"262 -85 OFFCURVE",
"250 -54 OFFCURVE",
"208 -54 CURVE SMOOTH",
"180 -54 OFFCURVE",
"152 -75 OFFCURVE",
"145 -107 CURVE SMOOTH",
"139 -136 OFFCURVE",
"157 -157 OFFCURVE",
"182 -157 CURVE SMOOTH",
"185 -157 OFFCURVE",
"189 -157 OFFCURVE",
"194 -155 CURVE",
"181 -197 OFFCURVE",
"152 -239 OFFCURVE",
"123 -267 CURVE",
"149 -292 LINE"
);
}
);
width = 523;
}
);
leftKerningGroup = S;
note = Scommaaccent;
rightKerningGroup = S;
unicode = 0218;
},
{
glyphname = Sdotaccent;
lastChange = "2015-10-27 08:20:57 +0000";
layers = (
{
layerId = "6452E246-BF19-4A01-B77D-5979BB06C1CE";
name = "Regular Italic";
paths = (
{
closed = 1;
nodes = (
"348 -10 OFFCURVE",
"464 63 OFFCURVE",
"489 184 CURVE SMOOTH",
"539 432 OFFCURVE",
"177 396 OFFCURVE",
"209 556 CURVE SMOOTH",
"225 631 OFFCURVE",
"286 673 OFFCURVE",
"389 673 CURVE SMOOTH",
"442 673 OFFCURVE",
"482 657 OFFCURVE",
"505 629 CURVE",
"501 594 OFFCURVE",
"498 547 OFFCURVE",
"501 521 CURVE",
"523 521 LINE",
"557 638 LINE",
"522 686 OFFCURVE",
"464 710 OFFCURVE",
"373 710 CURVE SMOOTH",
"240 710 OFFCURVE",
"139 655 OFFCURVE",
"116 543 CURVE SMOOTH",
"70 318 OFFCURVE",
"436 370 OFFCURVE",
"396 170 CURVE SMOOTH",
"375 75 OFFCURVE",
"286 27 OFFCURVE",
"202 27 CURVE SMOOTH",
"132 27 OFFCURVE",
"85 56 OFFCURVE",
"62 95 CURVE",
"66 129 OFFCURVE",
"74 191 OFFCURVE",
"70 218 CURVE",
"48 218 LINE",
"11 82 LINE",
"40 30 OFFCURVE",
"112 -10 OFFCURVE",
"216 -10 CURVE SMOOTH"
);
},
{
closed = 1;
nodes = (
"416 785 OFFCURVE",
"437 804 OFFCURVE",
"443 830 CURVE SMOOTH",
"448 858 OFFCURVE",
"435 877 OFFCURVE",
"410 877 CURVE SMOOTH",
"383 877 OFFCURVE",
"363 858 OFFCURVE",
"357 830 CURVE SMOOTH",
"351 804 OFFCURVE",
"364 785 OFFCURVE",
"391 785 CURVE SMOOTH"
);
}
);
width = 523;
}
);
leftKerningGroup = S;
note = Sdotaccent;
rightKerningGroup = S;
unicode = 1E60;
},
{
glyphname = Sdotbelow;
lastChange = "2015-10-27 08:20:57 +0000";
layers = (
{
layerId = "6452E246-BF19-4A01-B77D-5979BB06C1CE";
name = "Regular Italic";
paths = (
{
closed = 1;
nodes = (
"348 -10 OFFCURVE",
"464 63 OFFCURVE",
"489 184 CURVE SMOOTH",
"539 432 OFFCURVE",
"177 396 OFFCURVE",
"209 556 CURVE SMOOTH",
"225 631 OFFCURVE",
"286 673 OFFCURVE",
"389 673 CURVE SMOOTH",
"442 673 OFFCURVE",
"482 657 OFFCURVE",
"505 629 CURVE",
"501 594 OFFCURVE",
"498 547 OFFCURVE",
"501 521 CURVE",
"523 521 LINE",
"557 638 LINE",
"522 686 OFFCURVE",
"464 710 OFFCURVE",
"373 710 CURVE SMOOTH",
"240 710 OFFCURVE",
"139 655 OFFCURVE",
"116 543 CURVE SMOOTH",
"70 318 OFFCURVE",
"436 370 OFFCURVE",
"396 170 CURVE SMOOTH",
"375 75 OFFCURVE",
"286 27 OFFCURVE",
"202 27 CURVE SMOOTH",
"132 27 OFFCURVE",
"85 56 OFFCURVE",
"62 95 CURVE",
"66 129 OFFCURVE",
"74 191 OFFCURVE",
"70 218 CURVE",
"48 218 LINE",
"11 82 LINE",
"40 30 OFFCURVE",
"112 -10 OFFCURVE",
"216 -10 CURVE SMOOTH"
);
},
{
closed = 1;
nodes = (
"215 -151 OFFCURVE",
"236 -132 OFFCURVE",
"242 -106 CURVE SMOOTH",
"248 -78 OFFCURVE",
"234 -59 OFFCURVE",
"208 -59 CURVE SMOOTH",
"182 -59 OFFCURVE",
"161 -78 OFFCURVE",
"156 -106 CURVE SMOOTH",
"150 -132 OFFCURVE",
"163 -151 OFFCURVE",
"189 -151 CURVE SMOOTH"
);
}
);
width = 523;
}
);
leftKerningGroup = S;
note = Sdotbelow;
rightKerningGroup = S;
unicode = 1E62;
},
{
glyphname = Germandbls;
lastChange = "2015-10-27 08:20:57 +0000";
layers = (
{
layerId = "6452E246-BF19-4A01-B77D-5979BB06C1CE";
name = "Regular Italic";
paths = (
{
closed = 1;
nodes = (
"535 -10 OFFCURVE",
"627 88 OFFCURVE",
"651 203 CURVE SMOOTH",
"673 313 OFFCURVE",
"605 387 OFFCURVE",
"466 397 CURVE",
"641 554 LINE",
"635 628 OFFCURVE",
"574 710 OFFCURVE",
"444 710 CURVE SMOOTH",
"273 710 OFFCURVE",
"174 617 OFFCURVE",
"143 470 CURVE SMOOTH",
"54 30 LINE",
"25 26 OFFCURVE",
"-3 19 OFFCURVE",
"-29 12 CURVE",
"-31 0 LINE",
"192 0 LINE",
"194 11 LINE",
"183 17 OFFCURVE",
"159 26 OFFCURVE",
"141 30 CURVE",
"236 496 LINE SMOOTH",
"258 605 OFFCURVE",
"329 673 OFFCURVE",
"431 673 CURVE SMOOTH",
"515 673 OFFCURVE",
"567 629 OFFCURVE",
"578 573 CURVE",
"372 387 LINE",
"368 363 LINE",
"425 363 LINE SMOOTH",
"539 363 OFFCURVE",
"583 297 OFFCURVE",
"564 203 CURVE SMOOTH",
"541 98 OFFCURVE",
"470 25 OFFCURVE",
"369 25 CURVE SMOOTH",
"324 25 OFFCURVE",
"278 34 OFFCURVE",
"238 52 CURVE",
"229 14 LINE",
"265 -2 OFFCURVE",
"310 -10 OFFCURVE",
"365 -10 CURVE SMOOTH"
);
}
);
width = 677;
}
);
note = uni1E9E;
unicode = 1E9E;
},
{
glyphname = Schwa;
lastChange = "2015-10-27 08:20:56 +0000";
layers = (
{
layerId = "6452E246-BF19-4A01-B77D-5979BB06C1CE";
name = "Regular Italic";
paths = (
{
closed = 1;
nodes = (
"478 -10 OFFCURVE",
"631 111 OFFCURVE",
"679 344 CURVE SMOOTH",
"722 559 OFFCURVE",
"617 710 OFFCURVE",
"403 710 CURVE SMOOTH",
"283 710 OFFCURVE",
"199 670 OFFCURVE",
"150 636 CURVE",
"152 623 OFFCURVE",
"151 619 OFFCURVE",
"154 604 CURVE",
"230 650 OFFCURVE",
"303 670 OFFCURVE",
"381 670 CURVE SMOOTH",
"565 670 OFFCURVE",
"627 509 OFFCURVE",
"590 331 CURVE SMOOTH",
"558 171 OFFCURVE",
"455 25 OFFCURVE",
"282 25 CURVE SMOOTH",
"139 25 OFFCURVE",
"115 171 OFFCURVE",
"141 300 CURVE",
"591 300 LINE",
"599 338 LINE",
"64 338 LINE",
"60 311 LINE SMOOTH",
"24 138 OFFCURVE",
"79 -10 OFFCURVE",
"279 -10 CURVE SMOOTH"
);
}
);
width = 683;
}
);
note = uni018F;
unicode = 018F;
},
{
glyphname = T;
lastChange = "2015-10-27 08:20:57 +0000";
layers = (
{
layerId = "6452E246-BF19-4A01-B77D-5979BB06C1CE";
name = "Regular Italic";
paths = (
{
closed = 1;
nodes = (
"394 0 LINE",
"396 11 LINE",
"373 19 OFFCURVE",
"342 26 OFFCURVE",
"318 30 CURVE",
"446 663 LINE",
"624 663 LINE",
"621 637 OFFCURVE",
"619 563 OFFCURVE",
"626 543 CURVE",
"646 543 LINE",
"678 700 LINE",
"142 700 LINE",
"110 543 LINE",
"131 543 LINE",
"145 563 OFFCURVE",
"174 637 OFFCURVE",
"180 663 CURVE",
"358 663 LINE",
"229 30 LINE",
"200 25 OFFCURVE",
"170 19 OFFCURVE",
"144 12 CURVE",
"142 0 LINE"
);
}
);
width = 613;
}
);
leftKerningGroup = T;
note = T;
rightKerningGroup = T;
unicode = 0054;
},
{
glyphname = Tbar;
lastChange = "2015-10-27 08:20:57 +0000";
layers = (
{
layerId = "6452E246-BF19-4A01-B77D-5979BB06C1CE";
name = "Regular Italic";
paths = (
{
closed = 1;
nodes = (
"394 0 LINE",
"396 11 LINE",
"373 19 OFFCURVE",
"342 26 OFFCURVE",
"318 30 CURVE",
"446 663 LINE",
"624 663 LINE",
"621 637 OFFCURVE",
"619 563 OFFCURVE",
"626 543 CURVE",
"646 543 LINE",
"678 700 LINE",
"142 700 LINE",
"110 543 LINE",
"131 543 LINE",
"145 563 OFFCURVE",
"174 637 OFFCURVE",
"180 663 CURVE",
"358 663 LINE",
"229 30 LINE",
"200 25 OFFCURVE",
"170 19 OFFCURVE",
"144 12 CURVE",
"142 0 LINE"
);
},
{
closed = 1;
nodes = (
"524 323 LINE",
"531 358 LINE",
"155 358 LINE",
"148 323 LINE"
);
}
);
width = 613;
}
);
leftKerningGroup = T;
note = Tbar;
rightKerningGroup = T;
unicode = 0166;
},
{
glyphname = Tcaron;
lastChange = "2015-10-27 08:20:56 +0000";
layers = (
{
layerId = "6452E246-BF19-4A01-B77D-5979BB06C1CE";
name = "Regular Italic";
paths = (
{
closed = 1;
nodes = (
"394 0 LINE",
"396 11 LINE",
"373 19 OFFCURVE",
"342 26 OFFCURVE",
"318 30 CURVE",
"446 663 LINE",
"624 663 LINE",
"621 637 OFFCURVE",
"619 563 OFFCURVE",
"626 543 CURVE",
"646 543 LINE",
"678 700 LINE",
"142 700 LINE",
"110 543 LINE",
"131 543 LINE",
"145 563 OFFCURVE",
"174 637 OFFCURVE",
"180 663 CURVE",
"358 663 LINE",
"229 30 LINE",
"200 25 OFFCURVE",
"170 19 OFFCURVE",
"144 12 CURVE",
"142 0 LINE"
);
},
{
closed = 1;
nodes = (
"446 786 LINE",
"482 827 OFFCURVE",
"552 882 OFFCURVE",
"597 909 CURVE",
"567 941 LINE",
"525 913 OFFCURVE",
"469 868 OFFCURVE",
"437 832 CURVE",
"432 832 LINE",
"415 868 OFFCURVE",
"377 913 OFFCURVE",
"347 941 CURVE",
"305 909 LINE",
"337 882 OFFCURVE",
"385 827 OFFCURVE",
"405 786 CURVE"
);
}
);
width = 613;
}
);
leftKerningGroup = T;
note = Tcaron;
rightKerningGroup = T;
unicode = 0164;
},
{
glyphname = Tcedilla;
lastChange = "2015-10-27 08:20:56 +0000";
layers = (
{
layerId = "6452E246-BF19-4A01-B77D-5979BB06C1CE";
name = "Regular Italic";
paths = (
{
closed = 1;
nodes = (
"394 0 LINE",
"396 11 LINE",
"373 19 OFFCURVE",
"342 26 OFFCURVE",
"318 30 CURVE",
"446 663 LINE",
"624 663 LINE",
"621 637 OFFCURVE",
"619 563 OFFCURVE",
"626 543 CURVE",
"646 543 LINE",
"678 700 LINE",
"142 700 LINE",
"110 543 LINE",
"131 543 LINE",
"145 563 OFFCURVE",
"174 637 OFFCURVE",
"180 663 CURVE",
"358 663 LINE",
"229 30 LINE",
"200 25 OFFCURVE",
"170 19 OFFCURVE",
"144 12 CURVE",
"142 0 LINE"
);
},
{
closed = 1;
nodes = (
"261 -219 OFFCURVE",
"318 -191 OFFCURVE",
"329 -132 CURVE SMOOTH",
"338 -92 OFFCURVE",
"312 -65 OFFCURVE",
"255 -64 CURVE SMOOTH",
"251 -64 OFFCURVE",
"246 -64 OFFCURVE",
"241 -65 CURVE",
"291 12 LINE",
"248 12 LINE",
"193 -69 LINE",
"208 -97 LINE",
"215 -96 OFFCURVE",
"224 -95 OFFCURVE",
"231 -95 CURVE SMOOTH",
"258 -95 OFFCURVE",
"287 -104 OFFCURVE",
"281 -132 CURVE SMOOTH",
"275 -169 OFFCURVE",
"239 -184 OFFCURVE",
"199 -184 CURVE SMOOTH",
"179 -184 OFFCURVE",
"156 -180 OFFCURVE",
"140 -172 CURVE",
"119 -201 LINE",
"140 -213 OFFCURVE",
"170 -219 OFFCURVE",
"197 -219 CURVE SMOOTH"
);
}
);
width = 613;
}
);
leftKerningGroup = T;
note = Tcedilla;
rightKerningGroup = T;
unicode = 0162;
},
{
glyphname = Tcommaaccent;
lastChange = "2015-10-27 08:20:57 +0000";
layers = (
{
layerId = "6452E246-BF19-4A01-B77D-5979BB06C1CE";
name = "Regular Italic";
paths = (
{
closed = 1;
nodes = (
"394 0 LINE",
"396 11 LINE",
"373 19 OFFCURVE",
"342 26 OFFCURVE",
"318 30 CURVE",
"446 663 LINE",
"624 663 LINE",
"621 637 OFFCURVE",
"619 563 OFFCURVE",
"626 543 CURVE",
"646 543 LINE",
"678 700 LINE",
"142 700 LINE",
"110 543 LINE",
"131 543 LINE",
"145 563 OFFCURVE",
"174 637 OFFCURVE",
"180 663 CURVE",
"358 663 LINE",
"229 30 LINE",
"200 25 OFFCURVE",
"170 19 OFFCURVE",
"144 12 CURVE",
"142 0 LINE"
);
},
{
closed = 1;
nodes = (
"240 -263 OFFCURVE",
"283 -190 OFFCURVE",
"295 -135 CURVE SMOOTH",
"302 -98 OFFCURVE",
"292 -69 OFFCURVE",
"251 -69 CURVE SMOOTH",
"224 -69 OFFCURVE",
"195 -86 OFFCURVE",
"188 -118 CURVE SMOOTH",
"183 -145 OFFCURVE",
"196 -162 OFFCURVE",
"217 -166 CURVE SMOOTH",
"223 -167 OFFCURVE",
"228 -167 OFFCURVE",
"235 -166 CURVE",
"224 -207 OFFCURVE",
"196 -249 OFFCURVE",
"166 -277 CURVE",
"191 -302 LINE"
);
}
);
width = 613;
}
);
leftKerningGroup = T;
note = Tcommaaccent;
rightKerningGroup = T;
unicode = 021A;
},
{
glyphname = Tdotbelow;
lastChange = "2015-10-27 08:20:58 +0000";
layers = (
{
layerId = "6452E246-BF19-4A01-B77D-5979BB06C1CE";
name = "Regular Italic";
paths = (
{
closed = 1;
nodes = (
"394 0 LINE",
"396 11 LINE",
"373 19 OFFCURVE",
"342 26 OFFCURVE",
"318 30 CURVE",
"446 663 LINE",
"624 663 LINE",
"621 637 OFFCURVE",
"619 563 OFFCURVE",
"626 543 CURVE",
"646 543 LINE",
"678 700 LINE",
"142 700 LINE",
"110 543 LINE",
"131 543 LINE",
"145 563 OFFCURVE",
"174 637 OFFCURVE",
"180 663 CURVE",
"358 663 LINE",
"229 30 LINE",
"200 25 OFFCURVE",
"170 19 OFFCURVE",
"144 12 CURVE",
"142 0 LINE"
);
},
{
closed = 1;
nodes = (
"262 -151 OFFCURVE",
"283 -132 OFFCURVE",
"289 -106 CURVE SMOOTH",
"295 -78 OFFCURVE",
"281 -59 OFFCURVE",
"255 -59 CURVE SMOOTH",
"229 -59 OFFCURVE",
"208 -78 OFFCURVE",
"203 -106 CURVE SMOOTH",
"197 -132 OFFCURVE",
"210 -151 OFFCURVE",
"236 -151 CURVE SMOOTH"
);
}
);
width = 613;
}
);
leftKerningGroup = T;
note = Tdotbelow;
rightKerningGroup = T;
unicode = 1E6C;
},
{
glyphname = Tlinebelow;
lastChange = "2015-10-27 08:20:57 +0000";
layers = (
{
layerId = "6452E246-BF19-4A01-B77D-5979BB06C1CE";
name = "Regular Italic";
paths = (
{
closed = 1;
nodes = (
"394 0 LINE",
"396 11 LINE",
"373 19 OFFCURVE",
"342 26 OFFCURVE",
"318 30 CURVE",
"446 663 LINE",
"624 663 LINE",
"621 637 OFFCURVE",
"619 563 OFFCURVE",
"626 543 CURVE",
"646 543 LINE",
"678 700 LINE",
"142 700 LINE",
"110 543 LINE",
"131 543 LINE",
"145 563 OFFCURVE",
"174 637 OFFCURVE",
"180 663 CURVE",
"358 663 LINE",
"229 30 LINE",
"200 25 OFFCURVE",
"170 19 OFFCURVE",
"144 12 CURVE",
"142 0 LINE"
);
},
{
closed = 1;
nodes = (
"404 -104 LINE",
"412 -69 LINE",
"93 -69 LINE",
"85 -104 LINE"
);
}
);
width = 613;
}
);
leftKerningGroup = T;
note = Tlinebelow;
rightKerningGroup = T;
unicode = 1E6E;
},
{
glyphname = U;
lastChange = "2015-10-27 08:20:57 +0000";
layers = (
{
layerId = "6452E246-BF19-4A01-B77D-5979BB06C1CE";
name = "Regular Italic";
paths = (
{
closed = 1;
nodes = (
"495 -10 OFFCURVE",
"597 60 OFFCURVE",
"629 213 CURVE SMOOTH",
"721 668 LINE",
"742 671 OFFCURVE",
"773 678 OFFCURVE",
"804 688 CURVE",
"806 700 LINE",
"607 700 LINE",
"605 688 LINE",
"629 679 OFFCURVE",
"654 673 OFFCURVE",
"680 670 CURVE",
"585 203 LINE SMOOTH",
"558 71 OFFCURVE",
"463 27 OFFCURVE",
"361 27 CURVE SMOOTH",
"255 27 OFFCURVE",
"178 67 OFFCURVE",
"205 203 CURVE SMOOTH",
"300 669 LINE",
"329 673 OFFCURVE",
"357 679 OFFCURVE",
"382 687 CURVE",
"384 700 LINE",
"140 700 LINE",
"138 688 LINE",
"161 679 OFFCURVE",
"187 673 OFFCURVE",
"212 669 CURVE",
"119 213 LINE SMOOTH",
"86 55 OFFCURVE",
"170 -10 OFFCURVE",
"331 -10 CURVE SMOOTH"
);
}
);
width = 739;
}
);
leftKerningGroup = U;
note = U;
rightKerningGroup = U;
unicode = 0055;
},
{
glyphname = Uacute;
lastChange = "2015-10-27 08:20:56 +0000";
layers = (
{
layerId = "6452E246-BF19-4A01-B77D-5979BB06C1CE";
name = "Regular Italic";
paths = (
{
closed = 1;
nodes = (
"495 -10 OFFCURVE",
"597 60 OFFCURVE",
"629 213 CURVE SMOOTH",
"721 668 LINE",
"742 671 OFFCURVE",
"773 678 OFFCURVE",
"804 688 CURVE",
"806 700 LINE",
"607 700 LINE",
"605 688 LINE",
"629 679 OFFCURVE",
"654 673 OFFCURVE",
"680 670 CURVE",
"585 203 LINE SMOOTH",
"558 71 OFFCURVE",
"463 27 OFFCURVE",
"361 27 CURVE SMOOTH",
"255 27 OFFCURVE",
"178 67 OFFCURVE",
"205 203 CURVE SMOOTH",
"300 669 LINE",
"329 673 OFFCURVE",
"357 679 OFFCURVE",
"382 687 CURVE",
"384 700 LINE",
"140 700 LINE",
"138 688 LINE",
"161 679 OFFCURVE",
"187 673 OFFCURVE",
"212 669 CURVE",
"119 213 LINE SMOOTH",
"86 55 OFFCURVE",
"170 -10 OFFCURVE",
"331 -10 CURVE SMOOTH"
);
},
{
closed = 1;
nodes = (
"590 868 LINE SMOOTH",
"613 881 OFFCURVE",
"627 895 OFFCURVE",
"630 911 CURVE",
"633 924 OFFCURVE",
"626 938 OFFCURVE",
"606 938 CURVE SMOOTH",
"585 938 OFFCURVE",
"566 922 OFFCURVE",
"558 915 CURVE SMOOTH",
"427 809 LINE",
"438 786 LINE"
);
}
);
width = 739;
}
);
leftKerningGroup = U;
note = Uacute;
rightKerningGroup = U;
unicode = 00DA;
},
{
glyphname = Ubreve;
lastChange = "2015-10-27 08:20:56 +0000";
layers = (
{
layerId = "6452E246-BF19-4A01-B77D-5979BB06C1CE";
name = "Regular Italic";
paths = (
{
closed = 1;
nodes = (
"495 -10 OFFCURVE",
"597 60 OFFCURVE",
"629 213 CURVE SMOOTH",
"721 668 LINE",
"742 671 OFFCURVE",
"773 678 OFFCURVE",
"804 688 CURVE",
"806 700 LINE",
"607 700 LINE",
"605 688 LINE",
"629 679 OFFCURVE",
"654 673 OFFCURVE",
"680 670 CURVE",
"585 203 LINE SMOOTH",
"558 71 OFFCURVE",
"463 27 OFFCURVE",
"361 27 CURVE SMOOTH",
"255 27 OFFCURVE",
"178 67 OFFCURVE",
"205 203 CURVE SMOOTH",
"300 669 LINE",
"329 673 OFFCURVE",
"357 679 OFFCURVE",
"382 687 CURVE",
"384 700 LINE",
"140 700 LINE",
"138 688 LINE",
"161 679 OFFCURVE",
"187 673 OFFCURVE",
"212 669 CURVE",
"119 213 LINE SMOOTH",
"86 55 OFFCURVE",
"170 -10 OFFCURVE",
"331 -10 CURVE SMOOTH"
);
},
{
closed = 1;
nodes = (
"574 775 OFFCURVE",
"640 814 OFFCURVE",
"667 899 CURVE",
"613 899 LINE",
"590 823 OFFCURVE",
"540 812 OFFCURVE",
"501 812 CURVE SMOOTH",
"462 812 OFFCURVE",
"415 823 OFFCURVE",
"422 899 CURVE",
"370 899 LINE",
"363 814 OFFCURVE",
"412 775 OFFCURVE",
"493 775 CURVE SMOOTH"
);
}
);
width = 739;
}
);
leftKerningGroup = U;
note = Ubreve;
rightKerningGroup = U;
unicode = 016C;
},
{
glyphname = Ucaron;
lastChange = "2015-10-27 08:20:57 +0000";
layers = (
{
layerId = "6452E246-BF19-4A01-B77D-5979BB06C1CE";
name = "Regular Italic";
paths = (
{
closed = 1;
nodes = (
"495 -10 OFFCURVE",
"597 60 OFFCURVE",
"629 213 CURVE SMOOTH",
"721 668 LINE",
"742 671 OFFCURVE",
"773 678 OFFCURVE",
"804 688 CURVE",
"806 700 LINE",
"607 700 LINE",
"605 688 LINE",
"629 679 OFFCURVE",
"654 673 OFFCURVE",
"680 670 CURVE",
"585 203 LINE SMOOTH",
"558 71 OFFCURVE",
"463 27 OFFCURVE",
"361 27 CURVE SMOOTH",
"255 27 OFFCURVE",
"178 67 OFFCURVE",
"205 203 CURVE SMOOTH",
"300 669 LINE",
"329 673 OFFCURVE",
"357 679 OFFCURVE",
"382 687 CURVE",
"384 700 LINE",
"140 700 LINE",
"138 688 LINE",
"161 679 OFFCURVE",
"187 673 OFFCURVE",
"212 669 CURVE",
"119 213 LINE SMOOTH",
"86 55 OFFCURVE",
"170 -10 OFFCURVE",
"331 -10 CURVE SMOOTH"
);
},
{
closed = 1;
nodes = (
"509 786 LINE",
"544 827 OFFCURVE",
"614 882 OFFCURVE",
"660 909 CURVE",
"630 941 LINE",
"588 913 OFFCURVE",
"532 868 OFFCURVE",
"499 832 CURVE",
"494 832 LINE",
"477 868 OFFCURVE",
"440 913 OFFCURVE",
"409 941 CURVE",
"368 909 LINE",
"399 882 OFFCURVE",
"447 827 OFFCURVE",
"468 786 CURVE"
);
}
);
width = 739;
}
);
leftKerningGroup = U;
note = Ucaron;
rightKerningGroup = U;
unicode = 01D3;
},
{
glyphname = Ucircumflex;
lastChange = "2015-10-27 08:20:56 +0000";
layers = (
{
layerId = "6452E246-BF19-4A01-B77D-5979BB06C1CE";
name = "Regular Italic";
paths = (
{
closed = 1;
nodes = (
"495 -10 OFFCURVE",
"597 60 OFFCURVE",
"629 213 CURVE SMOOTH",
"721 668 LINE",
"742 671 OFFCURVE",
"773 678 OFFCURVE",
"804 688 CURVE",
"806 700 LINE",
"607 700 LINE",
"605 688 LINE",
"629 679 OFFCURVE",
"654 673 OFFCURVE",
"680 670 CURVE",
"585 203 LINE SMOOTH",
"558 71 OFFCURVE",
"463 27 OFFCURVE",
"361 27 CURVE SMOOTH",
"255 27 OFFCURVE",
"178 67 OFFCURVE",
"205 203 CURVE SMOOTH",
"300 669 LINE",
"329 673 OFFCURVE",
"357 679 OFFCURVE",
"382 687 CURVE",
"384 700 LINE",
"140 700 LINE",
"138 688 LINE",
"161 679 OFFCURVE",
"187 673 OFFCURVE",
"212 669 CURVE",
"119 213 LINE SMOOTH",
"86 55 OFFCURVE",
"170 -10 OFFCURVE",
"331 -10 CURVE SMOOTH"
);
},
{
closed = 1;
nodes = (
"420 808 OFFCURVE",
"476 853 OFFCURVE",
"509 889 CURVE",
"514 889 LINE",
"531 853 OFFCURVE",
"567 808 OFFCURVE",
"598 780 CURVE",
"641 812 LINE",
"608 839 OFFCURVE",
"561 894 OFFCURVE",
"540 934 CURVE",
"499 934 LINE",
"464 894 OFFCURVE",
"393 839 OFFCURVE",
"349 812 CURVE",
"377 780 LINE"
);
}
);
width = 739;
}
);
leftKerningGroup = U;
note = Ucircumflex;
rightKerningGroup = U;
unicode = 00DB;
},
{
glyphname = Udieresis;
lastChange = "2015-10-27 08:20:57 +0000";
layers = (
{
layerId = "6452E246-BF19-4A01-B77D-5979BB06C1CE";
name = "Regular Italic";
paths = (
{
closed = 1;
nodes = (
"495 -10 OFFCURVE",
"597 60 OFFCURVE",
"629 213 CURVE SMOOTH",
"721 668 LINE",
"742 671 OFFCURVE",
"773 678 OFFCURVE",
"804 688 CURVE",
"806 700 LINE",
"607 700 LINE",
"605 688 LINE",
"629 679 OFFCURVE",
"654 673 OFFCURVE",
"680 670 CURVE",
"585 203 LINE SMOOTH",
"558 71 OFFCURVE",
"463 27 OFFCURVE",
"361 27 CURVE SMOOTH",
"255 27 OFFCURVE",
"178 67 OFFCURVE",
"205 203 CURVE SMOOTH",
"300 669 LINE",
"329 673 OFFCURVE",
"357 679 OFFCURVE",
"382 687 CURVE",
"384 700 LINE",
"140 700 LINE",
"138 688 LINE",
"161 679 OFFCURVE",
"187 673 OFFCURVE",
"212 669 CURVE",
"119 213 LINE SMOOTH",
"86 55 OFFCURVE",
"170 -10 OFFCURVE",
"331 -10 CURVE SMOOTH"
);
},
{
closed = 1;
nodes = (
"420 785 OFFCURVE",
"441 804 OFFCURVE",
"446 830 CURVE SMOOTH",
"452 858 OFFCURVE",
"439 877 OFFCURVE",
"413 877 CURVE SMOOTH",
"388 877 OFFCURVE",
"368 858 OFFCURVE",
"362 830 CURVE SMOOTH",
"356 804 OFFCURVE",
"370 785 OFFCURVE",
"394 785 CURVE SMOOTH"
);
},
{
closed = 1;
nodes = (
"631 785 OFFCURVE",
"652 804 OFFCURVE",
"658 830 CURVE SMOOTH",
"663 858 OFFCURVE",
"650 877 OFFCURVE",
"624 877 CURVE SMOOTH",
"598 877 OFFCURVE",
"578 858 OFFCURVE",
"572 830 CURVE SMOOTH",
"566 804 OFFCURVE",
"579 785 OFFCURVE",
"605 785 CURVE SMOOTH"
);
}
);
width = 739;
}
);
leftKerningGroup = U;
note = Udieresis;
rightKerningGroup = U;
unicode = 00DC;
},
{
glyphname = Udieresisacute;
lastChange = "2015-10-27 08:20:57 +0000";
layers = (
{
layerId = "6452E246-BF19-4A01-B77D-5979BB06C1CE";
name = "Regular Italic";
paths = (
{
closed = 1;
nodes = (
"495 -10 OFFCURVE",
"597 60 OFFCURVE",
"629 213 CURVE SMOOTH",
"721 668 LINE",
"742 671 OFFCURVE",
"773 678 OFFCURVE",
"804 688 CURVE",
"806 700 LINE",
"607 700 LINE",
"605 688 LINE",
"629 679 OFFCURVE",
"654 673 OFFCURVE",
"680 670 CURVE",
"585 203 LINE SMOOTH",
"558 71 OFFCURVE",
"463 27 OFFCURVE",
"361 27 CURVE SMOOTH",
"255 27 OFFCURVE",
"178 67 OFFCURVE",
"205 203 CURVE SMOOTH",
"300 669 LINE",
"329 673 OFFCURVE",
"357 679 OFFCURVE",
"382 687 CURVE",
"384 700 LINE",
"140 700 LINE",
"138 688 LINE",
"161 679 OFFCURVE",
"187 673 OFFCURVE",
"212 669 CURVE",
"119 213 LINE SMOOTH",
"86 55 OFFCURVE",
"170 -10 OFFCURVE",
"331 -10 CURVE SMOOTH"
);
},
{
closed = 1;
nodes = (
"424 785 OFFCURVE",
"445 803 OFFCURVE",
"451 830 CURVE SMOOTH",
"457 857 OFFCURVE",
"444 876 OFFCURVE",
"418 876 CURVE SMOOTH",
"392 876 OFFCURVE",
"372 857 OFFCURVE",
"366 830 CURVE SMOOTH",
"360 803 OFFCURVE",
"372 785 OFFCURVE",
"398 785 CURVE SMOOTH"
);
},
{
closed = 1;
nodes = (
"636 785 OFFCURVE",
"657 803 OFFCURVE",
"662 830 CURVE SMOOTH",
"668 857 OFFCURVE",
"655 876 OFFCURVE",
"629 876 CURVE SMOOTH",
"603 876 OFFCURVE",
"582 857 OFFCURVE",
"576 830 CURVE SMOOTH",
"570 803 OFFCURVE",
"584 785 OFFCURVE",
"610 785 CURVE SMOOTH"
);
},
{
closed = 1;
nodes = (
"658 974 LINE SMOOTH",
"681 986 OFFCURVE",
"694 1000 OFFCURVE",
"697 1015 CURVE SMOOTH",
"700 1030 OFFCURVE",
"692 1045 OFFCURVE",
"673 1045 CURVE SMOOTH",
"652 1045 OFFCURVE",
"633 1026 OFFCURVE",
"625 1020 CURVE SMOOTH",
"508 924 LINE",
"518 901 LINE"
);
}
);
width = 739;
}
);
leftKerningGroup = U;
note = Udieresisacute;
rightKerningGroup = U;
unicode = 01D7;
},
